<svg version="1.1" xmlns="http://www.w3.org/2000/svg" xmlns:xlink="http://www.w3.org/1999/xlink" width="70" height="70" viewBox="0,0,70,70"><!-- Generated with https://ivantodorovich.github.io/odoo-icon --><defs><linearGradient x1="70" y1="0" x2="0" y2="70" gradientUnits="userSpaceOnUse" id="color-1"><stop offset="0" stop-color="#ff6062"/><stop offset="1" stop-color="#cc2d2f"/></linearGradient></defs><g fill="none" fill-rule="nonzero" stroke="none" stroke-width="1" stroke-linecap="butt" stroke-linejoin="miter" stroke-miterlimit="10" stroke-dasharray="" stroke-dashoffset="0" font-family="none" font-weight="none" font-size="none" text-anchor="none" style="mix-blend-mode: normal"><path d="M3.5,70c-1.933,0 -3.5,-1.567 -3.5,-3.5v-63c0,-1.933 1.567,-3.5 3.5,-3.5h63c1.933,0 3.5,1.567 3.5,3.5v63c0,1.933 -1.567,3.5 -3.5,3.5z" id="box" fill="url(#color-1)"/><path d="M65,1h-61c-1.95033,0 -3.2667,0.63396 -3.9491,1.90189c0.28378,-1.64806 1.72001,-2.90189 3.4491,-2.90189h63c1.72965,0 3.16627,1.25466 3.44938,2.90352c-0.69803,-1.26902 -2.34782,-1.90352 -4.94938,-1.90352z" id="topBoxShadow" fill="#ffffff" opacity="0.383"/><path d="M4,69h61c2.66667,0 4.33333,-1 5,-3v0.5c0,1.933 -1.567,3.5 -3.5,3.5h-63c-1.933,0 -3.5,-1.567 -3.5,-3.5c0,-0.1611 0,-0.32777 0,-0.5c0.66667,2 2,3 4,3z" id="bottomBoxShadow" fill="#000000" opacity="0.383"/><path d="M30.37779,44.35667c-2.10984,0.6385 -4.46952,1.11044 -6.74593,1.11044c-7.60652,0 -11.63186,-4.83042 -11.63186,-12.04828c0,-7.1901 4.02535,-12.04828 11.63186,-12.04828c2.2764,0 4.66385,0.47194 6.74593,1.11044l-0.91611,4.83042c-2.05432,-0.6385 -3.4146,-0.91611 -5.0525,-0.91611c-3.9143,0 -5.5522,2.97043 -5.5522,7.0513c0,4.08087 1.6379,7.0513 5.5522,7.0513c1.6379,0 2.99819,-0.27761 5.0525,-0.91611zM40.26071,26.83947v11.71515c0,1.58238 1.05492,2.02655 2.05432,2.02655c0.44418,0 1.41581,-0.05552 1.97103,-0.19433v4.69161c-1.33253,0.22209 -3.60893,0.36089 -4.69161,0.36089c-4.74713,0 -5.82981,-2.58177 -5.82981,-6.24623v-20.37658l6.52384,-3.47013v6.49608h4.02535v4.99698zM53.94689,26.83947v11.71515c0,1.58238 1.05492,2.02655 2.05432,2.02655c0.44418,0 1.41581,-0.05552 1.97103,-0.19433v4.69161c-1.33253,0.22209 -3.60893,0.36089 -4.69161,0.36089c-4.74713,0 -5.82981,-2.58177 -5.82981,-6.24623v-20.37658l6.52384,-3.47013v6.49608h4.02535v4.99698zM18.21847,51.35244h3.69221v0.9994h-3.69221v3.02595h4.33072v0.9994h-5.49668v-8.6892h5.44116v0.9994h-4.2752zM25.49185,51.49125l0.6385,1.02716h0.02776l0.66626,-1.05492l1.05492,-1.49909h1.1382l-2.19312,3.16476l2.24864,3.24804h-1.30477l-1.11044,-1.52686l-0.6385,-1.02716h-0.02776l-0.66626,1.05492l-1.02716,1.49909h-1.19372l2.22088,-3.24804l-2.19312,-3.16476h1.27701zM36.54074,49.96439h0.97164l0.11104,1.16596c0.52746,-0.77731 1.36029,-1.27701 2.2764,-1.27701v1.05492c-0.9994,0 -1.85999,0.47194 -2.2764,0.80507v4.66385h-1.08268zM49.00543,56.48823c-0.83283,0 -1.6379,-0.08328 -2.35969,-0.27761l0.16657,-0.80507c0.86059,0.24985 1.61014,0.33313 2.02655,0.33313c1.19372,0 1.44357,-0.66626 1.44357,-0.9994c0,-1.44357 -3.52565,-0.91611 -3.52565,-3.10923c0,-1.11044 0.97164,-1.7767 2.52625,-1.7767c0.83283,0 1.38805,0.08328 2.10984,0.27761l-0.13881,0.80507c-0.74955,-0.22209 -1.41581,-0.33313 -1.85999,-0.33313c-1.08268,0 -1.38805,0.55522 -1.38805,0.91611c0,1.44357 3.55341,0.97164 3.55341,3.05371c-0.02776,1.24925 -1.02716,1.91551 -2.55401,1.91551zM54.66868,56.48823c-0.83283,0 -1.6379,-0.08328 -2.35969,-0.27761l0.16657,-0.80507c0.86059,0.24985 1.61014,0.33313 2.02655,0.33313c1.19372,0 1.44357,-0.66626 1.44357,-0.9994c0,-1.44357 -3.52565,-0.91611 -3.52565,-3.10923c0,-1.11044 0.97164,-1.7767 2.52625,-1.7767c0.83283,0 1.38805,0.08328 2.10984,0.27761l-0.13881,0.80507c-0.74955,-0.22209 -1.41581,-0.33313 -1.85999,-0.33313c-1.08268,0 -1.38805,0.55522 -1.38805,0.91611c0,1.44357 3.55341,0.97164 3.55341,3.05371c0,1.24925 -1.02716,1.91551 -2.55401,1.91551zM32.40435,50.7417c-0.66626,0 -1.19372,0.33313 -1.47133,0.55522v3.74774c0.24985,0.22209 0.77731,0.55522 1.47133,0.55522c1.22148,0 1.72118,-1.08268 1.72118,-2.41521zM30.98853,50.6029c0.44418,-0.44418 1.08268,-0.77731 1.83223,-0.77731c1.72118,0 2.44297,1.47133 2.44297,3.33132c0,1.85999 -0.77731,3.33132 -2.49849,3.33132c-0.72179,0 -1.33253,-0.30537 -1.7767,-0.74955h-0.02776v2.91491h-1.08268v-8.6892h0.97164zM41.23235,52.60169h3.35908c0.02776,-0.24985 0.05552,-0.47194 0.05552,-0.61074c0,-0.66626 -0.44418,-1.41581 -1.52686,-1.41581zM41.23235,53.40676c0.02776,1.24925 0.55522,2.24864 2.2764,2.24864c0.6385,0 1.19372,-0.08328 1.74894,-0.27761l0.13881,0.80507c-0.80507,0.27761 -1.41581,0.33313 -2.08208,0.33313c-2.2764,0 -3.19252,-1.41581 -3.19252,-3.33132c0,-1.91551 0.97164,-3.33132 3.05371,-3.33132c1.94327,0 2.52625,1.30477 2.52625,2.41521c0,0.27761 -0.02776,0.74955 -0.13881,1.1382z" id="shadow" fill="#000000" opacity="0.3"/><path d="M23.63186,19.37055c2.1991,0 4.50183,0.44043 6.53278,1.04598l3.59999,-3.59999l6.52384,-3.47013v6.49608h4.02535v0.11104l3.13699,-3.13699l6.52384,-3.47013v6.49608h4.02535v4.99698l-4.05311,4.05311v7.66204c0,1.58238 1.05492,2.02655 2.05432,2.02655c0.44418,0 1.41581,-0.05552 1.97103,-0.19433v4.69161l-7.85505,7.85505c0.07965,0.03205 0.15836,0.06534 0.23548,0.10031l2.51242,-2.51242c0.4295,-0.4295 1.15099,-0.66805 2.0812,-0.66805c0.83283,0 1.38805,0.08328 2.10984,0.27761l-0.13881,0.80507l-1.76533,1.76533c0.97465,0.34644 2.0707,0.71501 2.0707,1.87136c0,0.51376 -0.17373,0.92893 -0.48449,1.23969l-16.18758,16.18758h-37.05061c-1.933,0 -3.5,-1.567 -3.5,-3.5l0,-23.49759z" id="flatShadow" fill="#000000" opacity="0.324"/><path d="M30.37779,42.35667c-2.10984,0.6385 -4.46952,1.11044 -6.74593,1.11044c-7.60652,0 -11.63186,-4.83042 -11.63186,-12.04828c0,-7.1901 4.02535,-12.04828 11.63186,-12.04828c2.2764,0 4.66385,0.47194 6.74593,1.11044l-0.91611,4.83042c-2.05432,-0.6385 -3.4146,-0.91611 -5.0525,-0.91611c-3.9143,0 -5.5522,2.97043 -5.5522,7.0513c0,4.08087 1.6379,7.0513 5.5522,7.0513c1.6379,0 2.99819,-0.27761 5.0525,-0.91611zM40.26071,24.83947v11.71515c0,1.58238 1.05492,2.02655 2.05432,2.02655c0.44418,0 1.41581,-0.05552 1.97103,-0.19433v4.69161c-1.33253,0.22209 -3.60893,0.36089 -4.69161,0.36089c-4.74713,0 -5.82981,-2.58177 -5.82981,-6.24623v-20.37658l6.52384,-3.47013v6.49608h4.02535v4.99698zM53.94689,24.83947v11.71515c0,1.58238 1.05492,2.02655 2.05432,2.02655c0.44418,0 1.41581,-0.05552 1.97103,-0.19433v4.69161c-1.33253,0.22209 -3.60893,0.36089 -4.69161,0.36089c-4.74713,0 -5.82981,-2.58177 -5.82981,-6.24623v-20.37658l6.52384,-3.47013v6.49608h4.02535v4.99698zM18.21847,49.35244h3.69221v0.9994h-3.69221v3.02595h4.33072v0.9994h-5.49668v-8.6892h5.44116v0.9994h-4.2752zM25.49185,49.49125l0.6385,1.02716h0.02776l0.66626,-1.05492l1.05492,-1.49909h1.1382l-2.19312,3.16476l2.24864,3.24804h-1.30477l-1.11044,-1.52686l-0.6385,-1.02716h-0.02776l-0.66626,1.05492l-1.02716,1.49909h-1.19372l2.22088,-3.24804l-2.19312,-3.16476h1.27701zM36.54074,47.96439h0.97164l0.11104,1.16596c0.52746,-0.77731 1.36029,-1.27701 2.2764,-1.27701v1.05492c-0.9994,0 -1.85999,0.47194 -2.2764,0.80507v4.66385h-1.08268zM49.00543,54.48823c-0.83283,0 -1.6379,-0.08328 -2.35969,-0.27761l0.16657,-0.80507c0.86059,0.24985 1.61014,0.33313 2.02655,0.33313c1.19372,0 1.44357,-0.66626 1.44357,-0.9994c0,-1.44357 -3.52565,-0.91611 -3.52565,-3.10923c0,-1.11044 0.97164,-1.7767 2.52625,-1.7767c0.83283,0 1.38805,0.08328 2.10984,0.27761l-0.13881,0.80507c-0.74955,-0.22209 -1.41581,-0.33313 -1.85999,-0.33313c-1.08268,0 -1.38805,0.55522 -1.38805,0.91611c0,1.44357 3.55341,0.97164 3.55341,3.05371c-0.02776,1.24925 -1.02716,1.91551 -2.55401,1.91551zM54.66868,54.48823c-0.83283,0 -1.6379,-0.08328 -2.35969,-0.27761l0.16657,-0.80507c0.86059,0.24985 1.61014,0.33313 2.02655,0.33313c1.19372,0 1.44357,-0.66626 1.44357,-0.9994c0,-1.44357 -3.52565,-0.91611 -3.52565,-3.10923c0,-1.11044 0.97164,-1.7767 2.52625,-1.7767c0.83283,0 1.38805,0.08328 2.10984,0.27761l-0.13881,0.80507c-0.74955,-0.22209 -1.41581,-0.33313 -1.85999,-0.33313c-1.08268,0 -1.38805,0.55522 -1.38805,0.91611c0,1.44357 3.55341,0.97164 3.55341,3.05371c0,1.24925 -1.02716,1.91551 -2.55401,1.91551zM32.40435,48.7417c-0.66626,0 -1.19372,0.33313 -1.47133,0.55522v3.74774c0.24985,0.22209 0.77731,0.55522 1.47133,0.55522c1.22148,0 1.72118,-1.08268 1.72118,-2.41521zM30.98853,48.6029c0.44418,-0.44418 1.08268,-0.77731 1.83223,-0.77731c1.72118,0 2.44297,1.47133 2.44297,3.33132c0,1.85999 -0.77731,3.33132 -2.49849,3.33132c-0.72179,0 -1.33253,-0.30537 -1.7767,-0.74955h-0.02776v2.91491h-1.08268v-8.6892h0.97164zM41.23235,50.60169h3.35908c0.02776,-0.24985 0.05552,-0.47194 0.05552,-0.61074c0,-0.66626 -0.44418,-1.41581 -1.52686,-1.41581zM41.23235,51.40676c0.02776,1.24925 0.55522,2.24864 2.2764,2.24864c0.6385,0 1.19372,-0.08328 1.74894,-0.27761l0.13881,0.80507c-0.80507,0.27761 -1.41581,0.33313 -2.08208,0.33313c-2.2764,0 -3.19252,-1.41581 -3.19252,-3.33132c0,-1.91551 0.97164,-3.33132 3.05371,-3.33132c1.94327,0 2.52625,1.30477 2.52625,2.41521c0,0.27761 -0.02776,0.74955 -0.13881,1.1382z" id="icon" fill="#ffffff"/></g></svg>