<?xml version="1.0" encoding="UTF-8" standalone="no"?>
<!-- Created with Inkscape (http://www.inkscape.org/) -->

<svg
   xmlns:dc="http://purl.org/dc/elements/1.1/"
   xmlns:cc="http://creativecommons.org/ns#"
   xmlns:rdf="http://www.w3.org/1999/02/22-rdf-syntax-ns#"
   xmlns:svg="http://www.w3.org/2000/svg"
   xmlns="http://www.w3.org/2000/svg"
   xmlns:sodipodi="http://sodipodi.sourceforge.net/DTD/sodipodi-0.dtd"
   xmlns:inkscape="http://www.inkscape.org/namespaces/inkscape"
   id="svg2"
   version="1.1"
   inkscape:version="0.91 r13725"
   width="128"
   height="128"
   sodipodi:docname="icon_source.svg"
   inkscape:export-filename="icon.png"
   inkscape:export-xdpi="90"
   inkscape:export-ydpi="90">
  <metadata
     id="metadata8">
    <rdf:RDF>
      <cc:Work
         rdf:about="">
        <dc:format>image/svg+xml</dc:format>
        <dc:type
           rdf:resource="http://purl.org/dc/dcmitype/StillImage" />
        <dc:title></dc:title>
      </cc:Work>
    </rdf:RDF>
  </metadata>
  <defs
     id="defs6" />
  <sodipodi:namedview
     pagecolor="#ffffff"
     bordercolor="#666666"
     borderopacity="1"
     objecttolerance="10"
     gridtolerance="10"
     guidetolerance="10"
     inkscape:pageopacity="0"
     inkscape:pageshadow="2"
     inkscape:window-width="1855"
     inkscape:window-height="1176"
     id="namedview4"
     showgrid="false"
     inkscape:zoom="3.284625"
     inkscape:cx="113.24147"
     inkscape:cy="26.366477"
     inkscape:window-x="65"
     inkscape:window-y="24"
     inkscape:window-maximized="1"
     inkscape:current-layer="svg2"
     fit-margin-top="0"
     fit-margin-left="0"
     fit-margin-right="0"
     fit-margin-bottom="0" />
  <g
     id="g3003"
     transform="translate(-0.07356158,0)">
    <g
       transform="translate(0,-3.31149)"
       id="g2998">
      <rect
         style="color:#000000;fill:#0060b2;fill-opacity:1;fill-rule:evenodd;stroke:none;stroke-width:0.51812077;marker:none;visibility:visible;display:inline;overflow:visible;enable-background:accumulate"
         id="rect2998"
         width="51.523285"
         height="118.80513"
         x="13.910543"
         y="3.8516259"
         ry="0"
         transform="matrix(1,0,0.51069126,0.85976417,0,0)" />
      <path
         style="fill:#ffd715;fill-opacity:1;stroke:none"
         d="M 8.3819299,96.350865 C 15.28056,97.754835 21.012791,96.867186 27.616708,95.369146 62.09419,84.971119 95.837094,59.943837 111.39019,30.987651 c 3.18661,-6.108384 5.44624,-13.663422 7.03447,-20.85088 l 6.46605,10.776762 C 125.69568,40.01481 102.39016,63.273776 86.603152,76.12262 73.967981,86.300307 59.506348,95.700246 46.777865,100.17543 c -9.415431,3.18415 -23.576115,5.76306 -32.88781,5.87454 z"
         id="path3000"
         inkscape:connector-curvature="0"
         sodipodi:nodetypes="ccccccccc" />
      <path
         style="fill:#db2f34;fill-opacity:1;stroke:none"
         d="m 24.427332,35.162809 6.945024,10.297799 C 12.399362,62.416498 10.934918,76.019681 6.2265773,90.24404 L 0,79.467276 C 3.2831165,59.062301 13.253472,46.414525 24.427332,35.162809 z"
         id="path3021"
         inkscape:connector-curvature="0"
         sodipodi:nodetypes="ccccc" />
    </g>
  </g>
  <g
     id="g3363"
     transform="matrix(0.51729246,0,0,0.51729246,119.15689,35.011419)">
    <rect
       y="115.08334"
       x="-167.37848"
       height="63.614586"
       width="17.222223"
       id="rect3348"
       style="opacity:1;fill:#0061b2;fill-opacity:1;stroke:none;stroke-width:0.80000001;stroke-linecap:round;stroke-linejoin:round;stroke-miterlimit:4;stroke-dasharray:none;stroke-opacity:1" />
    <rect
       style="opacity:1;fill:#ffd715;fill-opacity:1;stroke:none;stroke-width:0.80000001;stroke-linecap:round;stroke-linejoin:round;stroke-miterlimit:4;stroke-dasharray:none;stroke-opacity:1"
       id="rect3350"
       width="17.222223"
       height="63.614586"
       x="-137.77779"
       y="115.08334" />
    <path
       sodipodi:nodetypes="cccsccscscccccscscccc"
       inkscape:connector-curvature="0"
       id="path3352"
       d="m -194.2882,134.78125 18.83681,-0.64583 c 0.53191,-0.0868 1.03722,-0.21532 1.07639,-1.07639 -1.42178,-5.88708 -3.54127,-10.9741 -7.77818,-13.98641 -8.40424,-5.97516 -21.76014,-5.66073 -31.6755,-3.42625 -7.24185,2.31164 -11.28794,5.67357 -13.69883,12.57336 -2.35791,8.33835 2.30237,15.38408 8.63854,19.40193 6.61606,4.19534 15.08683,5.21997 20.63239,7.28337 3.66019,1.25655 5.4566,3.75213 5.37696,5.83152 -0.10617,2.77208 -3.25068,5.04112 -6.89816,4.93706 -3.9909,-0.20888 -8.98016,-0.92622 -10.97917,-10.44097 l -18.8368,1.29167 c -0.64155,0.077 -0.71328,0.67074 -0.75348,0.96875 0.71922,7.18647 3.99171,14.17769 9.74119,17.74948 10.191,5.14741 24.88346,6.18626 35.30492,1.60493 8.66515,-3.80925 14.33058,-11.73892 12.43306,-22.26066 -1.03631,-4.14765 -2.76297,-7.9173 -5.38937,-10.36062 -3.91835,-3.64522 -9.37286,-5.08469 -13.77035,-6.43105 -4.64997,-2.15369 -19.50591,-2.11169 -15.7968,-8.42736 2.05097,-2.50966 4.68674,-2.53709 7.61624,-1.90597 4.13047,0.98505 5.25125,3.68587 5.92014,7.31944 z"
       style="fill:#dc2f34;fill-opacity:1;fill-rule:evenodd;stroke:none;stroke-width:1px;stroke-linecap:butt;stroke-linejoin:miter;stroke-opacity:1" />
  </g>
</svg>
