<?xml version="1.0" encoding="UTF-8" standalone="no" ?>
<!-- Created with Inkscape (http://www.inkscape.org/) -->
<svg
  xmlns:dc="http://purl.org/dc/elements/1.1/"
  xmlns:cc="http://creativecommons.org/ns#"
  xmlns:rdf="http://www.w3.org/1999/02/22-rdf-syntax-ns#"
  xmlns:svg="http://www.w3.org/2000/svg"
  xmlns="http://www.w3.org/2000/svg"
  xmlns:sodipodi="http://sodipodi.sourceforge.net/DTD/sodipodi-0.dtd"
  xmlns:inkscape="http://www.inkscape.org/namespaces/inkscape"
  height="128"
  id="svg1"
  inkscape:export-filename="icon.png"
  inkscape:export-xdpi="90"
  inkscape:export-ydpi="90"
  inkscape:version="0.48.3.1 r9886"
  sodipodi:docname="icon.svg"
  sodipodi:version="0.32"
  width="128"
  version="1.1"
>
  <metadata id="metadata3">
    <rdf:RDF>
      <cc:Work rdf:about="">
        <dc:title>spain_provinces</dc:title>
        <dc:description />
        <dc:subject>
          <rdf:Bag>
            <rdf:li>spain</rdf:li>
            <rdf:li>geography</rdf:li>
          </rdf:Bag>
        </dc:subject>
        <dc:publisher>
          <cc:Agent rdf:about="http://www.openclipart.org">
            <dc:title>sherrera</dc:title>
          </cc:Agent>
        </dc:publisher>
        <dc:creator>
          <cc:Agent>
            <dc:title>sherrera</dc:title>
          </cc:Agent>
        </dc:creator>
        <dc:rights>
          <cc:Agent>
            <dc:title>sherrera</dc:title>
          </cc:Agent>
        </dc:rights>
        <dc:date />
        <dc:format>image/svg+xml</dc:format>
        <dc:type rdf:resource="http://purl.org/dc/dcmitype/StillImage" />
        <cc:license rdf:resource="http://web.resource.org/cc/PublicDomain" />
        <dc:language>en</dc:language>
      </cc:Work>
      <cc:License rdf:about="http://web.resource.org/cc/PublicDomain">
        <cc:permits rdf:resource="http://web.resource.org/cc/Reproduction" />
        <cc:permits rdf:resource="http://web.resource.org/cc/Distribution" />
        <cc:permits rdf:resource="http://web.resource.org/cc/DerivativeWorks" />
      </cc:License>
    </rdf:RDF>
  </metadata>
  <defs id="defs3" />
  <sodipodi:namedview
    bordercolor="#666666"
    borderopacity="1.0"
    id="base"
    inkscape:current-layer="svg1"
    inkscape:cx="60.903163"
    inkscape:cy="72.761947"
    inkscape:pageopacity="0.0"
    inkscape:pageshadow="2"
    inkscape:window-height="1176"
    inkscape:window-width="1855"
    inkscape:window-x="65"
    inkscape:window-y="24"
    inkscape:zoom="7.2470588"
    pagecolor="#ffffff"
    showgrid="false"
    inkscape:window-maximized="1"
    fit-margin-top="0"
    fit-margin-left="0"
    fit-margin-right="0"
    fit-margin-bottom="0"
  />
  <g
    id="layer1"
    inkscape:groupmode="layer"
    inkscape:label="Layer 1"
    transform="translate(-14.567953,-599.45664)"
  />
  <g
    id="layer1-9"
    inkscape:label="Layer 1"
    transform="translate(1400.7975,748.89372)"
  />
  <g id="g4026" transform="matrix(0.16310137,0,0,0.16310137,-8.4415622,3.4886747)">
    <path
      inkscape:connector-curvature="0"
      style="fill:none;fill-opacity:1;stroke:#000000;stroke-width:1.25344180999999999;stroke-miterlimit:4;stroke-opacity:1;stroke-dashoffset:0"
      id="Marco"
      d="m 538.68028,620.44822 0,-61.486 138.27096,0 138.27096,0 0,61.486 0,61.48599 -138.27096,0 -138.27096,0 0,-61.48599 z"
    />
    <path
      inkscape:connector-curvature="0"
      style="fill:#ff00ff;fill-opacity:1;stroke:#000000;stroke-width:1.36052799;stroke-miterlimit:4;stroke-opacity:1;stroke-dashoffset:0"
      id="Santa Cruz de Tenerife"
      d="m 547.18019,673.96607 c -3.50942,-2.36312 -6.3919,-5.0449 -6.40551,-5.95952 -0.0366,-2.45699 13.12748,-8.73847 16.24171,-7.75005 4.29161,1.3621 5.7063,5.46582 3.84882,11.16468 -2.71137,8.31872 -4.59127,8.66832 -13.68502,2.54489 z m 80.28656,-19.21411 c -3.37584,-1.47801 -5.34677,-4.07381 -9.10256,-11.98837 -2.63657,-5.55604 -4.79376,-10.40698 -4.79376,-10.77989 0,-1.69089 8.45288,-4.7937 13.08118,-4.80173 5.2149,-0.009 10.51845,-2.70586 15.19681,-7.72751 3.19073,-3.42484 12.26142,-5.17224 16.12248,-3.10586 4.1676,2.23044 3.5656,6.66939 -1.1263,8.30499 -5.17537,1.80416 -10.44166,9.62884 -12.28827,18.25801 -1.22399,5.71983 -2.38445,7.57628 -6.5328,10.4511 -2.77444,1.92268 -5.31521,3.44627 -5.6462,3.38578 -0.33098,-0.0605 -2.54075,-0.95895 -4.91058,-1.99652 z m -35.73305,-2.95047 c -3.18575,-3.70932 -3.83829,-6.83654 -2.18412,-10.46706 2.89544,-6.35482 15.92968,-2.62248 15.92968,4.56144 0,7.16369 -9.25136,11.13844 -13.74556,5.90562 z m -30.45036,-29.81594 c -2.64886,-1.63708 -8.65848,-17.84144 -7.83442,-21.12476 0.50458,-2.01041 2.12882,-3.26892 4.9461,-3.83237 6.34188,-1.26838 10.25041,0.26215 12.10532,4.7403 1.43876,3.47347 1.27349,4.78737 -1.23352,9.80719 -1.59217,3.18803 -2.89487,6.41417 -2.89487,7.16925 0,2.21657 -3.32218,4.33211 -5.08861,3.24039 z"
    />
    <path
      inkscape:connector-curvature="0"
      style="fill:#ffcc00;fill-opacity:1;stroke:#000000;stroke-width:1.36052799;stroke-miterlimit:4;stroke-opacity:1;stroke-dashoffset:0"
      id="Las Palmas"
      d="m 681.78659,670.36317 c -4.72641,-2.20206 -10.22946,-9.62186 -10.22946,-13.79242 0,-2.31033 12.86679,-17.22019 14.8338,-17.18922 1.11255,0.0175 3.16859,0.8993 4.569,1.95951 1.84554,1.3972 3.24481,1.55378 5.08486,0.56902 3.02546,-1.61918 5.17995,-0.57561 5.17995,2.50902 0,1.22941 0.98847,4.82353 2.1966,7.98697 3.09041,8.09213 0.92174,12.94985 -7.74103,17.33962 -7.55219,3.82697 -7.05267,3.80477 -13.89372,0.6175 z m 65.62523,-17.84762 c -1.6688,-0.80483 -3.03243,-1.82573 -3.03029,-2.26865 0.002,-0.44294 2.88464,-2.32243 6.40551,-4.17665 5.65049,-2.97576 7.07805,-4.71413 12.1668,-14.81577 3.17086,-6.29445 6.35659,-13.5765 7.07941,-16.18232 1.921,-6.92533 3.03288,-8.1199 8.36296,-8.98484 4.45768,-0.72339 4.8625,-0.49945 5.57105,3.08196 2.51315,12.70294 2.454,16.31151 -0.35776,21.82301 -1.55188,3.04195 -2.82161,6.44391 -2.82161,7.55989 0,2.77672 -4.86657,5.22574 -12.13675,6.10767 -4.57844,0.55539 -6.39267,1.47519 -7.3892,3.74626 -0.72643,1.65558 -3.09263,3.6278 -5.2582,4.38272 -4.63716,1.61653 -4.67601,1.61528 -8.59192,-0.27328 z m 34.61258,-50.76626 c -3.08582,-2.49874 -3.11172,-2.70632 -1.13292,-9.07821 2.29697,-7.39638 6.53253,-10.58857 15.5063,-11.68651 5.10581,-0.62469 5.60291,-0.38907 7.00262,3.31918 2.68347,7.10932 -1.29106,11.79777 -10.04775,11.85256 -1.70172,0.0107 -3.28811,1.10476 -3.76069,2.59368 -1.51581,4.77592 -4.10583,5.80244 -7.56756,2.9993 z m 19.26112,-34.16336 c -0.89004,-0.89003 -1.61824,-2.1037 -1.61824,-2.69705 0,-1.60698 3.7471,-1.30424 4.79247,0.38719 1.38852,2.24669 -1.28901,4.19509 -3.17423,2.30986 z"
    />
  </g>
  <path
    d="m 108.15862,70.289091 c -0.30338,-0.365551 -0.089,-0.973226 0.40103,-1.13656 0.40695,-0.135647 0.79158,0.796502 0.48239,1.169054 -0.33628,0.405187 -0.52597,0.398208 -0.88342,-0.0325 z M 105.4833,68.30336 c -0.24056,-0.527998 -0.19592,-0.634846 0.55136,-1.319681 0.84882,-0.777893 1.83992,-0.988032 2.05211,-0.435099 0.18656,0.48619 -0.51457,1.628101 -1.22534,1.995649 -0.88401,0.457144 -1.07532,0.423707 -1.37813,-0.240869 z m 11.10493,-3.598933 c -0.39241,-0.09315 -0.8644,-0.294638 -1.04886,-0.447735 -0.2746,-0.227896 -0.41077,-0.210149 -0.75118,0.09791 -0.38444,0.347919 -0.46699,0.349779 -1.0956,0.02471 -1.12366,-0.581066 -0.93366,-1.290638 0.80854,-3.019622 1.09748,-1.08914 1.68893,-1.507306 2.28437,-1.615089 0.69037,-0.124966 0.82406,-0.08065 0.94955,0.314763 0.11753,0.370306 0.22629,0.417271 0.55673,0.240426 0.22586,-0.12088 0.65693,-0.219781 0.95793,-0.219781 0.42836,0 0.60139,0.164011 0.79638,0.754833 0.21375,0.647616 0.18156,0.889733 -0.22659,1.704587 -0.58198,1.1619 -1.71341,2.387371 -2.17603,2.356894 -0.18797,-0.01238 -0.66282,-0.09873 -1.05524,-0.191891 z m 7.43062,-6.263468 c -0.38514,-0.464063 -0.0764,-1.173986 0.68082,-1.56557 0.59733,-0.308884 0.75915,-0.307018 1.74399,0.02009 1.52664,0.507067 1.4894,1.056393 -0.10301,1.519314 -1.475,0.428795 -1.9829,0.434518 -2.3218,0.02616 z"
    id="Islas Baleares"
    style="fill:#ff0000;fill-opacity:1;stroke:#000000;stroke-width:0.22190399;stroke-miterlimit:4;stroke-opacity:1;stroke-dashoffset:0"
    inkscape:connector-curvature="0"
  />
  <path
    d="m 35.436987,108.73745 c 0.194461,-0.21488 0.482416,-0.78399 0.639902,-1.2647 0.206752,-0.63108 0.408335,-0.87401 0.725269,-0.87401 0.612825,0 1.061024,-0.68364 0.917772,-1.39988 -0.06564,-0.3282 -0.47225,-0.97092 -0.90359,-1.42826 -1.130814,-1.19902 -1.230864,-1.82268 -0.397071,-2.47522 0.566165,-0.44309 0.691935,-0.72577 0.822174,-1.847924 0.177366,-1.52819 0.599109,-1.93565 1.631122,-1.57589 0.54207,0.188969 0.651308,0.1438 0.974169,-0.40276 0.49429,-0.83676 0.483991,-0.848651 -0.506462,-0.584281 -0.747707,0.19957 -0.934597,0.17387 -1.328593,-0.182689 -0.423828,-0.383571 -0.50355,-0.389061 -1.054432,-0.0728 -0.880482,0.50558 -1.758226,0.66277 -2.245265,0.40212 -0.342614,-0.183359 -0.73492,-0.0783 -1.920023,0.51416 -0.819184,0.409541 -1.868791,0.86764 -2.332462,1.01802 -0.826228,0.26795 -0.857511,0.25759 -1.569291,-0.5195 -0.827402,-0.9033 -0.924759,-0.92503 -1.951564,-0.435379 -0.803526,0.38317 -1.561291,1.63336 -1.36378,2.25001 0.06373,0.198974 0.561907,0.643004 1.107057,0.986724 0.963873,0.60774 1.871278,1.54665 1.871278,1.93625 0,0.10584 -0.197952,0.36193 -0.439892,0.56908 -0.614819,0.52643 -0.560157,0.77302 0.423191,1.9092 0.474698,0.54847 0.926856,1.19814 1.004795,1.4437 0.126094,0.39729 0.178145,0.41006 0.472306,0.1159 0.442005,-0.44201 0.442737,-0.44184 1.904802,0.43978 0.70164,0.42309 1.352476,0.76925 1.446302,0.76925 0.09383,0 0.403048,0.24744 0.687166,0.54986 0.612127,0.65159 0.908662,0.68567 1.38512,0.15919 z"
    id="Cadiz"
    style="fill:#ff00ff;fill-opacity:1;stroke:#000000;stroke-width:0.22190399;stroke-miterlimit:4;stroke-opacity:1;stroke-dashoffset:0"
    inkscape:connector-curvature="0"
  />
  <path
    d="m 39.809446,104.12434 c 1.198986,-1.14355 1.414384,-1.26277 2.248895,-1.24464 0.507595,0.0111 1.206105,0.0911 1.552236,0.17799 0.564647,0.14172 0.755711,0.0255 1.858782,-1.13042 0.676194,-0.70861 1.404465,-1.42093 1.618372,-1.58293 0.765083,-0.579445 3.565689,-0.984585 6.374435,-0.922155 0.937523,0.0208 1.704587,-0.006 1.704587,-0.0589 0,-0.73293 -2.824819,-2.35905 -4.626934,-2.66351 -0.998147,-0.16864 -1.457128,-0.74545 -1.109714,-1.3946 0.145661,-0.27217 0.141494,-0.4821 -0.01264,-0.63622 -0.160075,-0.160079 -0.156943,-0.36659 0.01029,-0.679084 0.332789,-0.621819 0.323843,-0.643424 -0.427426,-1.031922 -0.625955,-0.323693 -0.703539,-0.31716 -1.23937,0.104327 -0.671972,0.528572 -1.069086,0.558055 -1.872254,0.139032 -0.537757,-0.280559 -0.652486,-0.261895 -1.292447,0.210251 -0.475951,0.351142 -0.888303,0.482298 -1.279402,0.406909 -0.496348,-0.09565 -0.66497,0.02963 -1.205088,0.895477 -0.34539,0.55369 -0.815526,1.10708 -1.044748,1.22976 -0.229215,0.12267 -0.416758,0.43058 -0.416758,0.68423 0,0.4049 -0.786342,1.94275 -0.99338,1.94275 -0.04275,0 -0.33074,-0.0962 -0.639992,-0.21378 -0.925701,-0.35195 -1.195046,-0.0861 -1.356229,1.33855 -0.121936,1.077775 -0.260173,1.399025 -0.796024,1.849915 l -0.64846,0.54564 0.475509,0.76939 c 0.261528,0.42317 0.649346,0.89304 0.861813,1.04416 0.212464,0.15113 0.453673,0.54695 0.536016,0.87962 0.08234,0.33268 0.204665,0.60486 0.271824,0.60486 0.06717,0 0.718806,-0.56911 1.448101,-1.2647 z"
    id="Malaga"
    style="fill:#009600;fill-opacity:1;stroke:#000000;stroke-width:0.22190399;stroke-miterlimit:4;stroke-opacity:1;stroke-dashoffset:0"
    inkscape:connector-curvature="0"
  />
  <path
    d="m 60.381436,99.457976 c 0.751088,-0.199561 1.542897,-0.517611 1.759573,-0.706771 0.216681,-0.18917 0.626073,-0.46415 0.909767,-0.61109 0.436456,-0.22605 0.494645,-0.37994 0.378253,-1.00036 -0.106423,-0.56727 0.02384,-1.06052 0.575547,-2.17932 0.612123,-1.241311 0.812917,-1.464811 1.418035,-1.578328 0.696143,-0.130595 1.460047,-1.110027 2.566468,-3.290573 0.18727,-0.36907 0.70374,-0.86395 1.14771,-1.099733 1.068899,-0.567666 1.646184,-1.718673 1.646184,-3.282223 0,-0.671798 0.114092,-1.404147 0.253542,-1.627439 0.364418,-0.583526 -0.343708,-1.461006 -1.488419,-1.84439 -0.8838,-0.296001 -0.923552,-0.287308 -1.700486,0.371777 -0.437543,0.371171 -1.103782,0.92506 -1.480537,1.230858 -0.438695,0.356076 -0.894921,1.095863 -1.268794,2.057396 -0.530645,1.36472 -0.661963,1.52805 -1.442515,1.794176 -0.472301,0.161027 -1.220936,0.287778 -1.663635,0.281668 -0.4427,-0.0062 -1.219074,0.200184 -1.725281,0.45843 -0.548506,0.279826 -1.122827,0.418727 -1.421456,0.343774 -0.358657,-0.09002 -0.650985,0.0338 -1.028468,0.435612 -0.29006,0.308758 -0.683339,0.565718 -0.87395,0.571028 -0.706109,0.01967 -2.048551,0.627097 -2.355999,1.066039 -0.273784,0.390879 -0.490422,0.439628 -1.577954,0.355069 -1.065689,-0.08286 -1.351855,-0.02251 -1.850782,0.390332 -0.691015,0.571783 -1.545882,2.654087 -1.222406,2.977557 0.137232,0.13723 0.13294,0.3623 -0.01207,0.63327 -0.312021,0.58302 -0.07407,0.86116 0.978759,1.14404 1.794763,0.48225 4.272763,1.77579 4.488418,2.34301 0.174224,0.45824 0.348429,0.53874 1.165943,0.53874 0.687336,0 1.076516,0.12751 1.366234,0.44765 0.252604,0.27913 0.534545,0.390235 0.748915,0.295151 0.189089,-0.0839 0.958325,-0.315781 1.709412,-0.51535 z"
    id="Granada"
    style="fill:#ff0000;fill-opacity:1;stroke:#000000;stroke-width:0.22190399;stroke-miterlimit:4;stroke-opacity:1;stroke-dashoffset:0"
    inkscape:connector-curvature="0"
  />
  <path
    d="m 67.372168,99.455616 c 0.169207,-0.53314 1.626746,-1.76517 2.086248,-1.76349 0.797131,0.003 2.051001,0.510589 2.726961,1.10409 0.831711,0.730239 0.930611,0.692539 2.062151,-0.78626 0.424889,-0.55528 0.843083,-1.52139 1.110624,-2.56575 0.457465,-1.785748 1.694986,-4.061592 2.592388,-4.767486 0.546896,-0.43019 0.417509,-0.79557 -0.198073,-0.55935 -0.180644,0.06932 -0.720614,-0.07404 -1.199932,-0.318563 -0.655764,-0.334547 -0.90578,-0.616055 -1.010017,-1.137242 -0.07619,-0.380955 -0.534914,-1.190481 -1.019385,-1.798949 -0.960213,-1.205978 -0.969084,-1.228579 -0.668664,-1.703658 0.326261,-0.515945 -0.367688,-1.104759 -1.302022,-1.104759 -1.079325,0 -1.32958,0.317665 -1.32958,1.687707 0,1.631196 -0.711263,3.010561 -1.916626,3.716951 -0.518476,0.303846 -0.942681,0.666047 -0.942681,0.804889 0,0.13884 -0.406713,0.925574 -0.903809,1.748292 -0.756437,1.251948 -1.035518,1.531317 -1.711575,1.713361 -0.683455,0.184042 -0.899984,0.405543 -1.407006,1.439337 -0.470148,0.95862 -0.569838,1.40569 -0.462764,2.07529 0.128088,0.80102 0.09108,0.87696 -0.602082,1.2354 -0.850514,0.43982 -0.815947,0.46421 1.458113,1.02888 1.921929,0.47723 2.474042,0.46704 2.637731,-0.0487 z"
    id="Almeria"
    style="fill:#ffcc00;fill-opacity:1;stroke:#000000;stroke-width:0.22190399;stroke-miterlimit:4;stroke-opacity:1;stroke-dashoffset:0"
    inkscape:connector-curvature="0"
  />
  <path
    d="m 32.463044,97.241816 c 1.537203,-0.722751 1.90239,-0.818511 2.34774,-0.61559 0.425227,0.19374 0.714482,0.14972 1.493301,-0.227311 1.143226,-0.55343 1.557178,-0.582999 1.92677,-0.13767 0.150595,0.181461 0.442674,0.329921 0.649062,0.329921 0.652489,0 2.298787,-1.259291 2.870085,-2.19538 0.521849,-0.855075 1.269217,-1.296905 1.721222,-1.017554 0.113626,0.07022 0.490413,-0.08733 0.837301,-0.35014 0.346888,-0.262803 0.671945,-0.508894 0.722349,-0.546869 0.273492,-0.206053 -0.228644,-0.290006 -0.587115,-0.09816 -0.753984,0.403521 -1.349036,0.06007 -1.612796,-0.930874 -0.133153,-0.500259 -0.390922,-1.076393 -0.572819,-1.280298 -0.27438,-0.307575 -0.289632,-0.562353 -0.08951,-1.495467 0.132665,-0.618603 0.241212,-1.166806 0.241212,-1.218231 0,-0.05143 -0.277732,-0.237119 -0.617183,-0.412657 -0.56698,-0.293195 -0.639296,-0.283745 -0.889068,0.116203 -0.188973,0.302594 -0.407689,0.392255 -0.717212,0.294018 -0.293243,-0.09307 -0.746204,0.05778 -1.326362,0.441701 -0.699602,0.462975 -0.945689,0.529385 -1.194993,0.322479 -0.362003,-0.300435 -0.416735,-0.997006 -0.09401,-1.196459 0.449583,-0.277856 0.194984,-1.301597 -0.631503,-2.539273 -0.468301,-0.701282 -1.032218,-1.777755 -1.253159,-2.392161 -0.347019,-0.965026 -0.48195,-1.117101 -0.991163,-1.117101 -0.324204,0 -0.708286,-0.143179 -0.853517,-0.318171 -0.229852,-0.276954 -0.357498,-0.273609 -0.985412,0.02582 -0.560249,0.267163 -0.789742,0.571554 -1.027567,1.362916 -0.243339,0.809717 -0.396536,1.007478 -0.746107,0.963172 -0.241943,-0.03066 -0.865583,9.78e-4 -1.385871,0.07014 l -0.94598,0.125899 0.141377,0.942751 c 0.127077,0.847415 0.08073,0.990461 -0.458352,1.414499 -0.374064,0.294239 -0.913973,0.471744 -1.434873,0.471744 -0.681714,0 -0.923768,0.124454 -1.317506,0.677406 l -0.482355,0.677407 0.798475,0.817711 c 0.705454,0.722449 0.797233,0.944603 0.787843,1.906966 -0.0058,0.599091 -0.01168,1.336697 -0.01297,1.639125 -0.0013,0.302426 -0.05269,1.663347 -0.114241,3.024266 -0.06155,1.36091 -0.0609,2.47439 0.0014,2.47439 0.06234,0 0.351723,-0.1086 0.643076,-0.24135 0.632247,-0.28808 1.7496,0.1898 2.137203,0.91405 0.290964,0.54367 0.532471,0.4892 3.023186,-0.68188 z"
    id="Sevilla"
    style="fill:#ffcc00;fill-opacity:1;stroke:#000000;stroke-width:0.22190399;stroke-miterlimit:4;stroke-opacity:1;stroke-dashoffset:0"
    inkscape:connector-curvature="0"
  />
  <path
    d="m 26.218485,94.831586 c 0.06142,-1.391154 0.112714,-2.776825 0.114,-3.079251 0.0013,-0.302428 0.0045,-1.002585 0.0072,-1.555909 0.0042,-0.863044 -0.103904,-1.11147 -0.760363,-1.747736 -0.913815,-0.885701 -0.939745,-1.154883 -0.204169,-2.119277 0.482696,-0.632844 0.692978,-0.735586 1.505539,-0.735586 1.255432,0 1.758516,-0.527514 1.552153,-1.627522 -0.122335,-0.652098 -0.243236,-0.791892 -0.684872,-0.791892 -0.29497,0 -0.829658,-0.151696 -1.188195,-0.337103 -0.466374,-0.241172 -0.958591,-0.296417 -1.729652,-0.19413 -1.041771,0.138193 -1.089612,0.120068 -1.432337,-0.542687 -0.195012,-0.377108 -0.50261,-0.685654 -0.683554,-0.685654 -0.180944,0 -0.437107,-0.237301 -0.569255,-0.527333 -0.209934,-0.460754 -0.324133,-0.503281 -0.90451,-0.336833 -0.365332,0.104777 -0.80507,0.391566 -0.977196,0.637308 -0.172124,0.245743 -0.508773,0.446805 -0.748113,0.446805 -0.753977,0 -1.506722,0.673163 -2.541564,2.272865 -0.551284,0.852196 -1.06645,1.70393 -1.144812,1.892743 -0.07836,0.188816 -0.422764,0.756311 -0.765333,1.261101 l -0.62285,0.917803 0.465254,1.695866 c 0.255889,0.932726 0.415934,1.745187 0.355655,1.805463 -0.216542,0.216544 0.338599,0.931549 0.72327,0.931549 0.216137,0 0.860844,0.159419 1.432684,0.354264 0.955939,0.325721 1.071248,0.325721 1.431168,0 0.620513,-0.561556 1.291312,-0.439291 1.676499,0.305577 0.18767,0.36291 0.437366,0.65984 0.554882,0.65984 0.117515,0 0.585109,0.332933 1.039097,0.739839 0.45399,0.40692 1.142623,0.90202 1.530294,1.10023 0.387674,0.19822 1.024275,0.757859 1.414678,1.24366 0.390398,0.4858 0.784722,0.80725 0.876272,0.71433 0.09155,-0.0929 0.216705,-1.30717 0.278121,-2.69833 z"
    id="Huelva"
    style="fill:#0000ff;fill-opacity:0.99607843;stroke:#000000;stroke-width:0.22190399;stroke-miterlimit:4;stroke-opacity:1;stroke-dashoffset:0"
    inkscape:connector-curvature="0"
  />
  <path
    d="m 47.596789,92.620874 c 0.692909,-0.428241 0.765486,-0.43277 1.429815,-0.08923 0.717673,0.371122 1.069023,0.210381 1.078008,-0.493183 0.0065,-0.507688 1.503557,-1.444678 2.119966,-1.326843 0.532318,0.101754 0.506376,0.04736 -0.328602,-0.689093 -1.022049,-0.901448 -1.42865,-1.757727 -1.90107,-4.003536 -0.465841,-2.214533 -0.415816,-3.069833 0.249138,-4.259563 l 0.575957,-1.0305 -0.493811,-0.525639 c -0.309038,-0.328952 -0.440381,-0.664869 -0.351021,-0.897739 0.207897,-0.541772 -0.397841,-1.329031 -1.136222,-1.476703 -0.351439,-0.07028 -1.147039,-0.529397 -1.767999,-1.020236 -0.620958,-0.490838 -1.186669,-0.892434 -1.25713,-0.892434 -0.07046,0 -0.492254,-0.247442 -0.937315,-0.549868 -0.445061,-0.302427 -0.981634,-0.549869 -1.192388,-0.549869 -0.210756,0 -0.529137,-0.282229 -0.707515,-0.627177 -0.428047,-0.827753 -1.407747,-1.479121 -1.733994,-1.152873 -0.132234,0.132233 -0.384357,0.240425 -0.560273,0.240425 -0.175918,0 -0.861818,0.598894 -1.524225,1.330877 -1.054177,1.164901 -1.279597,1.314356 -1.807529,1.198403 -0.535999,-0.117727 -0.655958,-0.03116 -1.077417,0.777417 -0.431402,0.827667 -0.452208,1.031507 -0.230224,2.255679 0.21181,1.168062 0.197201,1.380032 -0.110618,1.605117 -0.324104,0.236989 -0.317521,0.353538 0.07643,1.352997 0.237097,0.601516 0.834063,1.717158 1.326593,2.479198 0.915201,1.415994 1.146329,2.518162 0.635242,3.029248 -0.489262,0.489261 -0.0033,0.518747 0.905787,0.05497 0.499451,-0.254802 1.047895,-0.434913 1.218767,-0.40025 0.170873,0.03466 0.454126,-0.131441 0.629452,-0.36912 0.316872,-0.429559 0.323663,-0.429559 1.136142,0 1.015684,0.536993 1.063368,0.658494 0.770808,1.963956 -0.191088,0.852677 -0.176393,1.124846 0.07623,1.411848 0.172125,0.195545 0.385894,0.701955 0.475041,1.125353 0.201462,0.956835 0.426166,1.107021 1.21232,0.810283 0.556851,-0.210186 0.685964,-0.162825 1.274945,0.467686 0.770547,0.824871 0.957834,0.849215 1.926714,0.25041 z"
    id="Cordoba"
    style="fill:#9600ff;fill-opacity:1;stroke:#000000;stroke-width:0.22190399;stroke-miterlimit:4;stroke-opacity:1;stroke-dashoffset:0"
    inkscape:connector-curvature="0"
  />
  <path
    d="m 54.221051,90.572428 c 0.210406,-0.359017 1.247324,-0.898128 2.140632,-1.112949 0.354785,-0.08531 0.940159,-0.403425 1.300826,-0.706911 0.389749,-0.327951 0.824292,-0.507716 1.07121,-0.443147 0.228493,0.05975 0.865782,-0.09057 1.416195,-0.334039 0.550417,-0.243475 1.36171,-0.467873 1.802877,-0.498667 1.34319,-0.09375 2.263715,-0.387282 2.381648,-0.759441 0.335618,-1.059131 1.044036,-2.605544 1.35898,-2.966537 0.198383,-0.22739 0.731097,-0.648799 1.183808,-0.936464 0.92888,-0.590238 1.901215,-1.996419 2.203235,-3.186285 0.227633,-0.896789 -0.02425,-1.544391 -1.0858,-2.791744 -0.731361,-0.859365 -1.680031,-1.048914 -2.490411,-0.497593 -1.044345,0.710491 -2.434306,1.124654 -2.913584,0.868151 -0.241647,-0.129324 -0.740316,-0.174946 -1.108154,-0.101375 -0.459532,0.0919 -0.792624,0.0217 -1.064539,-0.224384 -0.368442,-0.333434 -0.443007,-0.318376 -1.080784,0.218279 -0.704501,0.5928 -1.401427,0.744191 -1.641049,0.356476 -0.231775,-0.375017 -0.962383,-0.242183 -1.209707,0.219946 -0.286285,0.534928 -0.817307,0.564618 -1.357348,0.07588 -0.370037,-0.334877 -0.433555,-0.335655 -0.793697,-0.0097 -0.333174,0.301515 -0.618526,0.322122 -1.916045,0.138374 -0.838513,-0.11875 -1.643064,-0.170439 -1.787889,-0.114862 -0.386092,0.148158 -0.240629,1.791656 0.20185,2.280591 0.491349,0.542933 0.475785,0.715005 -0.175462,1.939825 -0.625787,1.17695 -0.672816,2.002132 -0.232492,4.079563 0.424391,2.002267 1.002511,3.037485 2.230617,3.994295 1.154072,0.899128 1.308907,0.949858 1.565083,0.512744 z"
    id="Jaen"
    style="fill:#ff00ff;fill-opacity:1;stroke:#000000;stroke-width:0.22190399;stroke-miterlimit:4;stroke-opacity:1;stroke-dashoffset:0"
    inkscape:connector-curvature="0"
  />
  <path
    d="m 80.240683,89.538463 c 0,-0.61435 1.829853,-1.572992 2.695243,-1.412014 0.436012,0.08111 1.032262,-6.52e-4 1.531668,-0.210147 0.449755,-0.188626 1.111172,-0.342955 1.469817,-0.342955 0.696797,0 1.029969,-0.509477 0.772295,-1.180966 -0.08471,-0.220732 0.08585,-0.658412 0.434907,-1.116045 0.633614,-0.830713 0.725119,-1.222138 0.285703,-1.222138 -0.158707,0 -0.528904,-0.321672 -0.822661,-0.714826 -1.705637,-2.28277 -1.85618,-2.825596 -1.084268,-3.909646 0.244131,-0.34285 0.354072,-0.678866 0.244313,-0.746702 -0.109761,-0.06783 -0.267726,-0.396455 -0.351039,-0.730268 -0.08331,-0.333813 -0.312055,-0.785098 -0.508322,-1.002858 -0.294789,-0.327077 -0.313071,-0.511892 -0.105137,-1.06278 0.261534,-0.692876 0.08239,-1.552539 -0.38353,-1.840496 -0.135895,-0.08399 -0.33678,-0.388626 -0.446409,-0.676975 -0.185836,-0.488789 -0.291971,-0.518586 -1.568107,-0.440264 -1.407606,0.08639 -1.944526,0.427446 -1.944526,1.235161 0,0.200075 -0.195099,0.540332 -0.433554,0.75613 -0.431444,0.39045 -0.431444,0.395048 0,0.943538 0.677226,0.860954 0.553562,1.448593 -0.451396,2.145028 l -0.884947,0.613272 -0.503896,-0.473384 c -0.661674,-0.62161 -1.271078,-0.598505 -1.901065,0.07209 -0.374463,0.3986 -0.65338,0.510102 -1.035853,0.414106 -0.417382,-0.104756 -0.666648,0.03718 -1.230484,0.700677 -0.388891,0.457622 -1.218051,1.384757 -1.842579,2.060299 -1.125908,1.217877 -1.132117,1.232432 -0.734559,1.723131 0.292219,0.360677 0.634483,0.494879 1.262126,0.494879 1.108787,0 1.987658,0.810979 1.621112,1.495884 -0.195125,0.364589 -0.09276,0.615897 0.613194,1.50539 0.466078,0.587257 0.917656,1.391134 1.003506,1.786392 0.180506,0.831062 1.144514,1.453173 1.941745,1.253079 0.3441,-0.08636 0.633448,0.0133 0.9028,0.310918 0.329114,0.363665 0.486153,0.397121 0.925151,0.197102 0.290814,-0.132505 0.528752,-0.413579 0.528752,-0.624607 z"
    id="Murcia"
    style="fill:#0000ff;fill-opacity:0.99607843;stroke:#000000;stroke-width:0.22190399;stroke-miterlimit:4;stroke-opacity:1;stroke-dashoffset:0"
    inkscape:connector-curvature="0"
  />
  <path
    d="m 88.302647,83.169835 c 0.07308,-0.365428 0.219076,-0.717685 0.324422,-0.782793 0.105344,-0.06511 0.191536,-0.503783 0.191536,-0.974834 0,-1.106772 0.402774,-1.97689 0.915093,-1.97689 0.287033,0 0.404588,-0.162943 0.404588,-0.560789 0,-0.717417 0.539424,-1.765354 0.999616,-1.941946 0.195824,-0.07514 0.588719,-0.136625 0.873099,-0.136625 0.307225,0 0.56872,-0.162782 0.644367,-0.40112 0.21427,-0.675108 0.990672,-1.358454 1.543443,-1.358454 0.40538,0 0.582588,-0.176791 0.781577,-0.77973 0.195347,-0.591911 0.457163,-0.859683 1.086922,-1.111663 0.738778,-0.295602 1.329219,-1.024506 1.329219,-1.640936 0,-0.116832 -0.703295,-0.554699 -1.56288,-0.973032 -1.496185,-0.728152 -1.590889,-0.746126 -2.219231,-0.421199 -0.36099,0.186677 -1.414519,0.557289 -2.341173,0.823584 -1.3658,0.392493 -1.671879,0.559168 -1.61645,0.880239 0.143273,0.829901 -1.12716,1.452546 -1.41789,0.694916 -0.08041,-0.209558 -0.297677,-0.285269 -0.600504,-0.209266 -0.260979,0.06551 -0.831945,-0.03025 -1.268813,-0.21279 -0.436871,-0.182535 -0.855101,-0.27109 -0.929409,-0.196785 -0.0743,0.0743 -0.07261,0.525858 0.0038,1.003457 0.0894,0.559056 0.04828,0.924334 -0.11542,1.025509 -0.187953,0.116161 -0.192024,0.335728 -0.01561,0.841781 0.162802,0.467016 0.167986,0.816689 0.01631,1.100099 -0.171007,0.319534 -0.07155,0.732089 0.430682,1.786548 l 0.653037,1.371074 -0.446764,0.627423 c -0.245721,0.345084 -0.446764,0.787322 -0.446764,0.982748 0,0.701173 1.886344,3.205891 2.414411,3.205891 0.129769,0 0.295744,-0.298985 0.368831,-0.664418 z"
    id="Alicante"
    style="fill:#9600ff;fill-opacity:1;stroke:#000000;stroke-width:0.22190399;stroke-miterlimit:4;stroke-opacity:1;stroke-dashoffset:0"
    inkscape:connector-curvature="0"
  />
  <path
    d="m 31.5589,81.600104 c 0.240078,-0.812432 0.420129,-1.012541 1.205505,-1.33982 0.822236,-0.342635 0.963149,-0.348654 1.287646,-0.05499 0.443494,0.401356 0.865832,0.40974 1.369541,0.02719 0.335328,-0.25467 0.352333,-0.445463 0.144748,-1.623939 -0.22366,-1.269732 -0.205574,-1.385946 0.367987,-2.364657 0.535035,-0.912961 0.671536,-1.015632 1.207728,-0.908395 0.522202,0.104441 0.769337,-0.05744 1.814897,-1.188839 0.665705,-0.720359 1.358272,-1.309743 1.539034,-1.309743 0.387711,0 1.536084,-1.256272 2.041117,-2.2329 0.218359,-0.422258 0.305691,-0.936049 0.226452,-1.332254 -0.19531,-0.976542 0.393459,-1.899587 1.533253,-2.403773 0.85513,-0.378265 0.947671,-0.484547 0.747523,-0.858525 -0.168698,-0.31522 -0.140415,-0.59701 0.108169,-1.077724 0.46713,-0.903328 0.434419,-0.970723 -0.37823,-0.779288 -0.393156,0.09261 -1.459002,0.147866 -2.368548,0.122778 -1.57248,-0.04337 -1.702144,-0.0089 -2.63936,0.701792 -0.542103,0.411075 -1.480521,1.029673 -2.085375,1.374664 -0.604854,0.344993 -1.519489,0.922191 -2.032521,1.282663 -0.892574,0.627148 -0.970766,0.642869 -1.813659,0.36469 -0.779449,-0.257241 -0.928641,-0.247477 -1.295802,0.0848 -0.276606,0.250327 -0.598965,0.329319 -0.966972,0.236954 -0.331291,-0.08315 -0.826169,0.0032 -1.237559,0.215941 -0.816238,0.422092 -1.191968,0.276237 -2.601163,-1.009759 -1.000981,-0.913468 -1.177113,-0.972399 -1.84231,-0.616398 -0.578207,0.309446 -2.164362,0.05485 -2.841787,-0.456124 -0.482654,-0.364065 -0.514998,-0.478331 -0.29808,-1.053013 0.260497,-0.690135 0.08923,-1.248644 -0.535802,-1.747299 -0.533817,-0.425879 -1.292475,-0.337996 -1.424002,0.164961 -0.07295,0.278956 -0.30362,0.442453 -0.630505,0.446888 -0.826264,0.01121 -1.285284,0.50364 -1.285284,1.378828 0,0.67468 0.157504,0.920268 1.099732,1.714769 0.604854,0.510022 1.099735,1.110254 1.099735,1.333851 0,0.695853 -1.007143,2.535289 -2.068089,3.777138 -0.800202,0.936647 -1.064145,1.451929 -1.245083,2.430707 l -0.22961,1.242086 0.773105,0.729132 c 0.540213,0.509486 0.816148,0.998298 0.915982,1.622637 0.195782,1.224346 1.068896,1.888179 2.096003,1.59361 0.691659,-0.198363 1.062956,-0.02701 1.074004,0.495645 0.0018,0.08763 0.293283,0.309232 0.64762,0.492468 0.354338,0.183235 0.709972,0.540216 0.790294,0.793286 0.130727,0.411884 0.257039,0.444861 1.204712,0.314522 0.773185,-0.106341 1.227332,-0.052 1.684108,0.201484 0.479873,0.266305 1.083145,0.326368 2.592025,0.258059 l 1.966588,-0.08902 0.282233,-0.955081 z"
    id="Badajoz"
    style="fill:#450000;fill-opacity:0.99607843;stroke:#000000;stroke-width:0.22190399;stroke-miterlimit:4;stroke-opacity:1;stroke-dashoffset:0"
    inkscape:connector-curvature="0"
  />
  <path
    d="m 71.803839,81.139904 c 0.490883,-0.514126 1.15862,-1.295492 1.483859,-1.736373 0.571847,-0.775167 1.768776,-1.486643 2.041762,-1.213661 0.07339,0.0734 0.424229,-0.111233 0.779635,-0.410286 0.774825,-0.651973 1.628846,-0.697614 2.247865,-0.120135 0.44949,0.41933 0.460615,0.417944 1.103035,-0.137367 l 0.648968,-0.56097 -0.502645,-0.873363 -0.502644,-0.873363 0.442227,-0.473908 c 0.243225,-0.260651 0.508762,-0.742031 0.590082,-1.06974 0.217068,-0.874731 0.647976,-1.125027 2.043606,-1.187053 1.601594,-0.07118 1.898614,0.02154 2.201989,0.687378 0.461699,1.013321 0.677964,0.585803 0.621521,-1.228642 -0.06203,-1.99395 -0.204463,-2.193733 -1.445376,-2.027288 -1.220409,0.16369 -1.42593,-0.225828 -1.275246,-2.416932 0.153112,-2.226428 -0.239526,-3.076962 -1.609981,-3.487563 -0.964328,-0.288917 -1.90852,-0.02558 -4.192001,1.169168 l -1.2308,0.643973 -0.824651,-0.486555 c -0.516362,-0.304662 -0.878488,-0.402634 -0.968666,-0.262072 -0.332312,0.517976 -1.929283,1.085722 -2.893353,1.028624 -1.135555,-0.06725 -3.032613,-0.394299 -3.521528,-0.607103 -0.583525,-0.253984 -1.798243,2.271116 -1.857476,3.86123 -0.04452,1.195225 -1.63e-4,1.343417 0.465432,1.555564 0.283048,0.128966 0.514639,0.353714 0.514639,0.499437 0,0.145725 0.197952,0.516612 0.439892,0.824188 0.560924,0.713102 0.556603,1.34882 -0.01546,2.274439 -0.496305,0.803043 -0.39597,1.27511 0.228873,1.076793 0.556337,-0.176573 1.553335,0.725203 2.282049,2.064088 0.652578,1.199 0.65252,2.233867 -1.64e-4,3.274199 -0.297197,0.473699 -0.274466,0.518997 0.409594,0.816192 1.091431,0.47418 1.325259,0.412756 2.294989,-0.602898 z"
    id="Albacete"
    style="fill:#450000;fill-opacity:0.99607843;stroke:#000000;stroke-width:0.22190399;stroke-miterlimit:4;stroke-opacity:1;stroke-dashoffset:0"
    inkscape:connector-curvature="0"
  />
  <path
    d="m 51.840599,77.351517 c 0.680165,0.07717 1.395896,0.183929 1.590515,0.237235 0.19462,0.05331 0.478924,-0.05378 0.631786,-0.237961 0.360508,-0.434391 0.859458,-0.425192 1.356923,0.025 0.370976,0.33573 0.426067,0.324848 0.820324,-0.162038 0.394286,-0.486924 0.475261,-0.502911 1.207004,-0.238308 0.827164,0.299107 1.339579,0.164152 1.888625,-0.497408 0.347789,-0.41906 0.972077,-0.442853 1.29854,-0.04949 0.140164,0.168888 0.512572,0.252831 0.881461,0.198693 0.351316,-0.05156 0.850722,0.01968 1.109789,0.158338 0.393069,0.210363 0.705979,0.13643 1.890452,-0.446684 0.780678,-0.384329 1.365437,-0.786119 1.299463,-0.892867 -0.06597,-0.106751 0.104951,-0.644417 0.379834,-1.194819 0.407919,-0.816779 0.450401,-1.069064 0.231104,-1.372475 -0.147776,-0.204461 -0.371155,-0.630286 -0.496399,-0.94628 -0.125244,-0.315998 -0.456809,-0.678921 -0.736812,-0.806497 -0.467368,-0.212949 -0.505287,-0.355136 -0.462646,-1.734903 0.03826,-1.237916 0.17245,-1.725965 0.760985,-2.767642 0.40049,-0.708848 0.601059,-1.264692 0.456346,-1.264692 -0.142004,0 -0.650159,-0.395904 -1.129229,-0.879787 -0.937855,-0.947276 -1.091415,-1.003649 -1.759684,-0.646003 -0.327317,0.175171 -0.674973,0.142838 -1.386709,-0.128977 -0.914933,-0.349415 -0.985312,-0.345168 -1.913138,0.115435 -0.529791,0.26301 -1.224424,0.786381 -1.543621,1.163047 -0.56393,0.665454 -0.635564,0.685758 -2.529388,0.716896 -1.497398,0.02462 -2.121661,-0.05943 -2.694052,-0.362694 -0.456847,-0.242047 -0.980728,-0.347593 -1.354387,-0.272864 -1.20534,0.241071 -1.284067,-1.361772 -0.114555,-2.33238 0.189433,-0.157214 0.344423,-0.372701 0.344423,-0.478859 0,-0.359958 -0.552566,-0.195351 -0.828744,0.246877 -0.183704,0.294159 -0.512921,0.439893 -0.993729,0.439893 -0.395455,0 -0.948014,0.160401 -1.227908,0.356449 -0.478013,0.334812 -0.549209,0.326645 -1.17299,-0.134536 l -0.664089,-0.490982 -0.449939,0.449941 c -0.419458,0.419456 -1.073275,1.850454 -1.073029,2.348516 5.9e-5,0.120971 0.06657,0.436006 0.147809,0.700079 0.126397,0.410878 -0.01171,0.560909 -0.957567,1.040212 -1.190044,0.603039 -1.41997,0.995167 -1.456326,2.483685 -0.01603,0.656174 -0.222113,1.20785 -0.709544,1.899376 l -0.686962,0.974599 0.517022,0.235569 c 0.28436,0.129567 0.668523,0.52855 0.853697,0.886632 0.202831,0.392231 0.578655,0.707302 0.945353,0.792528 0.334771,0.07781 1.301507,0.629585 2.148303,1.226174 0.846795,0.596586 1.886044,1.246009 2.30944,1.44316 0.423398,0.197152 0.916001,0.430031 1.094668,0.517506 0.183281,0.08974 0.459099,0.02481 0.63289,-0.148982 0.228359,-0.228362 0.627897,-0.271741 1.544691,-0.16772 z"
    id="Ciudad Real"
    style="fill:#009600;fill-opacity:1;stroke:#000000;stroke-width:0.22190399;stroke-miterlimit:4;stroke-opacity:1;stroke-dashoffset:0"
    inkscape:connector-curvature="0"
  />
  <path
    d="m 89.148527,71.72157 c 0,-0.434574 0.192223,-0.593146 1.099733,-0.907196 0.604854,-0.209316 1.498695,-0.481195 1.986318,-0.60417 0.487618,-0.122979 1.055453,-0.349345 1.261851,-0.503033 0.349109,-0.259952 0.335009,-0.363761 -0.202259,-1.489137 -0.31764,-0.66534 -0.712839,-1.289176 -0.878214,-1.386307 -0.191872,-0.11269 -0.251803,-0.371375 -0.1656,-0.714827 0.08102,-0.322779 0.03977,-0.538228 -0.103056,-0.538228 -0.130978,0 -0.401992,-0.316847 -0.602252,-0.704113 -0.348356,-0.673642 -0.337618,-0.807526 0.248159,-3.094269 l 0.612268,-2.390158 -0.474734,-0.474736 -0.474734,-0.474734 -0.937386,0.512067 c -0.834109,0.455652 -1.038356,0.484882 -1.853861,0.265287 -0.684285,-0.184259 -0.934134,-0.370445 -0.98617,-0.734897 -0.04032,-0.282387 -0.255095,-0.521491 -0.509586,-0.567306 -0.241939,-0.04356 -0.662587,-0.284516 -0.934773,-0.535466 -0.272183,-0.250952 -0.494878,-0.340051 -0.494878,-0.197991 0,0.446642 -0.61678,0.282208 -1.367016,-0.364447 -0.397363,-0.342501 -0.895688,-0.685812 -1.107386,-0.762908 -0.446566,-0.162637 -0.500482,-0.610271 -0.119401,-0.991353 0.341266,-0.341265 -0.02884,-0.694387 -1.302485,-1.242739 -0.791363,-0.340711 -1.025214,-0.358431 -1.598175,-0.121102 -0.847132,0.350894 -0.606589,0.705455 0.83792,1.235083 1.540905,0.564974 1.655518,0.725172 1.236427,1.728198 -0.194043,0.464415 -0.301008,1.042467 -0.237698,1.284565 0.176816,0.67615 -0.437133,1.633364 -1.233895,1.923774 -0.94391,0.344044 -1.627892,1.698637 -1.348465,2.670571 0.154974,0.539046 0.408703,0.74752 1.326208,1.089667 1.65521,0.61724 1.936138,1.153755 1.940838,3.706583 l 0.0039,2.089493 0.989759,0.0023 c 1.249453,0.0029 1.455684,0.141152 1.634881,1.096362 0.117097,0.624178 0.300502,0.838481 0.949741,1.109751 0.466642,0.194973 1.062955,0.279454 1.419621,0.201116 0.450944,-0.09904 0.651522,-0.03992 0.751893,0.221656 0.19737,0.514335 0.632561,0.282271 0.632561,-0.337313 z"
    id="Valencia"
    style="fill:#009600;fill-opacity:1;stroke:#000000;stroke-width:0.22190399;stroke-miterlimit:4;stroke-opacity:1;stroke-dashoffset:0"
    inkscape:connector-curvature="0"
  />
  <path
    d="m 31.465348,67.855689 c 0.254622,0.06658 0.697017,-0.0736 1.045619,-0.331334 0.576165,-0.425977 0.637199,-0.429717 1.312578,-0.08046 0.684811,0.354131 0.735022,0.348629 1.513068,-0.165803 0.44261,-0.292648 1.349116,-0.863491 2.014456,-1.26854 0.665337,-0.405049 1.592405,-1.03157 2.060149,-1.392269 0.467744,-0.360698 1.210064,-0.7153 1.6496,-0.788 l 0.799157,-0.132187 -1.184275,-1.188731 -1.184275,-1.18873 0.48669,-0.394094 c 0.670923,-0.543283 0.510321,-1.194989 -0.273938,-1.111592 -0.693268,0.07373 -0.963053,-0.363172 -0.620036,-1.004106 0.198843,-0.371539 0.162863,-0.412428 -0.2872,-0.326392 -0.654816,0.125175 -0.758934,-0.05915 -0.923666,-1.635222 -0.103565,-0.990866 -0.05987,-1.351871 0.188622,-1.558097 0.450324,-0.373734 0.0072,-1.885048 -0.49052,-1.672838 -0.97104,0.414038 -1.297435,0.334106 -2.260445,-0.553567 -0.538087,-0.495989 -1.077644,-0.901799 -1.199015,-0.901799 -0.12137,0 -0.487296,0.209722 -0.813166,0.466053 -0.592382,0.465969 -0.592581,0.465976 -1.07441,0.02748 -0.265053,-0.241213 -0.704611,-0.553398 -0.976796,-0.69374 -0.272183,-0.140344 -0.494881,-0.369992 -0.494881,-0.510329 0,-0.361168 -1.122309,-1.488937 -1.481726,-1.488937 -0.535572,0 -1.687675,0.688763 -2.587288,1.546764 -0.698722,0.666404 -1.148379,0.887812 -2.184877,1.075818 -0.717797,0.130198 -1.321368,0.236725 -1.341262,0.236725 -0.0199,0 -0.213491,0.393217 -0.430211,0.87382 -0.287839,0.638311 -0.356554,1.147295 -0.254961,1.888509 0.182981,1.335003 -0.217051,2.900582 -0.820404,3.210746 -0.256823,0.132028 -0.696825,0.524687 -0.977776,0.87258 -0.497562,0.616114 -0.564795,0.632533 -2.590022,0.632533 l -2.079201,0 0.315931,0.604855 c 0.173764,0.332667 0.61505,0.889188 0.980639,1.236704 0.416488,0.395901 0.718508,0.950305 0.808782,1.48464 0.159131,0.941878 0.262173,1.003349 0.888173,0.529864 0.234822,-0.177607 0.638099,-0.326071 0.896174,-0.32992 0.280575,-0.0042 0.515475,-0.183853 0.584261,-0.446889 0.232519,-0.889157 2.251905,-0.335586 2.748044,0.753318 0.194969,0.427912 0.196395,0.701683 0.0058,1.119922 -0.213652,0.468913 -0.187708,0.601438 0.169673,0.866662 0.608037,0.451236 1.956387,0.636383 2.503231,0.343718 0.606735,-0.324713 1.194747,-0.12114 2.176953,0.75368 1.253141,1.116129 1.56937,1.233255 2.304026,0.853348 0.350538,-0.181267 0.83595,-0.277642 1.078692,-0.214163 z"
    id="Caceres"
    style="fill:#ff0000;fill-opacity:1;stroke:#000000;stroke-width:0.22190399;stroke-miterlimit:4;stroke-opacity:1;stroke-dashoffset:0"
    inkscape:connector-curvature="0"
  />
  <path
    d="m 72.474769,65.283803 c 0.378332,-0.195645 0.730797,-0.481518 0.783259,-0.635276 0.07183,-0.210539 0.332212,-0.166104 1.054599,0.179976 l 0.959218,0.459541 1.802003,-0.844444 c 0.991099,-0.464449 1.900612,-0.844447 2.021136,-0.844447 0.144655,0 0.142817,-0.300687 -0.0054,-0.884656 -0.192915,-0.760028 -0.152139,-1.037168 0.289431,-1.967247 0.338713,-0.713423 0.687675,-1.126184 1.023346,-1.210434 0.808028,-0.202802 1.404465,-0.924233 1.255332,-1.518418 -0.07112,-0.283404 0.0233,-0.880571 0.209851,-1.327039 L 82.206717,55.879597 81.16872,55.450676 C 79.66096,54.827654 79.529978,54.7308 79.075494,53.902894 78.522762,52.896022 78.328325,52.737268 77.091962,52.283391 76.336299,52.005983 75.970628,51.728004 75.815972,51.313407 75.696742,50.99378 75.390598,50.571521 75.135652,50.375049 74.880708,50.178575 74.564117,49.697791 74.432121,49.30664 74.234,48.719542 73.961867,48.502122 72.872445,48.060551 c -1.620184,-0.656706 -2.779698,-0.558683 -3.155806,0.266785 -0.179346,0.393618 -0.418243,0.535382 -0.902206,0.535382 -0.557551,0 -0.686507,0.108981 -0.842835,0.712286 -0.159179,0.614286 -0.288655,0.718949 -0.941064,0.76073 -1.979326,0.126753 -2.624757,0.406396 -2.627266,1.13829 -0.0036,1.031134 -0.484033,1.990895 -1.211672,2.420211 -0.896952,0.529217 -1.742474,1.77875 -1.42109,2.10013 0.118016,0.118018 0.214576,0.455281 0.214576,0.749479 0,0.294198 0.191743,0.845154 0.4261,1.224354 0.761809,1.23263 1.594452,3.843693 1.444065,4.528403 -0.105487,0.480282 -0.04233,0.683717 0.263025,0.847135 0.221022,0.118285 0.767938,0.560327 1.215372,0.982313 0.447436,0.421986 1.040021,0.772479 1.316853,0.778869 0.801922,0.01852 2.7928,0.380465 2.948353,0.53602 0.249117,0.249114 2.163188,0.01142 2.875898,-0.357135 z"
    id="Cuenca"
    style="fill:#ff0000;fill-opacity:1;stroke:#000000;stroke-width:0.22190399;stroke-miterlimit:4;stroke-opacity:1;stroke-dashoffset:0"
    inkscape:connector-curvature="0"
  />
  <path
    d="m 57.887038,64.641045 c 0.289499,-0.312378 1.046323,-0.831444 1.681831,-1.153477 1.128915,-0.572065 1.176782,-0.577379 2.082996,-0.231293 1.167202,0.445758 1.572266,0.291889 1.751865,-0.665467 0.162506,-0.866224 -0.516755,-3.013863 -1.349403,-4.266448 -0.280014,-0.421237 -0.509118,-1.020042 -0.509118,-1.330679 0,-0.832254 -0.395501,-1.092665 -1.6595,-1.092665 -0.870669,0 -1.228133,0.106635 -1.550106,0.462411 -0.589867,0.651797 -1.492288,1.077216 -2.285041,1.077216 -1.005133,0 -1.124224,-0.599158 -0.262138,-1.318858 0.383907,-0.3205 0.69801,-0.694585 0.69801,-0.831301 0,-0.247379 -1.310142,-0.705583 -2.024159,-0.707922 -0.667747,-0.0022 -1.591509,-0.502582 -2.185408,-1.183816 l -0.580448,-0.665804 -0.849207,0.366771 c -0.467063,0.201724 -1.425273,0.527682 -2.129358,0.72435 -1.158054,0.323475 -1.316163,0.324992 -1.65771,0.01589 -0.234889,-0.212567 -0.572015,-0.290836 -0.892149,-0.20712 -0.352654,0.09222 -0.578484,0.02039 -0.717644,-0.22828 -0.383353,-0.685015 -1.334856,-0.432663 -2.020199,0.535791 -0.399328,0.564284 -0.745576,0.844624 -0.947499,0.767137 -0.175011,-0.06716 -0.708036,0.07677 -1.184498,0.319842 -0.548484,0.279819 -1.198279,0.420285 -1.771233,0.382891 -1.155504,-0.07542 -1.410318,0.281948 -1.200182,1.683225 0.143412,0.956345 0.200899,1.035446 0.667431,0.918353 0.618369,-0.1552 0.887732,0.34931 0.536698,1.005223 -0.211209,0.394651 -0.185147,0.427989 0.231289,0.295816 0.263691,-0.08369 0.609255,-0.03282 0.788692,0.116091 0.417329,0.346354 0.414013,1.508356 -0.0047,1.669054 -0.464237,0.178145 1.739776,2.644174 2.500304,2.797539 0.853923,0.172203 2.244801,-0.287569 3.003048,-0.992693 0.790153,-0.7348 1.208749,-0.780541 1.742785,-0.190439 0.352771,0.38981 0.437688,0.400758 0.852841,0.109973 0.253584,-0.177615 0.76346,-0.32294 1.133056,-0.32294 0.406724,0 0.825407,-0.179178 1.060633,-0.453901 0.460227,-0.537504 1.320621,-0.492212 1.428785,0.07522 0.04101,0.215119 -0.235311,0.744048 -0.614041,1.1754 -0.829478,0.944724 -0.772701,1.26691 0.229544,1.302583 0.414882,0.01476 1.04002,0.176907 1.389205,0.36032 0.436417,0.229234 1.174648,0.320424 2.361651,0.29172 1.546316,-0.03739 1.781789,-0.101109 2.253143,-0.609707 z"
    id="Toledo"
    style="fill:#ffcc00;fill-opacity:1;stroke:#000000;stroke-width:0.22190399;stroke-miterlimit:4;stroke-opacity:1;stroke-dashoffset:0"
    inkscape:connector-curvature="0"
  />
  <path
    d="m 90.368879,58.48539 c 0.835921,-0.476804 0.891804,-0.481155 1.530069,-0.119142 l 0.662457,0.375742 0.743698,-1.475474 c 0.409034,-0.811513 0.964629,-1.673426 1.234651,-1.915366 1.012705,-0.907376 2.394033,-2.931498 3.487079,-5.109766 0.6211,-1.237752 1.129271,-2.289656 1.129271,-2.337569 0,-0.04791 -0.649429,-0.657274 -1.443175,-1.354144 -1.079181,-0.947469 -1.506334,-1.203878 -1.693589,-1.016621 -0.321523,0.321524 -1.741996,0.323005 -2.44531,0.0026 -0.697706,-0.317896 -1.46709,-0.119613 -2.319718,0.597827 l -0.677451,0.570036 0.440553,0.6187 c 0.242303,0.340285 0.440553,0.881267 0.440553,1.202177 0,0.956031 -0.479413,2.566816 -0.80064,2.690083 -0.164502,0.06313 -0.299093,0.286248 -0.299093,0.495829 0,0.430259 -0.935668,0.940711 -1.398667,0.763043 -0.331565,-0.127233 -0.663069,0.477387 -0.450408,0.821481 0.298004,0.482181 -0.416358,1.499197 -1.381089,1.966215 -0.541352,0.262061 -1.037792,0.615937 -1.103199,0.786388 -0.157813,0.411259 0.522333,1.137357 1.414603,1.510169 0.469303,0.196088 0.719291,0.452009 0.719291,0.736359 0,0.3955 0.159945,0.48553 1.166133,0.656408 0.09701,0.01647 0.566797,-0.192744 1.043981,-0.464928 z"
    id="Castellon"
    style="fill:#ff00ff;fill-opacity:1;stroke:#000000;stroke-width:0.22190399;stroke-miterlimit:4;stroke-opacity:1;stroke-dashoffset:0"
    inkscape:connector-curvature="0"
  />
  <path
    d="m 56.995774,56.748124 c 0.26423,-0.138941 0.760201,-0.485358 1.102151,-0.769812 0.498605,-0.41477 0.879725,-0.51719 1.924534,-0.51719 0.716542,0 1.302804,-0.09553 1.302804,-0.212293 0,-0.116763 0.298827,-0.552639 0.664063,-0.96862 l 0.664062,-0.756323 -0.654528,-0.654528 c -0.543356,-0.543357 -0.634363,-0.780435 -0.535813,-1.395808 0.09673,-0.604026 -0.01704,-0.921891 -0.614388,-1.716678 -2.942907,-3.915548 -2.966685,-3.963486 -2.571148,-5.183114 0.373111,-1.150474 0.356746,-1.242226 -0.387995,-2.175602 -1.080668,-1.354385 -1.860507,-1.040838 -3.769927,1.515761 -0.722784,0.967766 -1.673641,2.100663 -2.113016,2.517549 -0.44297,0.420294 -0.798861,0.971828 -0.798861,1.23801 0,0.329661 -0.214035,0.568692 -0.683251,0.763048 -0.461779,0.191274 -0.810064,0.574222 -1.074476,1.181404 -0.215173,0.494114 -0.708354,1.195321 -1.095958,1.558233 -1.007564,0.943377 -1.377415,1.714946 -1.040943,2.17157 0.245065,0.332578 0.375579,0.328364 1.695161,-0.05473 0.786309,-0.228279 1.697786,-0.539809 2.025499,-0.69229 0.503252,-0.234159 0.682688,-0.220338 1.154719,0.08895 0.307382,0.201406 0.558876,0.460346 0.558876,0.575418 0,0.334126 1.116765,0.809703 2.309442,0.983488 0.604854,0.08813 1.272943,0.25293 1.48464,0.366219 0.609075,0.325937 0.463029,1.1183 -0.327938,1.779198 -0.679705,0.567934 -0.690442,0.599242 -0.20747,0.604853 0.280137,0.0033 0.725531,-0.107764 0.989761,-0.246709 z"
    id="Madrid"
    style="fill:#9600ff;fill-opacity:1;stroke:#000000;stroke-width:0.22190399;stroke-miterlimit:4;stroke-opacity:1;stroke-dashoffset:0"
    inkscape:connector-curvature="0"
  />
  <path
    d="m 86.137796,55.275368 c 0.325224,-0.229005 0.798993,-0.480751 1.052818,-0.559433 0.480649,-0.148992 1.059083,-1.129211 0.858179,-1.45428 -0.06356,-0.102841 0.0036,-0.448442 0.149169,-0.768003 0.188425,-0.413551 0.385538,-0.549431 0.683849,-0.47142 0.586924,0.153486 1.036529,-0.06114 1.036529,-0.494804 0,-0.202112 0.190829,-0.530872 0.424063,-0.730571 0.246265,-0.210858 0.490302,-0.804828 0.582054,-1.416677 0.131772,-0.87871 0.07471,-1.198284 -0.343742,-1.925371 L 90.078976,46.583023 90.8677,45.86021 c 0.95638,-0.876455 1.74705,-1.103807 2.673593,-0.768763 0.383483,0.138669 1.016934,0.252124 1.407673,0.252124 0.608245,0 0.75819,-0.114293 1.042427,-0.794566 0.182597,-0.437012 0.387503,-1.263269 0.455349,-1.836126 0.105377,-0.889741 0.05089,-1.109068 -0.373782,-1.504714 -0.465682,-0.433846 -0.538616,-0.441709 -1.152519,-0.124251 -0.641345,0.331654 -0.672674,0.32202 -1.463345,-0.450052 -0.444383,-0.433929 -0.930997,-0.788959 -1.081367,-0.788959 -0.15037,0 -0.53511,-0.171481 -0.854978,-0.381067 -0.319871,-0.209584 -0.797414,-0.352782 -1.061209,-0.318214 -0.267251,0.03502 -0.77377,-0.18465 -1.143913,-0.496108 l -0.664288,-0.558962 -0.559319,0.439962 c -0.307628,0.241979 -0.622968,0.729741 -0.700757,1.083912 -0.126574,0.576289 -0.324228,0.704825 -1.881025,1.22329 -1.611245,0.536594 -1.776054,0.553795 -2.233833,0.233156 -0.668461,-0.468209 -1.553668,-0.436751 -1.86788,0.06638 -0.141706,0.226908 -0.595768,0.475996 -1.009027,0.553522 -0.49703,0.09325 -0.832681,0.319398 -0.991559,0.668094 -0.132096,0.289923 -0.444164,0.591876 -0.693478,0.671007 -0.249314,0.07913 -0.453302,0.294798 -0.453302,0.479265 0,0.184465 -0.198455,0.587693 -0.441017,0.896059 -0.284822,0.362089 -0.368845,0.64763 -0.237238,0.806209 0.112083,0.135048 0.236309,0.838635 0.276058,1.563523 0.06556,1.195436 0.03138,1.317974 -0.367616,1.317974 -0.796197,0 -0.987571,0.27055 -0.724724,1.024561 0.211063,0.605457 0.18103,0.728466 -0.25888,1.06029 -0.779013,0.587614 -0.424068,1.180969 1.102489,1.843018 0.847755,0.36766 1.402592,0.76187 1.560693,1.108867 0.238634,0.523737 0.264918,0.529046 0.965344,0.195038 0.678189,-0.323403 0.793275,-0.313001 1.980399,0.179032 1.38054,0.572206 1.912581,1.257788 1.428621,1.840924 -0.153568,0.185037 -0.181731,0.336433 -0.06258,0.336433 0.11915,0 0.601405,0.30676 1.071679,0.681692 l 0.855043,0.681688 0.06853,-0.67635 c 0.04395,-0.43383 0.280558,-0.825659 0.65984,-1.092731 z"
    id="Teruel"
    style="fill:#ffcc00;fill-opacity:1;stroke:#000000;stroke-width:0.22190399;stroke-miterlimit:4;stroke-opacity:1;stroke-dashoffset:0"
    inkscape:connector-curvature="0"
  />
  <path
    d="m 41.234744,54.559945 c 0.410504,-0.253704 0.884852,-0.408141 1.054107,-0.34319 0.172436,0.06617 0.453432,-0.104268 0.639108,-0.387643 0.816394,-1.245977 1.916686,-1.620379 2.639058,-0.898009 0.458053,0.458052 0.968366,0.19709 1.449671,-0.741322 0.225018,-0.438721 0.675989,-1.045114 1.002165,-1.34754 0.326171,-0.302427 0.831498,-1.018323 1.122947,-1.590879 0.354214,-0.695856 0.711622,-1.086619 1.077964,-1.178562 0.30143,-0.07565 0.548054,-0.275289 0.548054,-0.443631 0,-0.434065 -0.222434,-0.384456 -1.173324,0.261692 -0.459551,0.312271 -0.966856,0.517378 -1.127349,0.455789 -0.171414,-0.06577 -0.35578,-0.66318 -0.446865,-1.447991 -0.131645,-1.134242 -0.251446,-1.404643 -0.793257,-1.790448 -0.489846,-0.3488 -0.638193,-0.628096 -0.638193,-1.201532 0,-0.510243 -0.133177,-0.818373 -0.420076,-0.971915 -0.256154,-0.13709 -0.479415,-0.576043 -0.572142,-1.124887 l -0.152065,-0.900068 -0.486781,0.457307 c -0.613904,0.576733 -1.145432,0.583123 -1.448191,0.01742 -0.282052,-0.527019 -0.681215,-0.553876 -1.550549,-0.104326 -0.644136,0.333095 -0.648919,0.349855 -0.648919,2.274389 l 0,1.938821 -1.652687,1.409718 c -0.908981,0.775345 -1.849253,1.499081 -2.089493,1.60829 -0.519071,0.235971 -0.564161,0.536179 -0.106886,0.711651 0.809291,0.310557 -0.200148,1.495153 -1.085182,1.273482 -0.582355,-0.145859 -1.16243,0.298699 -1.337044,1.024686 -0.11224,0.466645 0.0086,0.69678 0.671774,1.279027 0.538819,0.473088 0.929075,0.659081 1.169573,0.557408 1.097197,-0.463857 1.31356,-0.390892 1.560528,0.526271 0.23782,0.883192 0.441192,1.021033 1.633752,1.107331 0.22766,0.01647 0.749797,-0.177627 1.160302,-0.431332 z"
    id="Avila"
    style="fill:#0000ff;fill-opacity:0.99608053;stroke:#000000;stroke-width:0.22190399;stroke-miterlimit:4;stroke-opacity:1;stroke-dashoffset:0"
    inkscape:connector-curvature="0"
  />
  <path
    d="m 63.877215,51.928372 c 0.205669,-1.550417 0.616162,-1.843094 2.836744,-2.022565 0.510988,-0.0413 0.713568,-0.202179 0.898008,-0.713168 0.188996,-0.523609 0.387092,-0.674451 0.959491,-0.730607 0.488508,-0.04792 0.756825,-0.206519 0.831313,-0.491371 0.0664,-0.25391 0.427073,-0.508679 0.910057,-0.642833 1.08541,-0.301488 1.084912,-0.301552 2.677273,0.345481 1.444541,0.58697 1.952698,1.020564 1.964865,1.676552 0.0103,0.555363 0.697692,0.854928 1.169725,0.509769 0.322399,-0.235743 0.346899,-0.387332 0.147404,-0.912045 -0.207981,-0.547036 -0.175127,-0.681239 0.251312,-1.026547 0.269815,-0.218486 0.628665,-0.344253 0.797447,-0.279486 0.248255,0.09526 0.277973,-0.08145 0.155583,-0.925151 -0.08321,-0.573601 -0.24745,-1.227989 -0.364981,-1.454199 -0.160924,-0.30973 -0.09718,-0.568872 0.25813,-1.049458 0.582392,-0.787726 0.471057,-0.989541 -0.650415,-1.179013 -0.483918,-0.08175 -1.003024,-0.323786 -1.153568,-0.537837 -0.150547,-0.214054 -0.590105,-0.655001 -0.976793,-0.979883 l -0.703075,-0.590696 -1.137976,0.576653 c -1.110344,0.562654 -1.183783,0.570561 -3.024692,0.325581 -2.090872,-0.278242 -2.318471,-0.359336 -2.160911,-0.769936 0.157249,-0.409777 -0.999542,-1.431453 -1.630047,-1.439652 -0.295806,-0.0039 -0.724158,-0.14807 -0.951888,-0.320496 -0.359376,-0.2721 -0.498376,-0.269893 -1.052578,0.0167 -0.518213,0.267978 -0.8726,0.28692 -1.880798,0.100545 -1.580122,-0.292103 -1.601369,-0.290971 -1.601369,0.0853 0,0.404485 -1.146306,1.224684 -1.71161,1.224684 -0.238698,0 -0.555656,0.146591 -0.704354,0.325763 -0.220561,0.265759 -0.143791,0.516844 0.416792,1.363173 0.377935,0.570575 0.642372,1.141558 0.587642,1.268851 -0.69445,1.615096 -0.675974,1.771136 0.396325,3.347096 0.562545,0.826775 1.338064,1.87776 1.723378,2.335524 0.533736,0.634097 0.703062,1.049366 0.711026,1.743799 0.0079,0.685209 0.16982,1.091925 0.652382,1.638266 0.800526,0.906327 1.160021,0.689919 1.360158,-0.81879 z"
    id="Guadalajara"
    style="fill:#0000ff;fill-opacity:0.99607843;stroke:#000000;stroke-width:0.22190399;stroke-miterlimit:4;stroke-opacity:1;stroke-dashoffset:0"
    inkscape:connector-curvature="0"
  />
  <path
    d="m 24.828161,52.068866 c 0.482508,-0.08092 1.058005,-0.414305 1.49692,-0.867149 0.392179,-0.404623 1.210504,-0.968675 1.8185,-1.253446 1.017145,-0.476403 1.152333,-0.491482 1.692309,-0.188794 0.32277,0.180933 0.78053,0.624012 1.017247,0.984617 0.236714,0.360607 0.756301,0.872046 1.154636,1.136528 0.655621,0.435317 0.781563,0.451653 1.329182,0.172386 0.332716,-0.169672 0.778146,-0.359936 0.989843,-0.42281 0.211701,-0.06287 0.384909,-0.313088 0.384909,-0.556036 0,-0.547922 0.95196,-1.201658 1.529792,-1.050549 0.236106,0.06174 0.596234,-0.0098 0.800284,-0.159024 0.341585,-0.249775 0.342394,-0.282258 0.01025,-0.409726 -0.494676,-0.189824 -0.45459,-0.920937 0.06378,-1.163386 0.233507,-0.109213 1.173779,-0.839489 2.089494,-1.622833 l 1.664933,-1.42426 0,-1.915107 c 0,-1.789648 -0.03242,-1.926103 -0.49488,-2.083017 -0.272183,-0.09235 -0.625941,-0.142489 -0.78613,-0.11141 -0.415761,0.08067 -0.918457,-0.393875 -0.918457,-0.867018 0,-0.287656 -0.223906,-0.445 -0.782319,-0.54976 -0.46622,-0.08746 -0.919324,-0.355859 -1.121392,-0.664257 -0.319451,-0.487542 -0.375374,-0.498716 -0.966332,-0.193122 -0.822363,0.425262 -1.009211,0.411137 -1.775054,-0.134191 l -0.64399,-0.458561 -0.777204,0.458561 c -0.682279,0.402554 -0.894747,0.428967 -1.739555,0.21624 -0.712418,-0.179388 -1.36201,-0.174911 -2.501215,0.01724 -1.446306,0.243952 -1.605949,0.330495 -2.654198,1.438862 -0.613433,0.648615 -1.115332,1.327017 -1.115332,1.507563 0,0.180546 -0.20518,0.393386 -0.455956,0.472982 -0.418458,0.132811 -0.427451,0.176208 -0.109359,0.527696 0.311406,0.344102 0.313348,0.492798 0.01911,1.464721 -0.250193,0.826428 -0.272324,1.250266 -0.09378,1.795799 0.163891,0.500761 0.165283,1.273377 0.0047,2.58649 -0.125967,1.029837 -0.178513,2.004085 -0.116765,2.164997 0.06174,0.16091 -0.0407,0.419514 -0.227663,0.574681 -0.470051,0.390107 -0.439323,0.945002 0.04497,0.812147 0.211698,-0.05807 0.737648,-0.164751 1.168778,-0.237055 z"
    id="Salamanca"
    style="fill:#009600;fill-opacity:1;stroke:#000000;stroke-width:0.22190399;stroke-miterlimit:4;stroke-opacity:1;stroke-dashoffset:0"
    inkscape:connector-curvature="0"
  />
  <path
    d="m 50.384064,46.987031 c 0.687092,-0.172449 2.310563,-1.848027 3.738645,-3.858636 1.011358,-1.423898 1.730112,-1.963811 2.614316,-1.963811 0.24741,0 0.701494,-0.197951 1.009074,-0.439893 0.307577,-0.241943 0.729383,-0.439893 0.937348,-0.439893 0.418588,0 1.542081,-0.949694 1.542081,-1.303529 0,-0.123643 -0.296927,-0.378349 -0.659841,-0.56602 -0.36291,-0.187669 -0.659838,-0.467406 -0.659838,-0.621639 0,-0.154231 -0.122321,-0.539617 -0.271824,-0.85641 -0.229014,-0.485277 -0.445502,-0.590469 -1.374666,-0.667946 -0.716055,-0.0597 -1.285093,0.01869 -1.622492,0.22352 -0.45877,0.278511 -0.602004,0.271118 -1.222663,-0.06313 -0.638226,-0.343705 -0.762689,-0.347743 -1.350421,-0.04381 -0.356072,0.184131 -0.835715,0.54287 -1.06588,0.797195 -0.502402,0.555152 -0.814463,0.574896 -1.716202,0.108589 -0.627687,-0.324592 -0.74521,-0.324738 -1.422439,-0.0018 -0.436261,0.208037 -0.999124,0.780109 -1.376063,1.398569 -0.350811,0.575597 -0.850557,1.384916 -1.110547,1.798492 -0.53458,0.850366 -0.453577,1.639835 0.234023,2.280882 0.232127,0.216411 0.422049,0.667932 0.422049,1.003385 0,0.416137 0.200044,0.757806 0.629649,1.075429 0.530838,0.392465 0.653481,0.676136 0.781489,1.807599 l 0.151842,1.34208 0.606593,-0.431935 c 0.333627,-0.237561 0.86722,-0.497345 1.185767,-0.577292 z"
    id="Segovia"
    style="fill:#ff0000;fill-opacity:1;stroke:#000000;stroke-width:0.22190399;stroke-miterlimit:4;stroke-opacity:1;stroke-dashoffset:0"
    inkscape:connector-curvature="0"
  />
  <path
    d="m 100.33275,46.883197 c 0.27222,0 0.59717,0.102218 0.7221,0.227159 0.33695,0.336944 0.94589,0.01783 1.0943,-0.573456 0.0715,-0.284749 0.33624,-0.583201 0.5884,-0.663234 0.43208,-0.137136 0.41666,-0.179621 -0.26793,-0.738356 -0.63678,-0.519716 -0.70745,-0.679068 -0.57289,-1.291756 0.0844,-0.384395 0.3206,-0.822746 0.52482,-0.97411 0.20423,-0.151364 0.54531,-0.54773 0.75797,-0.880814 0.52522,-0.822654 1.98127,-1.705424 3.44217,-2.086921 0.66505,-0.173668 1.47486,-0.504935 1.79957,-0.73615 0.32471,-0.231212 0.94626,-0.420391 1.38122,-0.420391 0.43497,0 0.79085,-0.03713 0.79085,-0.08251 0,-0.08288 -1.26928,-2.725308 -2.08819,-4.347247 -0.42328,-0.838353 -0.47319,-0.866415 -1.42965,-0.803832 -0.85483,0.05593 -0.98475,0.127868 -0.94512,0.523302 0.033,0.329208 -0.16995,0.561407 -0.71983,0.823625 -0.42117,0.200843 -0.85888,0.61007 -0.97268,0.9094 -0.13895,0.365456 -0.7183,0.801763 -1.76369,1.328207 -1.59329,0.802369 -1.73189,0.804695 -2.57811,0.04324 l -0.489692,-0.440642 -0.884975,0.968146 c -0.486732,0.532481 -0.88497,1.174998 -0.88497,1.427816 0,0.278695 -0.219748,0.559797 -0.558134,0.713978 -0.928607,0.423102 -1.198715,0.759565 -0.827606,1.030925 0.457331,0.33441 0.575971,1.821656 0.235812,2.956126 l -0.294298,0.981515 1.546915,1.356759 c 1.173933,1.029627 1.58932,1.283517 1.722801,1.052992 0.09674,-0.167073 0.398617,-0.303769 0.670837,-0.303769 z"
    id="Tarragona"
    style="fill:#ff0000;fill-opacity:1;stroke:#000000;stroke-width:0.22190399;stroke-miterlimit:4;stroke-opacity:1;stroke-dashoffset:0"
    inkscape:connector-curvature="0"
  />
  <path
    d="m 78.778914,42.384793 c 0.320089,-0.296652 0.581983,-0.632052 0.581983,-0.745337 0,-0.113282 0.324783,-0.2669 0.721742,-0.34137 0.39696,-0.07446 0.890873,-0.332927 1.097583,-0.574343 0.448736,-0.524088 1.613726,-0.584751 2.279136,-0.11868 0.40677,0.284911 0.618269,0.267913 1.915958,-0.153997 1.286784,-0.418364 1.4868,-0.55937 1.697021,-1.19635 0.131072,-0.397153 0.5329,-0.931855 0.892948,-1.188233 l 0.654635,-0.466142 0.86323,0.598221 c 0.507708,0.351843 1.009772,0.541987 1.219046,0.461682 0.197907,-0.07594 0.630442,0.05902 0.974652,0.304112 0.340363,0.24236 0.726996,0.440654 0.859185,0.440654 0.13219,0 0.613542,0.337157 1.069667,0.749243 0.74695,0.67482 0.871342,0.718511 1.252381,0.439892 0.232681,-0.17014 0.602092,-0.309347 0.820913,-0.309347 0.21882,0 0.397854,-0.08697 0.397854,-0.193265 0,-0.106293 0.296929,-0.316253 0.659841,-0.466577 0.705216,-0.292109 0.838043,-0.795674 0.417265,-1.581908 -0.167226,-0.312464 -0.173604,-0.604626 -0.02054,-0.940569 0.437519,-0.960253 0.0025,-1.047168 -1.733479,-0.346272 -2.213265,0.893645 -2.775447,0.75038 -3.428047,-0.8736 -0.526975,-1.311367 -1.20486,-1.916088 -2.707544,-2.415313 -0.942893,-0.313255 -1.00243,-0.381911 -1.124513,-1.29677 -0.09955,-0.745975 -0.29994,-1.107835 -0.879787,-1.588698 -0.412982,-0.342481 -0.879097,-0.625354 -1.035809,-0.62861 -0.492934,-0.01025 -1.36467,-1.061374 -1.36467,-1.64552 0,-0.307926 0.106839,-0.559864 0.237422,-0.559864 0.143987,0 0.186107,-0.238036 0.107024,-0.604853 -0.07172,-0.332669 -0.03822,-0.922293 0.07445,-1.310271 0.192726,-0.663687 0.179492,-0.689709 -0.223709,-0.439893 -0.538715,0.333777 -0.781848,0.0047 -0.98396,-1.331794 -0.07797,-0.515613 -0.220052,-0.985861 -0.315731,-1.044993 -0.09568,-0.05913 -0.243772,-0.627028 -0.32909,-1.261992 -0.255917,-1.904528 -0.322195,-1.907286 -2.002895,-0.08329 -2.370317,2.572408 -2.796403,4.360069 -1.495518,6.274495 0.293189,0.43147 0.527719,0.885234 0.521175,1.008364 -0.01921,0.361466 -2.135002,1.653531 -2.707701,1.653531 -0.288675,0 -1.093781,-0.251599 -1.789121,-0.559113 l -1.264256,-0.559114 0.483033,0.818685 c 0.416705,0.706255 0.444649,0.890416 0.203481,1.341038 -0.222435,0.415623 -0.224587,0.665942 -0.01054,1.225072 0.247753,0.647157 0.224148,0.741841 -0.298536,1.197595 -0.312156,0.272183 -0.747871,0.494878 -0.968256,0.494878 -0.783921,0 -0.996892,0.580829 -0.564535,1.539629 0.466594,1.03472 0.191838,1.583767 -0.744769,1.488272 -0.467008,-0.04762 -0.561263,0.02395 -0.502188,0.381275 0.03999,0.24194 0.0918,0.787051 0.115126,1.211352 0.05509,1.002234 0.596325,1.802678 1.03239,1.52682 0.535119,-0.338523 0.751278,-0.246423 1.815968,0.773727 0.88864,0.851468 1.832248,1.345745 2.705281,1.417066 0.133545,0.01091 0.504706,-0.222876 0.824799,-0.519527 z"
    id="Zaragoza"
    style="fill:#9600ff;fill-opacity:1;stroke:#000000;stroke-width:0.22190399;stroke-miterlimit:4;stroke-opacity:1;stroke-dashoffset:0"
    inkscape:connector-curvature="0"
  />
  <path
    d="m 72.142501,41.336688 c 0.544465,-0.256948 0.553136,-0.289617 0.214178,-0.806934 -0.194293,-0.296531 -0.365461,-0.893599 -0.38037,-1.326822 -0.0149,-0.433226 -0.09724,-0.948131 -0.182977,-1.14423 -0.207066,-0.473654 0.454141,-1.126596 0.973827,-0.961654 0.591367,0.187694 0.719633,-0.228594 0.312831,-1.015267 -0.471616,-0.912 -0.152179,-1.691632 0.768563,-1.875779 0.757104,-0.151421 1.487451,-0.838302 1.127737,-1.06062 -0.283523,-0.175227 -0.303247,-1.208945 -0.03127,-1.638583 0.125036,-0.197515 0.07105,-0.572649 -0.148733,-1.033544 -0.281515,-0.59034 -0.416794,-0.685078 -0.73505,-0.514753 -0.952707,0.509873 -2.618428,-0.108028 -2.618428,-0.971309 0,-0.48726 -0.726361,-1.021242 -1.385015,-1.018188 -0.775952,0.0036 -1.903145,0.497281 -2.027099,0.887816 -0.151092,0.476059 -1.321015,1.181765 -1.636199,0.986971 -0.108109,-0.06682 -0.261387,-0.416628 -0.34062,-0.777358 -0.122152,-0.556163 -0.206056,-0.622692 -0.551893,-0.437604 -0.22431,0.120048 -0.465033,0.398471 -0.534937,0.618722 -0.0699,0.22025 -0.468038,0.563036 -0.884745,0.761747 -0.416703,0.198715 -0.90936,0.654685 -1.09479,1.013272 -0.29164,0.563963 -0.499415,0.672245 -1.539258,0.802165 -1.16173,0.145149 -1.198128,0.170087 -1.083657,0.742459 0.09278,0.463913 -0.07948,0.842671 -0.794911,1.747757 -0.760262,0.961805 -0.889614,1.263621 -0.771681,1.80057 0.07793,0.354795 0.233046,0.701545 0.34471,0.770558 0.111661,0.06901 0.203024,0.301699 0.203024,0.517084 0,0.215384 0.247441,0.504348 0.549866,0.642146 0.302428,0.137793 0.549868,0.341472 0.549868,0.452618 0,0.111145 0.646873,0.314732 1.437495,0.45241 1.25286,0.218177 1.518955,0.202208 2.071735,-0.124324 0.593011,-0.3503 0.670637,-0.350806 1.194129,-0.0078 0.307937,0.20177 0.791392,0.366853 1.074345,0.366853 0.585206,0 2.046401,1.377813 1.830925,1.726454 -0.08358,0.135233 0.279108,0.27986 0.910051,0.362904 0.576952,0.07593 1.197468,0.169783 1.378923,0.208546 0.718189,0.153429 1.257197,0.10961 1.799422,-0.146279 z"
    id="Soria"
    style="fill:#009600;fill-opacity:1;stroke:#000000;stroke-width:0.22190399;stroke-miterlimit:4;stroke-opacity:1;stroke-dashoffset:0"
    inkscape:connector-curvature="0"
  />
  <path
    d="m 44.76924,40.944637 c 0.307578,-0.241941 0.692339,-0.439896 0.85502,-0.439896 0.162684,0 0.510034,-0.420647 0.771888,-0.934772 0.760186,-1.492551 1.450617,-2.269776 2.39435,-2.695339 0.849508,-0.383076 0.906002,-0.382897 1.626567,0.0051 0.745889,0.401688 0.747045,0.401549 1.427224,-0.170784 0.374402,-0.315039 0.879217,-0.635793 1.121809,-0.712791 0.551893,-0.175162 0.557734,-0.423639 0.02178,-0.92658 -0.230614,-0.216413 -0.579801,-0.947964 -0.775971,-1.62567 -0.395258,-1.365489 -0.792179,-1.674079 -2.543822,-1.977738 -1.441363,-0.249867 -3.750963,-1.110053 -4.578836,-1.705336 -0.394947,-0.283983 -0.986171,-0.589099 -1.313837,-0.678031 -0.494093,-0.134102 -0.599045,-0.289957 -0.615031,-0.913318 -0.03329,-1.297974 -0.06162,-1.3604 -0.558585,-1.230442 -0.257338,0.0673 -0.681942,-0.0179 -0.943562,-0.189319 -0.370967,-0.243067 -0.65845,-0.261212 -1.305969,-0.08242 -1.602996,0.442609 -2.14578,1.684154 -1.241624,2.840053 0.643739,0.822974 0.610974,2.691519 -0.05499,3.135801 -0.462684,0.308666 -0.475346,0.378382 -0.194643,1.071573 0.926149,2.287095 1.00379,2.657879 0.615935,2.941485 -0.41148,0.300885 -0.488815,1.449019 -0.14133,2.098299 0.158239,0.295672 0.147944,0.543712 -0.03471,0.83619 -0.332431,0.532304 -0.08446,1.2248 0.375387,1.048338 0.188103,-0.07218 0.632662,0.01907 0.98791,0.202775 0.577973,0.298882 0.714156,0.298719 1.294824,-0.0016 0.882602,-0.456412 1.493193,-0.421442 1.821541,0.104325 0.151094,0.241941 0.30953,0.439894 0.352081,0.439894 0.04254,0 0.329013,-0.197953 0.636592,-0.439894 z"
    id="Valladolid"
    style="fill:#ff00ff;fill-opacity:1;stroke:#000000;stroke-width:0.22190399;stroke-miterlimit:4;stroke-opacity:1;stroke-dashoffset:0"
    inkscape:connector-curvature="0"
  />
  <path
    d="m 38.905079,38.959894 c -0.05258,-0.178583 -0.136324,-0.794289 -0.186109,-1.368233 -0.07009,-0.808065 -0.01165,-1.0738 0.258986,-1.177654 0.408627,-0.156803 0.299087,-0.841055 -0.338418,-2.113998 -0.526969,-1.052222 -0.517486,-1.639641 0.0312,-1.933296 0.341626,-0.182833 0.439895,-0.460528 0.439895,-1.2431 0,-0.924509 -0.03924,-0.99741 -0.475454,-0.883338 -0.639595,0.167256 -1.20931,-0.17015 -1.616341,-0.957267 -0.515759,-0.997368 -1.239551,-1.391368 -1.956171,-1.064855 -0.429797,0.195829 -0.647462,0.200951 -0.828906,0.01951 -0.13533,-0.135332 -0.506079,-0.194052 -0.823889,-0.130492 -0.40316,0.08064 -0.697905,-0.01711 -0.975049,-0.323355 -0.36927,-0.408037 -0.451535,-0.416228 -1.169151,-0.116387 -0.740905,0.309568 -0.792831,0.299986 -1.291814,-0.238426 -0.605424,-0.653264 -0.77826,-0.67698 -1.649641,-0.22637 -0.690304,0.356968 -1.535707,0.262114 -2.294371,-0.25743 -0.561936,-0.384823 -0.995807,-0.378816 -0.995807,0.01378 0,0.17099 -0.420648,0.611581 -0.934772,0.979089 -1.076734,0.769669 -1.704587,1.355272 -1.704587,1.58987 0,0.08994 0.336919,0.371753 0.748713,0.626257 0.62698,0.387493 0.839301,0.421458 1.305851,0.208881 0.477563,-0.217592 0.702223,-0.168824 1.572924,0.341439 1.262706,0.739996 1.632675,1.432042 1.155172,2.160807 -0.495708,0.756541 -0.15212,1.155775 1.454938,1.690568 1.63378,0.54369 2.036518,1.088139 1.620396,2.190576 -0.198676,0.526343 -0.483131,0.751035 -1.290169,1.019087 -0.569415,0.189129 -1.141487,0.471816 -1.271265,0.628193 -0.191461,0.230692 -0.0058,0.244662 0.984315,0.07408 0.811282,-0.139774 1.523411,-0.133296 2.124701,0.01932 0.780207,0.198037 1.015798,0.165468 1.715356,-0.237148 l 0.810933,-0.466715 0.806165,0.475651 c 0.779857,0.460129 0.831936,0.463363 1.5957,0.09915 0.784841,-0.374263 0.792341,-0.373097 1.26108,0.196503 0.532593,0.647193 0.932669,0.845006 1.571276,0.776901 0.273064,-0.02912 0.403642,-0.170052 0.344304,-0.371612 z"
    id="Zamora"
    style="fill:#450000;fill-opacity:0.99607843;stroke:#000000;stroke-width:0.22190399;stroke-miterlimit:4;stroke-opacity:1;stroke-dashoffset:0"
    inkscape:connector-curvature="0"
  />
  <path
    d="m 112.53578,37.86664 c 0.14685,-0.440549 0.73206,-0.881044 1.17048,-0.881044 0.54133,0 2.3181,-1.419923 2.50206,-1.999531 0.0862,-0.271609 0.48096,-0.508564 1.11191,-0.66744 0.69204,-0.174257 1.08603,-0.428758 1.34659,-0.869851 0.20257,-0.342937 0.62164,-0.730117 0.93126,-0.8604 0.30961,-0.13028 0.80783,-0.423831 1.10715,-0.652327 0.52852,-0.403486 0.53271,-0.428141 0.14536,-0.856158 -0.21936,-0.242386 -0.76309,-0.502244 -1.2083,-0.577463 -1.1927,-0.201507 -2.54784,-1.028671 -2.63082,-1.605819 -0.0387,-0.268914 0.0252,-0.488934 0.14198,-0.488934 0.11675,0 0.41032,-0.400326 0.65241,-0.889614 l 0.44014,-0.889612 -0.49684,-0.325541 c -0.27326,-0.179051 -1.14964,-0.386501 -1.94751,-0.461009 -1.13988,-0.106443 -1.557,-0.248638 -1.94694,-0.663709 -0.41443,-0.44115 -0.45287,-0.597708 -0.23311,-0.949584 0.23693,-0.379388 0.18518,-0.435968 -0.51961,-0.568187 -1.24753,-0.23404 -1.77526,0.147161 -2.22104,1.604351 -0.21424,0.700347 -0.36291,1.495672 -0.33039,1.767389 0.0325,0.271719 -0.047,0.692367 -0.17672,0.934775 -0.16945,0.316635 -0.16622,0.570905 0.0115,0.903009 0.20925,0.390983 0.15322,0.560568 -0.36333,1.099732 -0.39041,0.407497 -0.83392,0.637466 -1.22942,0.637466 -0.71215,0 -0.68958,-0.04904 -0.38266,0.831378 0.15892,0.455887 0.1644,0.810913 0.0167,1.086789 -0.16899,0.315765 -0.0736,0.659774 0.41596,1.500227 0.61495,1.055732 0.92552,1.693567 1.69278,3.476708 0.34472,0.801127 0.40614,0.839771 1.14413,0.720011 0.42892,-0.06961 0.81421,-0.229629 0.8562,-0.355612 z"
    id="Barcelona"
    style="fill:#009600;fill-opacity:1;stroke:#000000;stroke-width:0.22190399;stroke-miterlimit:4;stroke-opacity:1;stroke-dashoffset:0"
    inkscape:connector-curvature="0"
  />
  <path
    d="m 99.343439,36.548174 c 0.451771,-0.228696 0.594672,-0.187675 1.128751,0.324008 l 0.6115,0.585854 1.34022,-0.676539 c 0.84912,-0.428635 1.4593,-0.90682 1.66519,-1.304974 0.17874,-0.34564 0.61992,-0.750603 0.9804,-0.899918 0.45218,-0.187303 0.61482,-0.377275 0.5245,-0.612654 -0.17943,-0.467609 0.52446,-0.937396 1.40451,-0.937396 0.95548,0 1.3015,-0.601099 0.95333,-1.656073 -0.30166,-0.914021 -0.15605,-1.203236 0.60579,-1.203236 0.8243,0 1.64566,-0.815565 1.35962,-1.350031 -0.14938,-0.279105 -0.1407,-0.556171 0.0272,-0.869922 0.13552,-0.25321 0.19286,-0.67386 0.12744,-0.934773 -0.0654,-0.260917 0.12369,-1.167229 0.42023,-2.014023 0.29655,-0.846795 0.53962,-1.715941 0.54014,-1.931435 4.9e-4,-0.215498 0.14762,-0.448088 0.32686,-0.516869 0.23994,-0.09208 0.2698,-0.229865 0.1132,-0.522466 -0.16883,-0.315452 -0.39205,-0.373354 -1.08242,-0.280757 -0.47836,0.06416 -1.13426,0.05026 -1.45757,-0.03089 -0.56786,-0.142521 -0.57462,-0.162143 -0.19915,-0.577046 0.21378,-0.236227 0.5748,-0.429504 0.80224,-0.429504 0.34467,0 0.37455,-0.07289 0.17934,-0.437618 -0.30589,-0.571564 -1.59926,-1.256683 -1.71528,-0.908614 -0.21123,0.633705 -0.90736,0.703225 -1.74583,0.174354 -0.62953,-0.397087 -0.93957,-0.473557 -1.28817,-0.317727 -0.35077,0.156794 -0.64186,0.0812 -1.23354,-0.320321 -0.42594,-0.289047 -1.35756,-0.654 -2.07028,-0.811001 -0.71272,-0.157003 -1.4672,-0.436991 -1.67663,-0.622194 -0.309433,-0.27364 -0.443373,-0.284792 -0.714827,-0.0595 -0.479222,0.397717 -0.445278,0.512832 0.702795,2.383241 0.933742,1.521241 1.044242,1.842281 1.111312,3.228826 0.12963,2.679865 0.0903,3.014539 -0.48473,4.122849 -0.36181,0.697385 -0.51609,1.268946 -0.43246,1.602169 0.14726,0.58669 -0.814612,2.543387 -1.55183,3.156847 -0.769134,0.640018 -0.951314,1.146326 -0.70327,1.954528 0.163015,0.531143 0.149505,0.940932 -0.04913,1.490232 -0.150679,0.416704 -0.213701,0.855147 -0.140046,0.974323 0.07366,0.119175 0.03072,0.409514 -0.09541,0.645189 -0.12613,0.235677 -0.164264,0.598062 -0.08474,0.805296 0.124267,0.323836 0.224625,0.282825 0.714039,-0.291801 0.313198,-0.367725 0.802215,-0.786422 1.086707,-0.930436 z"
    id="Lerida"
    style="fill:#450000;fill-opacity:0.99607843;stroke:#000000;stroke-width:0.22190399;stroke-miterlimit:4;stroke-opacity:1;stroke-dashoffset:0"
    inkscape:connector-curvature="0"
  />
  <path
    d="m 95.474552,36.289411 c 2.022665,-0.807153 2.391173,-1.278329 1.951256,-2.494895 -0.302119,-0.835493 -0.121841,-1.251177 1.118423,-2.578885 0.941079,-1.007429 1.321922,-1.858705 1.160451,-2.593883 -0.102185,-0.465228 0.01498,-0.896618 0.440868,-1.623352 0.593,-1.011877 0.63946,-1.377381 0.49186,-3.869446 -0.0651,-1.098728 -0.23735,-1.684209 -0.744272,-2.529387 -0.74003,-1.233826 -0.522009,-1.176417 -4.47613,-1.178598 -0.423398,-1.64e-4 -1.234771,0.08949 -1.803057,0.199389 -0.892506,0.172602 -1.192094,0.125867 -2.199467,-0.34311 -0.808945,-0.376601 -1.55175,-0.543588 -2.424647,-0.545078 -0.862135,-0.0014 -1.651988,-0.176202 -2.508209,-0.554865 -0.687384,-0.303993 -1.262767,-0.526688 -1.278629,-0.49488 -0.01585,0.03181 -0.401867,0.526367 -0.857785,1.09902 -0.82345,1.034285 -0.827383,1.048857 -0.593923,2.199465 0.129261,0.637058 0.406756,1.81967 0.61666,2.628034 0.342761,1.320017 0.423012,1.446537 0.787747,1.241902 0.599247,-0.336214 0.83548,0.03941 0.581573,0.924725 -0.119777,0.417633 -0.15729,1.081729 -0.08336,1.47577 0.08619,0.45946 0.04673,0.716443 -0.110021,0.716443 -0.383343,0 -0.285973,0.778049 0.140482,1.122527 0.2117,0.171001 0.764875,0.5036 1.229278,0.739102 1.100884,0.55827 1.685017,1.324515 1.685017,2.210364 0,0.605116 0.108557,0.752843 0.714828,0.97276 1.79895,0.652545 2.242846,1.018928 2.894212,2.388821 0.351865,0.740016 0.797259,1.387724 0.98976,1.43935 0.1925,0.05163 0.391066,0.105345 0.441258,0.119377 0.05019,0.01402 0.876315,-0.287767 1.835834,-0.67067 z"
    id="Huesca"
    style="fill:#0000ff;fill-opacity:0.99607843;stroke:#000000;stroke-width:0.22190399;stroke-miterlimit:4;stroke-opacity:1;stroke-dashoffset:0"
    inkscape:connector-curvature="0"
  />
  <path
    d="m 52.967285,31.486926 c 0.60201,-0.602005 0.553434,-1.02232 -0.219946,-1.903149 -0.362911,-0.413337 -0.65984,-0.889655 -0.65984,-1.058487 0,-0.168833 -0.213429,-0.338597 -0.474291,-0.377254 -0.317952,-0.04712 -0.715837,-0.505283 -1.207082,-1.389964 -0.744913,-1.341501 -0.922161,-2.434222 -0.517499,-3.190338 0.147425,-0.275467 0.147425,-0.457277 0,-0.548389 -0.375138,-0.231849 -0.244769,-0.830369 0.308865,-1.417985 0.596903,-0.633541 1.314726,-2.211503 1.006022,-2.211503 -0.110935,0 -0.328582,-0.228169 -0.483657,-0.507042 -0.155077,-0.278872 -0.751818,-0.934563 -1.326088,-1.457097 -0.854103,-0.77715 -1.102534,-0.901589 -1.365034,-0.683731 -0.176495,0.146479 -0.422179,0.203731 -0.54596,0.127232 -0.123781,-0.0765 -0.598254,-0.02586 -1.054381,0.112531 -1.248488,0.378797 -2.039032,1.776314 -2.039032,3.604579 0,1.194565 -0.06934,1.436282 -0.494879,1.725008 -0.398384,0.270304 -0.441272,0.391326 -0.219946,0.620684 0.395401,0.409747 0.338848,0.950693 -0.145179,1.388736 -0.676299,0.612041 -0.755762,1.382408 -0.230292,2.232637 0.328303,0.531205 0.424603,0.940337 0.326482,1.387076 -0.122917,0.559643 -0.06719,0.651606 0.47728,0.78749 0.339051,0.08461 0.923488,0.387458 1.298746,0.672976 0.800424,0.608995 2.861725,1.392262 4.266512,1.621213 0.544367,0.08872 1.286687,0.324602 1.6496,0.524185 0.867005,0.476802 1.122594,0.467596 1.649599,-0.05941 z"
    id="Palencia"
    style="fill:#009600;fill-opacity:1;stroke:#000000;stroke-width:0.22190399;stroke-miterlimit:4;stroke-opacity:1;stroke-dashoffset:0"
    inkscape:connector-curvature="0"
  />
  <path
    d="m 19.928646,31.470224 c 0.490282,-0.170914 0.718949,-0.419213 0.823206,-0.893875 0.08359,-0.380568 0.356986,-0.75411 0.649483,-0.88738 0.277823,-0.126583 0.630828,-0.465022 0.784458,-0.752082 0.153629,-0.28706 0.436688,-0.576605 0.629018,-0.643432 1.394516,-0.484557 2.546389,-2.602618 1.985424,-3.65079 -0.131975,-0.246595 -0.184968,-0.59164 -0.117768,-0.766767 0.22841,-0.595219 -1.336609,-0.23718 -1.857431,0.424937 -0.540382,0.686988 -1.284836,0.75852 -2.13011,0.204678 -0.391168,-0.256304 -1.068373,-0.392728 -2.047054,-0.412379 -1.296787,-0.02604 -1.593847,-0.119708 -2.621621,-0.826692 -0.63751,-0.438533 -1.29299,-0.797333 -1.456615,-0.797333 -0.163626,0 -0.413366,-0.222695 -0.554978,-0.494878 -0.141613,-0.272185 -0.284972,-0.527534 -0.318576,-0.567442 -0.0336,-0.03991 -0.312278,0.09202 -0.619277,0.293173 -0.342988,0.224734 -0.738175,0.308605 -1.025058,0.217551 -0.256784,-0.0815 -0.745639,-0.03271 -1.086346,0.108414 -0.839906,0.347898 -1.001637,1.24434 -0.445546,2.469576 0.516475,1.137954 0.548912,1.786405 0.107682,2.152595 -0.385565,0.319991 -0.439656,0.879786 -0.08501,0.879786 0.160272,0 0.193369,0.247038 0.09577,0.714827 -0.377973,1.811583 -0.381476,2.512156 -0.0144,2.879226 0.511609,0.51161 1.072594,0.455032 1.833081,-0.184876 0.770821,-0.648606 0.870952,-0.662343 1.391826,-0.19096 0.36676,0.331913 0.437789,0.331913 0.944353,0 0.728136,-0.477093 0.903862,-0.457015 1.767838,0.201971 0.459234,0.350276 0.788949,0.474156 0.878091,0.329918 0.211677,-0.342496 1.122139,-0.279775 1.436462,0.09897 0.325978,0.392779 0.220683,0.383452 1.053105,0.09327 z"
    id="Orense"
    style="fill:#ffcc00;fill-opacity:1;stroke:#000000;stroke-width:0.22190399;stroke-miterlimit:4;stroke-opacity:1;stroke-dashoffset:0"
    inkscape:connector-curvature="0"
  />
  <path
    d="m 123.09269,29.95849 c 0.28175,-0.145871 0.6106,-0.5473 0.73079,-0.892066 0.13492,-0.387044 0.45987,-0.710982 0.84944,-0.846784 1.11655,-0.389232 1.19135,-2.698891 0.10087,-3.113503 -0.62765,-0.238629 -0.62659,-0.234997 -0.28608,-0.982349 0.14172,-0.311022 0.48813,-0.623335 0.76982,-0.694035 0.76673,-0.192435 0.62772,-0.827448 -0.36762,-1.67943 -0.48389,-0.414186 -0.8798,-0.847097 -0.8798,-0.962029 0,-0.114928 -0.51962,-0.195105 -1.15472,-0.178171 -1.29235,0.03447 -3.24421,0.823178 -3.24421,1.310933 0,0.177283 -0.38137,0.413846 -0.88641,0.549838 -0.76627,0.206333 -0.96851,0.180231 -1.49206,-0.192581 -0.33312,-0.237194 -0.97425,-0.500413 -1.42475,-0.584927 -0.68861,-0.129182 -0.94344,-0.05882 -1.59967,0.441718 -0.56022,0.427308 -0.93153,0.557492 -1.31531,0.461167 -0.47457,-0.11911 -1.42019,0.234325 -1.41961,0.530601 1.1e-4,0.06163 0.54478,0.117293 1.21035,0.123699 1.3742,0.01322 1.80389,0.277224 1.46919,0.902642 -0.31977,0.597499 0.18054,1.175205 1.01777,1.175205 1.16241,0 2.84075,0.448788 3.21185,0.858851 0.32721,0.361566 0.31959,0.471077 -0.0984,1.416109 -0.24919,0.563333 -0.54742,1.024242 -0.66272,1.024242 -0.39105,0 -0.2121,0.42815 0.32645,0.78102 0.29485,0.193196 1.05487,0.488118 1.68895,0.655382 0.63407,0.167265 1.35783,0.510297 1.60837,0.762299 l 0.45553,0.458182 0.4399,-0.530396 c 0.24194,-0.291719 0.67041,-0.649746 0.95215,-0.795617 z"
    id="Gerona"
    style="fill:#9600ff;fill-opacity:1;stroke:#000000;stroke-width:0.22190399;stroke-miterlimit:4;stroke-opacity:1;stroke-dashoffset:0"
    inkscape:connector-curvature="0"
  />
  <path
    d="m 78.980704,29.57154 c 0.511533,-0.327638 0.964798,-0.618062 1.007257,-0.645395 0.04246,-0.02733 -0.169624,-0.377862 -0.471296,-0.778962 -0.845349,-1.123967 -0.95635,-2.361992 -0.3575,-3.987271 0.423994,-1.150717 0.827077,-1.683568 2.61008,-3.450375 2.027685,-2.009265 3.310266,-3.493481 3.310266,-3.830671 0,-0.08802 -0.519624,-0.09572 -1.15472,-0.01713 -0.997376,0.123428 -1.360167,0.0505 -2.662449,-0.535199 -1.101826,-0.495543 -1.473764,-0.766603 -1.381568,-1.006858 0.152992,-0.398695 -0.154318,-0.423425 -0.737321,-0.05933 -0.676118,0.422244 -1.02496,-0.05384 -0.669048,-0.913076 0.379851,-0.917045 0.175822,-1.285975 -0.806537,-1.458396 -0.459998,-0.08074 -1.055574,-0.284149 -1.323502,-0.452027 -0.763161,-0.478182 -0.999214,-0.372333 -1.822299,0.817152 -0.423399,0.611875 -0.992509,1.391002 -1.264693,1.731394 -0.272185,0.340392 -0.494881,0.769019 -0.494881,0.952499 0,0.183484 -0.321672,0.58623 -0.714827,0.894993 -0.393155,0.308762 -0.868464,0.693897 -1.056246,0.855854 -0.187783,0.161956 -0.475517,1.005133 -0.63941,1.873724 -0.222243,1.177851 -0.40101,1.611954 -0.703326,1.707905 -0.448548,0.142368 -0.509961,0.343902 -0.201075,0.659872 0.112348,0.114923 0.236067,0.555287 0.274934,0.978589 0.07015,0.76397 0.08039,0.770903 1.39035,0.941386 0.725825,0.09447 1.553867,0.290622 1.840097,0.435913 0.693271,0.35191 2.888758,3.014888 2.888758,3.503875 0,0.213199 -0.32044,0.552805 -0.714828,0.757584 l -0.714826,0.371156 1.31968,0.607406 c 1.676342,0.771561 2.105813,0.777561 3.24893,0.04539 z"
    id="Navarra"
    style="fill:#ff0000;fill-opacity:1;stroke:#000000;stroke-width:0.22190399;stroke-miterlimit:4;stroke-opacity:1;stroke-dashoffset:0"
    inkscape:connector-curvature="0"
  />
  <path
    d="m 5.0109839,28.596515 c 0.015547,-0.277299 1.7932121,-0.84908 2.7067103,-0.870607 1.4559066,-0.03431 1.9084362,-0.24619 2.4134448,-1.129999 l 0.469689,-0.822002 -0.479353,-1.157519 C 9.7281305,23.666565 9.6813171,23.317152 9.8605739,22.66905 c 0.1793251,-0.648339 0.3717321,-0.840403 1.0741211,-1.072216 0.470618,-0.155315 0.966996,-0.213587 1.103066,-0.129493 0.136069,0.0841 0.600525,-0.06534 1.03212,-0.332083 0.724773,-0.447935 0.7743,-0.545733 0.648308,-1.280153 -0.391443,-2.281752 -0.317363,-2.204587 -1.601447,-1.668064 -0.443361,0.185249 -0.941331,0.284925 -1.106603,0.221505 -0.165273,-0.06342 -0.586238,0.03246 -0.935478,0.213054 -0.3492423,0.180601 -1.0110619,0.329158 -1.470709,0.33013 -0.716494,0.0014 -0.9612378,0.145217 -1.7155098,1.007245 -0.4838829,0.553009 -1.144957,1.144985 -1.4690551,1.315499 -0.7515656,0.395415 -1.0251721,1.175393 -0.5374212,1.532046 0.5300925,0.387612 0.4407177,0.67599 -0.4107957,1.325471 -0.8299991,0.633069 -0.8363046,1.056216 -0.012658,0.849491 0.9850586,-0.247233 0.9004235,0.380055 -0.1735891,1.286603 -0.9187232,0.77547 -1.0256026,0.961345 -1.0256026,1.783616 0,0.504863 0.1612843,1.148199 0.3584099,1.429636 l 0.3584097,0.511702 0.5134674,-0.627724 c 0.2824066,-0.345248 0.5170261,-0.69121 0.5213767,-0.7688 z"
    id="Pontevedra"
    style="fill:#009600;fill-opacity:1;stroke:#000000;stroke-width:0.22190399;stroke-miterlimit:4;stroke-opacity:1;stroke-dashoffset:0"
    inkscape:connector-curvature="0"
  />
  <path
    d="m 38.55138,29.742549 c 0.0696,-0.112613 0.02595,-0.266917 -0.09699,-0.3429 -0.331262,-0.20473 -0.270955,-1.362012 0.109294,-2.097334 0.256985,-0.496958 0.610155,-0.724241 1.549869,-0.997424 1.118037,-0.325022 1.26094,-0.325038 1.756665,-1.63e-4 0.296794,0.194465 0.549952,0.326548 0.562574,0.293517 0.01263,-0.03303 0.04631,-0.435021 0.07486,-0.89331 0.02855,-0.45829 0.275786,-1.136055 0.549402,-1.506145 0.362423,-0.4902 0.431671,-0.738713 0.255063,-0.915322 -0.379553,-0.379554 -0.285104,-1.003863 0.19746,-1.305231 0.362968,-0.226677 0.439894,-0.512921 0.439894,-1.636849 0,-1.124407 0.113674,-1.547017 0.651333,-2.421493 l 0.651332,-1.059361 -0.359071,-1.269957 c -0.496322,-1.755381 -0.941955,-1.84672 -3.155957,-0.646868 -1.019842,0.552693 -1.841829,0.860997 -2.109165,0.791087 -0.250693,-0.06556 -0.560598,0.0331 -0.724556,0.230657 -0.334112,0.40258 -0.956227,0.444285 -1.587529,0.106419 -0.359299,-0.19229 -0.540091,-0.15057 -0.928405,0.214231 -0.265223,0.249163 -0.676531,0.478528 -0.914023,0.509701 -0.571167,0.07497 -3.450569,-0.271676 -3.731003,-0.44917 -0.477727,-0.30236 -1.573283,-0.151869 -2.199468,0.302127 -0.362912,0.263119 -0.873597,0.545959 -1.134856,0.628536 -0.261263,0.08258 -0.595054,0.294768 -0.741759,0.47154 -0.342384,0.412546 -1.400756,0.415315 -1.741656,0.0045 -0.275909,-0.332449 -0.890637,-0.233289 -0.890637,0.143667 0,0.120808 -0.231457,0.494726 -0.514353,0.830926 -0.282895,0.336202 -0.791261,1.262809 -1.129701,2.05913 -0.590992,1.390553 -0.600619,1.470334 -0.243223,2.015788 0.26704,0.407554 0.492889,0.529603 0.79978,0.432199 0.235212,-0.07465 0.611296,-0.07745 0.835745,-0.0063 0.400959,0.127262 0.433391,0.275412 0.488442,2.231178 0.01688,0.599783 0.149651,0.738424 1.107835,1.15681 1.002787,0.437863 1.139294,0.44917 1.730689,0.143347 0.907245,-0.469156 1.489212,-0.413432 2.054701,0.196739 0.46301,0.499595 0.531118,0.511474 1.235206,0.215429 0.690411,-0.290298 0.781566,-0.279137 1.240328,0.151849 0.341764,0.321067 0.640496,0.419044 0.964316,0.316268 0.258041,-0.0819 0.601798,-0.03883 0.763908,0.09572 0.216857,0.179977 0.444185,0.176534 0.860223,-0.01303 0.724631,-0.330168 1.453841,0.109961 2.236607,1.349944 0.551086,0.872976 0.848017,1.055878 1.086828,0.669472 z"
    id="Leon"
    style="fill:#ff0000;fill-opacity:1;stroke:#000000;stroke-width:0.22190399;stroke-miterlimit:4;stroke-opacity:1;stroke-dashoffset:0"
    inkscape:connector-curvature="0"
  />
  <path
    d="m 64.72377,28.881178 c 0.112331,-0.353923 1.171849,-1.040476 1.337449,-0.866647 0.03312,0.03477 0.198693,0.404486 0.367931,0.821589 l 0.307699,0.75837 0.428449,-0.46767 c 0.235645,-0.257219 0.55262,-0.619536 0.704386,-0.805148 0.498995,-0.61028 2.027448,-0.885994 3.021624,-0.545063 0.707561,0.242644 0.900086,0.428384 0.991084,0.956151 0.130836,0.75884 0.915192,1.14388 1.851471,0.90889 0.458956,-0.115193 0.562993,-0.24423 0.459589,-0.570028 -0.100442,-0.316454 0.03313,-0.507382 0.537368,-0.768136 0.369069,-0.190853 0.671034,-0.420508 0.671034,-0.510347 0,-0.247172 -1.700875,-2.288396 -2.366081,-2.839543 -0.370194,-0.306715 -1.032802,-0.536526 -1.803868,-0.625628 -0.670312,-0.07746 -1.601309,-0.333791 -2.068884,-0.569631 -0.629647,-0.317581 -1.087329,-0.393226 -1.764647,-0.291657 -0.764883,0.114702 -0.985647,0.05842 -1.349329,-0.344014 -0.239152,-0.264635 -0.902422,-0.718284 -1.473939,-1.008102 l -1.039117,-0.526946 -0.328654,0.501589 c -0.180761,0.275875 -0.330879,0.944345 -0.333596,1.485495 -0.0028,0.541146 -0.06256,1.791481 -0.132992,2.778525 -0.117584,1.647987 -0.09293,1.805765 0.301777,1.931041 0.251487,0.07982 0.484837,0.411493 0.562418,0.799402 0.115304,0.576524 0.188483,0.633069 0.561163,0.433619 0.235714,-0.126148 0.486662,-0.4124 0.557665,-0.636111 z"
    id="La Rioja"
    style="fill:#450000;fill-opacity:0.99607855;stroke:#000000;stroke-width:0.22190399;stroke-miterlimit:4;stroke-opacity:1;stroke-dashoffset:0"
    inkscape:connector-curvature="0"
  />
  <path
    d="m 22.500907,23.935362 c 0.267021,-0.407526 0.287251,-0.653993 0.0982,-1.196325 -0.211617,-0.607037 -0.139097,-0.88649 0.651592,-2.511 0.489342,-1.005367 1.011193,-1.993462 1.159672,-2.195767 0.382577,-0.521263 -0.09972,-1.579998 -0.642789,-1.411027 -0.523614,0.16292 -1.026023,-0.19086 -0.865417,-0.609395 0.07243,-0.188732 0.457857,-0.427669 0.856515,-0.530971 0.402749,-0.104362 0.756585,-0.352687 0.796284,-0.558836 0.05601,-0.290857 -0.09447,-0.371013 -0.696551,-0.371013 -0.639554,0 -0.847083,-0.127957 -1.240841,-0.765071 -0.470119,-0.760672 -0.549547,-1.530556 -0.397587,-3.8538105 0.06114,-0.934807 0.03115,-0.993625 -0.540063,-1.059352 -0.377401,-0.04342 -0.818225,-0.349406 -1.172439,-0.813804 -0.523332,-0.686125 -2.649417,-2.085886 -3.168231,-2.085886 -0.122803,0 -0.223279,0.50814 -0.223279,1.129202 0,1.752189 -0.373409,2.716661 -1.205395,3.1134085 -0.898601,0.428511 -1.300518,1.784311 -1.087392,3.668114 0.123515,1.091726 0.06083,1.454391 -0.446912,2.5858 -0.55512,1.236969 -0.575812,1.397403 -0.344666,2.672103 0.135252,0.745865 0.185343,1.454122 0.111314,1.573903 -0.273665,0.4428 0.178979,1.143338 0.945762,1.463721 0.434295,0.181461 1.120183,0.582057 1.524197,0.890209 0.605927,0.462162 0.998795,0.566587 2.24336,0.596283 0.993513,0.0237 1.686362,0.159576 2.028744,0.397851 0.729681,0.50782 1.224871,0.468491 1.615928,-0.128337 z"
    id="Lugo"
    style="fill:#0000ff;fill-opacity:0.99607843;stroke:#000000;stroke-width:0.22190399;stroke-miterlimit:4;stroke-opacity:1;stroke-dashoffset:0"
    inkscape:connector-curvature="0"
  />
  <path
    d="m 69.015869,22.125119 c -0.306849,-0.573349 -0.154468,-1.195637 0.292772,-1.195637 0.178977,0 0.402525,-0.448284 0.556769,-1.116513 0.474129,-2.054043 0.382716,-2.213724 -1.37319,-2.398714 -0.986759,-0.103961 -1.102159,-0.176844 -1.323128,-0.835666 -0.226553,-0.675464 -0.270086,-0.70061 -0.678529,-0.391904 -0.954906,0.721734 -2.965833,0.16449 -2.965833,-0.821853 0,-0.605268 -0.47463,-0.807136 -1.116866,-0.475024 -0.942879,0.487579 -1.008734,1.076526 -0.201073,1.798171 0.694156,0.620232 0.746557,1.382198 0.09505,1.382198 -0.536658,0 -1.41647,0.504887 -1.41647,0.812856 0,0.237319 0.09764,0.250097 0.453953,0.05941 0.559238,-0.299295 1.155701,0.100238 0.979318,0.655973 -0.158966,0.500855 0.798192,1.355834 2.428959,2.169658 0.733062,0.365829 1.467597,0.827519 1.632304,1.025979 0.225741,0.271999 0.503938,0.326286 1.130025,0.220511 0.456811,-0.07718 1.008964,-0.03938 1.227004,0.08399 0.511521,0.289435 0.666102,-0.250013 0.278938,-0.973435 z"
    id="Alava"
    style="fill:#ff00ff;fill-opacity:1;stroke:#000000;stroke-width:0.22190399;stroke-miterlimit:4;stroke-opacity:1;stroke-dashoffset:0"
    inkscape:connector-curvature="0"
  />
  <path
    d="m 57.05918,35.824911 c 1.030605,0.106369 1.186828,0.07179 1.186828,-0.262663 0,-0.211833 0.40405,-0.867742 0.897886,-1.457579 0.761264,-0.909247 0.875737,-1.173292 0.752301,-1.735295 -0.163793,-0.745732 -0.12022,-0.774592 1.496867,-0.9914 0.702145,-0.09414 1.101446,-0.265971 1.188151,-0.5113 0.07183,-0.203229 0.268819,-0.531078 0.437764,-0.728553 0.406266,-0.474868 0.158431,-1.434989 -0.408694,-1.583297 -0.407409,-0.10654 -0.429711,-0.254517 -0.326311,-2.165259 0.207102,-3.826932 0.261674,-4.305602 0.527395,-4.625777 0.215588,-0.259768 0.14118,-0.438852 -0.39629,-0.953783 -0.395009,-0.378442 -0.637176,-0.81456 -0.600831,-1.082041 0.04145,-0.305051 -0.04443,-0.422146 -0.269037,-0.366831 -0.807932,0.19897 -0.991907,0.120111 -1.058144,-0.453579 -0.0543,-0.470332 0.06799,-0.662799 0.593931,-0.934775 0.364273,-0.188373 0.84044,-0.346519 1.058144,-0.351435 0.3056,-0.0069 0.227866,-0.152619 -0.340999,-0.639238 -0.616002,-0.526943 -0.714378,-0.732862 -0.599923,-1.255755 0.170891,-0.780738 -0.50058,-1.325753 -1.183242,-0.960404 -0.5954,0.31865 -1.374212,0.278859 -1.911789,-0.09768 -0.575055,-0.402783 -1.537596,-0.164403 -2.761824,0.683987 -1.066285,0.738937 -1.293392,1.129501 -0.996549,1.713797 0.126929,0.249838 0.319008,0.633654 0.426841,0.852918 0.336496,0.684215 -0.01753,1.185039 -1.196104,1.692045 -0.870142,0.374326 -1.226256,0.433269 -1.517768,0.251218 -0.323498,-0.202028 -0.419059,-0.122152 -0.634374,0.530253 -0.139424,0.422464 -0.502904,1.064516 -0.807731,1.426783 -0.438934,0.52164 -0.500461,0.723458 -0.295756,0.970113 0.187598,0.226044 0.193976,0.431965 0.02326,0.75094 -0.422248,0.788981 -0.260188,1.835471 0.471103,3.042096 0.399328,0.658886 0.86571,1.16541 1.073051,1.16541 0.201705,0 0.48568,0.287151 0.631052,0.638113 0.145373,0.350966 0.503798,0.863098 0.796499,1.138075 0.859287,0.80726 0.610701,2.216586 -0.462984,2.624801 -0.520373,0.197846 -0.523701,0.216969 -0.215719,1.2403 0.172039,0.571647 0.46538,1.124748 0.651867,1.229113 0.186488,0.104363 0.339069,0.334752 0.339069,0.511976 0,0.177221 0.313388,0.512806 0.696417,0.745737 0.600533,0.365208 0.755089,0.382417 1.122612,0.124995 0.293221,-0.205381 0.796501,-0.260303 1.613026,-0.176031 z m 8.805161,-15.335323 c 0.180767,0 0.528592,0.106996 0.772942,0.237768 0.244351,0.130772 0.481357,0.200682 0.526681,0.155355 0.181414,-0.181413 -0.184297,-1.030539 -0.495235,-1.149855 -0.509891,-0.195665 -1.981822,0.276763 -2.139074,0.68655 -0.189266,0.493224 0.310199,0.766002 0.696058,0.380145 0.170475,-0.170479 0.457861,-0.309962 0.638628,-0.309962 z"
    id="Burgos"
    style="fill:#ffcc00;fill-opacity:1;stroke:#000000;stroke-width:0.22190399;stroke-miterlimit:4;stroke-opacity:1;stroke-dashoffset:0"
    inkscape:connector-curvature="0"
  />
  <path
    d="m 4.2849009,20.247506 c 0.5135512,-0.317393 0.9266372,-0.417095 1.3195449,-0.318479 0.468812,0.117661 0.7010143,0.0027 1.2875618,-0.637702 0.6003577,-0.655437 0.8631259,-0.781256 1.6316353,-0.781256 0.5038188,0 1.2017758,-0.147762 1.5510181,-0.328363 0.34924,-0.1806 0.764975,-0.279116 0.923852,-0.218925 0.158875,0.0602 0.783744,-0.07447 1.388598,-0.299234 0.903541,-0.335765 1.190615,-0.581189 1.609157,-1.37569 0.436694,-0.828954 0.490753,-1.171125 0.378656,-2.396669 -0.181304,-1.982174 0.300536,-3.585887 1.18782,-3.9534105 0.756237,-0.313245 1.113329,-1.157011 1.113329,-2.630683 0,-0.812864 -0.07809,-1.026025 -0.384908,-1.050555 -0.211698,-0.01693 -0.53337,-0.05373 -0.714827,-0.08178 -0.968332,-0.149703 -1.736663,0.03951 -1.870312,0.460598 -0.07721,0.243267 -0.455041,0.603093 -0.839622,0.799613 -0.384582,0.196517 -0.77839,0.492358 -0.87513,0.657427 -0.09674,0.165069 -0.319434,0.300121 -0.494879,0.300121 -0.412548,0 -0.406097,0.685442 0.01596,1.6955635 0.267693,0.640683 0.278734,0.837324 0.05499,0.979329 -0.370535,0.235163 -0.775259,0.230709 -0.92413,-0.01015 -0.132974,-0.215158 -1.1187554,-0.167712 -1.7229446,0.08292 -0.5292183,0.219536 -2.8032103,0.235843 -3.3839797,0.02426 -0.3699265,-0.134762 -0.6619062,-8.16e-4 -1.3463387,0.617494 -0.673671,0.608622 -1.0618707,0.78958 -1.693841,0.78958 -1.153627,0 -2.14663556,1.054186 -2.052285,2.178718 0.0573081,0.68304 0.15383443,0.803615 0.7211726,0.900871 0.6327912,0.108479 0.7512064,0.287439 1.1276779,1.704254 0.04018,0.151213 0.3761955,0.274932 0.7467008,0.274932 0.9945327,0 1.0746778,0.547796 0.2105792,1.439319 -0.7106696,0.733226 -0.7181419,0.760711 -0.324926,1.195211 0.4935509,0.545366 0.4485223,0.54594 1.3598745,-0.01731 z"
    id="La Coruna"
    style="fill:#ff00ff;fill-opacity:1;fill-rule:evenodd;stroke:#000000;stroke-width:0.22190399;stroke-miterlimit:4;stroke-opacity:1;stroke-dashoffset:0"
    inkscape:connector-curvature="0"
  />
  <path
    d="m 53.902059,19.026424 c 0.682529,-0.34722 0.687177,-0.358799 0.384907,-0.959233 -0.12097,-0.240301 -0.320692,-0.636353 -0.443829,-0.880118 -0.351449,-0.695754 0.288116,-1.658034 1.603301,-2.412299 0.632483,-0.362729 1.305756,-0.66044 1.496161,-0.661576 0.190406,-0.0011 0.833749,-0.352605 1.429655,-0.78104 0.656027,-0.471667 1.266961,-0.746256 1.548596,-0.696028 0.255824,0.04563 0.632724,-0.03959 0.83756,-0.189374 0.342847,-0.250695 0.332587,-0.300227 -0.129166,-0.623652 -0.282559,-0.197912 -0.942392,-0.351331 -1.511027,-0.351331 -0.856248,0 -1.08021,-0.09574 -1.475854,-0.630871 -0.430144,-0.581802 -0.565945,-0.627044 -1.745949,-0.581648 -0.70374,0.02707 -1.427992,0.10404 -1.609448,0.171034 -0.181456,0.06699 -0.725823,0.222697 -1.209706,0.346011 -0.483884,0.123315 -1.56378,0.482846 -2.399769,0.798957 -1.252224,0.473504 -1.635775,0.534385 -2.177302,0.345607 -0.844947,-0.294551 -0.811625,-0.303396 -0.811625,0.215467 0,0.446983 -0.463342,0.732961 -1.566771,0.967024 -0.879961,0.186662 -1.187956,1.134738 -0.803208,2.472469 0.243834,0.847783 0.393221,1.051958 0.733248,1.002162 0.234863,-0.03439 0.701241,-0.09417 1.036397,-0.132823 0.335155,-0.03866 0.673323,-0.134234 0.751487,-0.212395 0.320024,-0.320027 0.842496,-0.09381 1.80377,0.781004 0.557898,0.507711 1.119461,1.106505 1.247916,1.330651 0.351936,0.6141 1.468612,1.244101 1.96591,1.109113 0.24194,-0.06567 0.712076,-0.257874 1.044746,-0.42711 z"
    id="Cantabria"
    style="fill:#9600ff;fill-opacity:1;stroke:#000000;stroke-width:0.22190399;stroke-miterlimit:4;stroke-opacity:1;stroke-dashoffset:0"
    inkscape:connector-curvature="0"
  />
  <path
    d="m 27.825798,17.146997 c 0.460556,-0.265807 1.13583,-0.705238 1.500611,-0.976517 0.690313,-0.513366 1.845152,-0.641794 2.635961,-0.293138 0.241943,0.106667 1.083239,0.288557 1.86955,0.404195 1.335752,0.196448 1.481847,0.174822 2.224306,-0.329253 0.69772,-0.473699 0.866818,-0.506629 1.386248,-0.269964 0.496539,0.226241 0.696178,0.207773 1.242481,-0.114938 0.35799,-0.211467 0.831552,-0.327149 1.052362,-0.257067 0.23279,0.07388 0.716846,-0.08331 1.152091,-0.374146 1.34111,-0.896137 2.522975,-1.321229 3.237213,-1.164354 0.536159,0.117759 0.690295,0.06485 0.797795,-0.273848 0.1458,-0.459366 0.993733,-0.92646 1.681853,-0.92646 0.251395,0 0.515062,-0.209947 0.621504,-0.49488 0.156007,-0.417602 0.09479,-0.521851 -0.391993,-0.6676 -0.317279,-0.095 -0.955649,-0.117352 -1.418598,-0.04968 -0.687186,0.100453 -0.962871,0.02111 -1.501518,-0.432132 -0.74395,-0.625992 -0.850352,-0.643129 -2.00405,-0.322738 -0.752067,0.208855 -0.913713,0.170435 -1.759573,-0.418218 -0.648358,-0.4512085 -1.306366,-0.6880625 -2.165146,-0.7793575 -0.678543,-0.07214 -1.605807,-0.286624 -2.06058,-0.47664 -0.787179,-0.328907 -0.850455,-0.323321 -1.318505,0.116389 -0.440715,0.41403 -0.598008,0.438038 -1.518375,0.231782 -0.889216,-0.199279 -1.14631,-0.169091 -1.919566,0.225396 -0.836767,0.426887 -0.927176,0.432995 -1.439554,0.09728 -0.426166,-0.279234 -0.615601,-0.301053 -0.859116,-0.09896 -0.185923,0.154302 -0.469366,0.187931 -0.700109,0.08307 -0.332772,-0.151235 -1.456601,-0.250063 -3.796882,-0.333885 -1.145944,-0.04105 -1.425511,0.1143 -1.621083,0.9007665 -0.536918,2.159171 0.06489,3.959043 1.323764,3.959043 0.50986,0 0.745845,0.120594 0.84455,0.431586 0.200968,0.633198 -0.255201,1.327987 -0.871908,1.327987 -0.291031,0 -0.592772,0.102944 -0.670531,0.228763 -0.09151,0.148077 0.05711,0.178944 0.421394,0.08752 0.464146,-0.116491 0.609557,-0.03859 0.829676,0.444524 0.205173,0.450307 0.378654,0.557721 0.750163,0.46448 0.288281,-0.07235 0.593033,0.01096 0.755314,0.206501 0.368698,0.444255 0.704637,0.41335 1.690251,-0.155491 z"
    id="Asturias"
    style="fill:#450000;fill-opacity:0.99607843;stroke:#000000;stroke-width:0.22190399;stroke-miterlimit:4;stroke-opacity:1;stroke-dashoffset:0"
    inkscape:connector-curvature="0"
  />
  <path
    d="m 70.852418,17.162904 c 0.733215,-0.377629 1.470182,-1.112155 1.470182,-1.465309 0,-0.174008 0.251793,-0.626893 0.559538,-1.006406 1.515834,-1.869336 2.037621,-2.733747 1.796022,-2.975344 -0.352242,-0.35224 -0.51092,-0.309141 -1.125858,0.305796 -0.358377,0.358378 -0.796008,0.549866 -1.256674,0.549866 -0.388745,0 -1.31642,0.106159 -2.0615,0.235908 -1.129656,0.196724 -1.415925,0.339573 -1.723316,0.859945 -0.202743,0.343217 -0.306294,0.786463 -0.230111,0.984988 0.08401,0.218943 -0.05368,0.565528 -0.349971,0.88092 -0.759507,0.80846 -0.444594,1.436271 0.722584,1.440541 0.505971,0.0018 1.068416,0.09932 1.249872,0.21658 0.412893,0.266832 0.375686,0.267911 0.949232,-0.02748 z"
    id="Guipuzcoa"
    style="fill:#009600;fill-opacity:1;stroke:#000000;stroke-width:0.22190399;stroke-miterlimit:4;stroke-opacity:1;stroke-dashoffset:0"
    inkscape:connector-curvature="0"
  />
  <path
    d="m 66.176783,15.745445 c 0.157572,-0.189868 0.460998,-0.299579 0.674275,-0.243807 0.491257,0.128467 1.12656,-0.554088 0.948242,-1.018774 -0.07423,-0.19345 0.08944,-0.751026 0.363736,-1.239054 0.274288,-0.488031 0.440534,-0.9455 0.369439,-1.016593 -0.25854,-0.258544 -3.382099,-0.96795 -4.278096,-0.971621 -0.95978,-0.0039 -1.260387,0.331531 -1.274052,1.421787 -0.0072,0.575374 -0.697387,0.692632 -1.231536,0.209236 -0.385908,-0.349246 -0.457717,-0.352593 -0.808435,-0.0377 -0.227391,0.204163 -0.610992,0.301728 -0.937366,0.23841 -0.379394,-0.0736 -0.749849,0.06244 -1.18257,0.434261 -0.992314,0.85267 -0.25825,1.377029 1.07642,0.768914 0.471549,-0.214853 0.684378,-0.194025 1.21393,0.118788 0.59396,0.350863 0.693282,0.352869 1.3239,0.02677 0.762717,-0.394416 1.180925,-0.211326 1.438381,0.629721 0.07998,0.261258 0.244391,0.598735 0.365368,0.749949 0.310764,0.388432 1.596354,0.341819 1.938364,-0.07027 z"
    id="Vizcaya"
    style="fill:#0000ff;fill-opacity:0.99607843;stroke:#000000;stroke-width:0.22190399;stroke-miterlimit:4;stroke-opacity:1;stroke-dashoffset:0"
    inkscape:connector-curvature="0"
  />
  <path
    inkscape:connector-curvature="0"
    d="m 78.805972,121.93757 c -0.0504,-0.0491 -1.053406,-0.3508 -2.228895,-0.67037 -2.181709,-0.5931 -4.229247,-2.02056 -5.863641,-2.4047 -1.153021,-0.271 -3.651672,-1.33334 -3.982692,-2.98316 -0.325746,0.002 -1.750158,1.56297 -2.406413,1.86846 -0.935679,0.43555 -1.391792,0.52565 -2.113418,0.41743 -0.691583,-0.10371 -1.136165,-0.0279 -1.789288,0.30536 -2.045079,1.04333 -4.55627,1.36386 -6.897166,0.88034 -1.202872,-0.24845 -1.279774,-0.23516 -2.432657,0.4204 -0.714073,0.40605 -1.67461,0.73561 -2.400199,0.82353 -1.051204,0.12736 -1.398578,0.0616 -2.651148,-0.50178 -0.792786,-0.35661 -2.250896,-1.15568 -3.240237,-1.77571 -0.98934,-0.62002 -2.695217,-1.48611 -3.790818,-1.92461 -1.825121,-0.7305 -2.088056,-0.91462 -3.138217,-2.19769 -1.555205,-1.90009 -1.994208,-1.97523 -4.522018,-0.77395 -1.050472,0.4992 -2.04446,0.90766 -2.20885,0.90766 -0.788351,0 -2.869801,1.19504 -3.597282,2.06533 -0.642245,0.76834 -3.02509,5.11549 -3.02509,5.51884 0,0.0626 12.685421,0.11395 28.189838,0.11395 15.504417,0 28.148605,-0.0402 28.098191,-0.0893 z"
    id="Ceuta y Melilla"
    style="fill:#ffffff;fill-opacity:1;stroke:#000000;stroke-width:0.22190399;stroke-miterlimit:4;stroke-opacity:1;stroke-dashoffset:0"
    sodipodi:nodetypes="cssccscssccsssssssscc"
  />
  <path
    inkscape:connector-curvature="0"
    style="fill:#ffcc00;fill-opacity:1;stroke:#000000;stroke-width:0.22190399;stroke-miterlimit:4;stroke-opacity:1;stroke-dashoffset:0"
    id="path4139"
    d="m 34.957974,113.01126 c -0.388111,-0.54668 -1.079285,-0.40624 -1.236537,0.004 -0.189266,0.49322 0.712681,1.22947 1.09854,0.84361 0.119232,-0.11568 0.526107,-0.30047 0.137997,-0.84716 z"
    sodipodi:nodetypes="zscz"
  />
  <path
    sodipodi:nodetypes="zscz"
    d="m 68.005864,117.49585 c -0.388111,-0.54668 -1.079285,-0.40624 -1.236537,0.004 -0.189266,0.49322 0.712681,1.22947 1.09854,0.84361 0.119232,-0.11568 0.526107,-0.30047 0.137997,-0.84716 z"
    id="path4141"
    style="fill:#009600;fill-opacity:1;stroke:#000000;stroke-width:0.22190399;stroke-miterlimit:4;stroke-opacity:1;stroke-dashoffset:0"
    inkscape:connector-curvature="0"
  />
</svg>
