<?xml version="1.0" encoding="UTF-8" standalone="no"?>
<svg
   xmlns:svg="http://www.w3.org/2000/svg"
   xmlns="http://www.w3.org/2000/svg"
   xmlns:sodipodi="http://sodipodi.sourceforge.net/DTD/sodipodi-0.dtd"
   xmlns:inkscape="http://www.inkscape.org/namespaces/inkscape"
   version="1.0"
   width="120"
   height="120"
   id="svg4515"
   sodipodi:docname="icon.svg"
   inkscape:version="1.1-dev (1:1.0+devel+202007152027+7044d6c)">
  <sodipodi:namedview
     width="559px"
     pagecolor="#ffffff"
     bordercolor="#666666"
     borderopacity="1"
     objecttolerance="10"
     gridtolerance="10"
     guidetolerance="10"
     inkscape:pageopacity="0"
     inkscape:pageshadow="2"
     inkscape:window-width="1696"
     inkscape:window-height="929"
     id="namedview58"
     showgrid="false"
     units="px"
     inkscape:showpageshadow="false"
     inkscape:zoom="4.021692"
     inkscape:cx="88.022653"
     inkscape:cy="66.141316"
     inkscape:window-x="2296"
     inkscape:window-y="70"
     inkscape:window-maximized="0"
     inkscape:current-layer="svg4515" />
  <defs
     id="defs4517" />
  <rect
     width="132.7166"
     height="128.85829"
     x="-4.5294113"
     y="-5.3754997"
     style="color:#000000;display:inline;overflow:visible;visibility:visible;fill:#1c146b;fill-opacity:1;fill-rule:nonzero;stroke:none;stroke-width:12.4471;stroke-linecap:butt;stroke-linejoin:miter;stroke-miterlimit:4;stroke-dasharray:none;stroke-dashoffset:0;stroke-opacity:1;marker:none;marker-start:none;marker-mid:none;marker-end:none;enable-background:accumulate"
     id="rect4513" />
  <g
     id="g219"
     transform="matrix(0.27733645,0,0,0.27733645,-4.4308128,34.613124)">
    <path
       d="M 343.22953,113.23884 355.49131,50.420423 H 334.20266 L 317.9666,134.28102 h 38.84948 l 4.00509,-21.04218 z"
       style="fill:#ffffff;fill-rule:evenodd;stroke:none;stroke-width:0.532392;stroke-linecap:butt;stroke-linejoin:miter;stroke-miterlimit:10;stroke-dasharray:none"
       id="path4402" />
    <path
       d="m 406.07879,69.059537 c 3.45054,0 8.50311,0.770194 11.42994,1.848509 l 3.7278,-19.440142 c -4.52883,-0.52374 -9.30414,-1.047481 -14.634,-1.047481 -23.16797,0 -34.07416,13.832996 -34.07416,29.268022 0,20.241145 20.76491,19.963882 20.76491,28.744285 0,4.28237 -3.20409,6.65462 -9.58143,6.65462 -4.80612,0 -10.9062,-1.04748 -14.63402,-2.64953 l -4.00509,20.76491 c 4.25156,1.07829 10.38245,1.60203 16.51331,1.60203 20.76491,0 35.12165,-13.86381 35.12165,-30.6236 0,-19.686597 -20.76491,-19.963884 -20.76491,-28.744283 0,-3.727828 2.68034,-6.37734 10.136,-6.37734"
       style="fill:#ffffff;fill-rule:evenodd;stroke:none;stroke-width:0.532392;stroke-linecap:butt;stroke-linejoin:miter;stroke-miterlimit:10;stroke-dasharray:none"
       id="path4404" />
    <path
       d="m 301.176,50.420423 c -31.94837,0 -52.44213,23.938163 -52.44213,53.236997 0,18.08456 9.58451,30.87007 34.0803,30.87007 9.58143,0 19.6866,-1.8485 27.94326,-5.32985 l 7.73291,-40.451509 h -21.31943 l -4.77531,24.739189 c -1.87932,0.55455 -4.00509,0.55455 -5.8536,0.55455 -10.65974,0 -14.38754,-5.8536 -14.38754,-13.83299 0,-14.387548 8.78039,-29.576122 27.17303,-29.576122 5.0526,0 10.62893,1.078291 15.6815,2.40306 0.55455,0.277287 1.07829,0.52374 1.60206,0.52374 1.60203,0.801028 3.20406,1.355578 4.28235,1.879319 l 4.49805,-21.843201 C 317.9666,51.745192 309.15539,50.420423 301.176,50.420423"
       style="fill:#ffffff;fill-rule:evenodd;stroke:none;stroke-width:0.532392;stroke-linecap:butt;stroke-linejoin:miter;stroke-miterlimit:10;stroke-dasharray:none"
       id="path4406" />
    <path
       d="m 140.45448,50.574447 -5.7396,27.850849 H 174.3099 C 141.50505,127.04103 76.385238,118.78437 59.163322,98.635631 44.338278,81.259666 57.145359,51.560334 101.09362,33.198483 57.588994,46.446118 33.173306,81.198047 47.520799,104.61247 c 16.260702,26.52608 66.965231,37.58632 112.025681,24.70838 30.11526,-10.56729 42.96855,-25.41695 47.66376,-33.396351 l -7.37555,38.541381 h 29.60076 l 16.05736,-83.891433 z"
       style="fill:#eaaf0f;fill-rule:evenodd;stroke:none;stroke-width:0.532392;stroke-linecap:butt;stroke-linejoin:miter;stroke-miterlimit:10;stroke-dasharray:none"
       id="path4408" />
  </g>
  <path
     style="fill:#ffffff;stroke-width:0.0274346"
     d="m 40.116762,93.954129 c 0,-4.511588 0.0032,-6.353148 0.007,-4.092364 0.0039,2.260784 0.0039,5.952081 0,8.202882 -0.0039,2.250803 -0.007,0.401065 -0.007,-4.110518 z m 15.143963,7.831331 c -2.186416,-0.13126 -3.822677,-1.02193 -4.553116,-2.478415 -0.07655,-0.152654 -0.153348,-0.317741 -0.170643,-0.366861 l -0.03145,-0.0893 -2.572964,0.007 -2.572971,0.007 -0.638649,1.316856 -0.638649,1.31684 -1.964444,0.007 c -1.083047,0.004 -1.96031,-0.004 -1.955236,-0.0165 0.03268,-0.0835 5.710912,-11.389641 5.717057,-11.383496 0.0042,0.0042 -0.006,0.112598 -0.02259,0.240848 -0.01666,0.128252 -0.03013,0.609724 -0.02995,1.069937 1.95e-4,0.71295 0.009,0.894227 0.05879,1.225273 0.124304,0.826036 0.333882,1.437486 0.645483,1.88321 l 0.111357,0.159289 -0.532909,0.533427 -0.532899,0.53343 h 1.899567 1.899565 v -1.954117 -1.954116 l -0.564681,0.582393 c -0.310578,0.32032 -0.575201,0.582396 -0.588054,0.582396 -0.03521,0 -0.406332,-0.502177 -0.588782,-0.79669 C 47.409044,91.84683 47.177759,91.35466 47.035585,90.93626 46.793253,90.223102 46.705499,89.690582 46.703293,88.919832 l -0.0014,-0.534972 0.363339,-0.720152 0.363336,-0.720153 h 1.916108 1.916112 l 0.113485,0.390937 c 0.165838,0.571283 0.278866,1.099515 0.278948,1.303684 2.3e-5,0.05105 -0.05151,0.192902 -0.119597,0.329213 -0.146891,0.294065 -0.323709,0.811128 -0.406994,1.190157 -0.05273,0.239966 -0.06238,0.364548 -0.0624,0.805147 -2.1e-5,0.483731 0.0054,0.540651 0.0749,0.790708 0.110081,0.395899 0.310114,0.77266 0.511569,0.963542 l 0.08523,0.08075 -0.06831,-0.195519 c -0.14665,-0.419747 -0.210073,-1.084902 -0.153705,-1.612051 0.111545,-1.043241 0.479604,-1.89922 1.147091,-2.667753 0.166024,-0.191153 0.603218,-0.552944 0.897705,-0.742879 0.755457,-0.487236 1.767211,-0.806602 2.977869,-0.939976 0.452644,-0.04986 1.69339,-0.04311 2.19018,0.01193 2.071065,0.229422 3.576008,1.100951 4.276506,2.476572 0.181961,0.357324 0.275433,0.598957 0.336842,0.870722 0.02774,0.122776 0.05148,0.208354 0.05276,0.190174 0.0011,-0.0182 0.07021,-0.751325 0.153201,-1.629206 0.08299,-0.877883 0.150888,-1.606823 0.150888,-1.619867 0,-0.01317 1.236127,-0.0237 2.781276,-0.0237 h 2.781279 l 0.02721,0.185178 c 0.01496,0.101852 0.315771,2.294197 0.668445,4.871879 0.543874,3.975161 0.646057,4.674893 0.673075,4.608977 0.01751,-0.04274 0.850912,-2.234885 1.851977,-4.871421 l 1.82012,-4.793703 2.791452,-6.9e-4 c 2.790602,-6.89e-4 2.791448,-1.95e-4 2.791448,0.05545 0,0.07093 -1.919907,14.32836 -1.930947,14.3394 -0.0045,0.005 -0.741636,0.005 -1.638078,0.001 l -1.629891,-0.007 0.623225,-5.48688 c 0.342771,-3.017785 0.620511,-5.504827 0.617192,-5.526761 -0.0033,-0.02192 -1.049167,2.487023 -2.32411,5.57547 l -2.318071,5.615361 -1.358599,6.8e-4 -1.358602,6.9e-4 -0.918452,-5.530634 -0.918455,-5.530626 -0.736581,5.482616 c -0.405116,3.015441 -0.742868,5.510404 -0.750557,5.544354 l -0.01397,0.0617 h -1.752141 -1.752142 l 0.01436,-0.0754 c 0.0079,-0.0415 0.08629,-0.4991 0.174199,-1.01691 l 0.159838,-0.941468 -0.07201,0.0658 c -0.593073,0.541938 -0.927755,0.811808 -1.345905,1.085298 -0.922833,0.60355 -2.002908,0.97355 -3.26649,1.11901 -0.42995,0.0495 -1.582832,0.0695 -2.126164,0.0369 z m 2.091862,-2.838602 c 0.721276,-0.136824 1.444062,-0.601056 1.701032,-1.092538 0.0673,-0.12871 0.07414,-0.16943 0.07471,-0.444785 6.9e-4,-0.296592 -0.0018,-0.307676 -0.104336,-0.515606 -0.07773,-0.157352 -0.163173,-0.271616 -0.329213,-0.440283 -0.461643,-0.468941 -0.902835,-0.682031 -1.595958,-0.770828 -0.46549,-0.05964 -0.882312,-0.136529 -1.289414,-0.237858 -1.306673,-0.325239 -2.171453,-0.722565 -2.512937,-1.154577 l -0.112109,-0.141827 0.0191,0.135978 c 0.106742,0.760384 0.306269,1.653786 0.505215,2.262145 0.06168,0.188609 0.207193,0.533067 0.323362,0.765458 0.183436,0.366955 0.238883,0.451751 0.42157,0.644708 0.500982,0.529152 1.199641,0.887823 1.97308,1.012926 0.176825,0.02861 0.725976,0.01498 0.9259,-0.02291 z m 5.458179,-1.090187 c 0.348387,-0.445633 0.526285,-0.916391 0.613527,-1.623526 0.03889,-0.315197 0.02064,-0.830602 -0.04331,-1.222791 -0.05127,-0.314467 -0.223824,-0.983463 -0.348978,-1.353006 l -0.09122,-0.269345 0.143869,-1.102374 c 0.07913,-0.606307 0.144297,-1.130161 0.144819,-1.164128 l 6.89e-4,-0.06175 -1.598054,0.01416 c -0.878929,0.0078 -1.724596,0.02002 -1.879255,0.02719 l -0.281203,0.01303 v -0.149279 c 0,-0.518355 -0.300092,-0.995387 -0.791423,-1.258052 -0.258438,-0.138166 -0.732603,-0.256683 -1.163298,-0.290774 -0.386139,-0.03056 -0.982541,6.89e-4 -1.251974,0.06615 -0.421168,0.101912 -0.892701,0.44776 -1.073839,0.78761 -0.115987,0.217615 -0.143265,0.512188 -0.06862,0.741039 0.159448,0.488849 0.752536,0.952328 1.611183,1.259075 0.39822,0.142263 0.591825,0.189248 1.692946,0.410857 1.398509,0.281462 2.004473,0.464972 2.632742,0.797303 0.92972,0.491781 1.429396,1.039146 1.699316,1.861496 0.199954,0.609195 0.196572,1.553611 -0.0084,2.341881 -0.03585,0.137867 -0.07349,0.272272 -0.08365,0.298677 -0.03303,0.08584 0.0073,0.05123 0.143869,-0.123454 z"
     id="path233" />
</svg>
