<?xml version="1.0" encoding="UTF-8" standalone="no"?>
<!-- Created with Inkscape (http://www.inkscape.org/) -->
<svg xmlns:dc="http://purl.org/dc/elements/1.1/" xmlns:cc="http://creativecommons.org/ns#" xmlns:rdf="http://www.w3.org/1999/02/22-rdf-syntax-ns#" xmlns:svg="http://www.w3.org/2000/svg" xmlns="http://www.w3.org/2000/svg" xmlns:xlink="http://www.w3.org/1999/xlink" xmlns:sodipodi="http://sodipodi.sourceforge.net/DTD/sodipodi-0.dtd" xmlns:inkscape="http://www.inkscape.org/namespaces/inkscape" width="48" height="48" id="svg2" version="1.1" inkscape:version="0.48.0 r9654" sodipodi:docname="New document 1">
  <defs id="defs4">
    <linearGradient inkscape:collect="always" id="linearGradient3032">
      <stop style="stop-color:#800000;stop-opacity:1;" offset="0" id="stop3034"/>
      <stop style="stop-color:#ff0000;stop-opacity:1" offset="1" id="stop3036"/>
    </linearGradient>
    <linearGradient id="linearGradient3026" inkscape:collect="always">
      <stop id="stop3028" offset="0" style="stop-color:#ececec;stop-opacity:1"/>
      <stop id="stop3030" offset="1" style="stop-color:#ececec;stop-opacity:1"/>
    </linearGradient>
    <linearGradient inkscape:collect="always" id="linearGradient3016">
      <stop style="stop-color:#cccccc;stop-opacity:1;" offset="0" id="stop3018"/>
      <stop style="stop-color:#ececec;stop-opacity:1" offset="1" id="stop3020"/>
    </linearGradient>
    <linearGradient inkscape:collect="always" xlink:href="#linearGradient3016" id="linearGradient3022" x1="131" y1="131.36218" x2="131" y2="116.36218" gradientUnits="userSpaceOnUse" gradientTransform="matrix(0.95285955,0,0,0.95285955,-92.360098,923.91674)"/>
    <linearGradient inkscape:collect="always" xlink:href="#linearGradient3026" id="linearGradient3024" x1="131" y1="130.36218" x2="131" y2="85.362183" gradientUnits="userSpaceOnUse" gradientTransform="matrix(0.95285955,0,0,0.95285955,-92.360098,923.91674)"/>
    <linearGradient inkscape:collect="always" xlink:href="#linearGradient3032" id="linearGradient3038" x1="131" y1="113.36218" x2="131" y2="83.362183" gradientUnits="userSpaceOnUse" gradientTransform="matrix(0.95285955,0,0,0.95285955,-92.360098,923.91674)"/>
  </defs>
  <sodipodi:namedview id="base" pagecolor="#ffffff" bordercolor="#666666" borderopacity="1.0" inkscape:pageopacity="0.0" inkscape:pageshadow="2" inkscape:zoom="1" inkscape:cx="16.540114" inkscape:cy="41.365388" inkscape:document-units="px" inkscape:current-layer="layer1" showgrid="false" inkscape:window-width="1280" inkscape:window-height="968" inkscape:window-x="-4" inkscape:window-y="-4" inkscape:window-maximized="1">
    <inkscape:grid type="xygrid" id="grid2985" empspacing="5" visible="true" enabled="true" snapvisiblegridlinesonly="true"/>
  </sodipodi:namedview>
  <g inkscape:label="Layer 1" inkscape:groupmode="layer" id="layer1" transform="translate(0,-1004.3622)">
    <path style="fill:url(#linearGradient3024);fill-opacity:1;stroke:none" d="m 2.9258568,1007.1729 0,42.8787 28.5857862,0 14.292894,-14.2929 0,-28.5858 -42.8786802,0 z" id="path2987" inkscape:connector-curvature="0"/>
    <rect style="fill:url(#linearGradient3038);fill-opacity:1;fill-rule:evenodd;stroke:none" id="rect2994" width="42.878681" height="10.481455" x="2.9258568" y="1007.1606"/>
    <path style="font-size:25.01973534px;font-style:normal;font-variant:normal;font-weight:normal;font-stretch:normal;text-align:start;line-height:125%;letter-spacing:0px;word-spacing:0px;writing-mode:lr-tb;text-anchor:start;fill:#b3b3b3;fill-opacity:1;stroke:none;font-family:Kabel;-inkscape-font-specification:Kabel" d="m 37.347908,1021.8528 -9.76681,5.9852 1.756835,3.0373 3.037239,-1.5484 0,13.4591 4.972736,-0.4169 0,-20.5163 z m -19.593174,0.7742 c -1.796569,0 -3.355686,0.4606 -4.674967,1.3996 -0.446234,0.3026 -0.884626,0.6983 -1.280405,1.1911 -0.39579,0.4928 -0.633176,0.8508 -0.714645,1.0719 l 3.483893,2.3524 c 0.174611,-0.4928 0.557241,-0.9027 1.13152,-1.2208 0.554869,-0.3027 1.141135,-0.4467 1.727058,-0.4467 0.636358,0 1.147462,0.1713 1.578174,0.5359 0.430702,0.3648 0.655081,0.8538 0.655091,1.4592 -10e-6,0.745 -0.317769,1.2482 -0.923083,1.4888 -0.620855,0.2522 -1.345952,0.3573 -2.203488,0.3573 -0.221177,-0.015 -0.420925,-0.014 -0.595537,-0.03 -0.178489,0 -0.309536,0 -0.387099,0 l 0,3.6328 c 0.0776,-0.015 0.199491,-0.044 0.327545,-0.059 0.128036,0 0.365413,0 0.714645,0 1.001103,0 1.792338,0.079 2.382149,0.2382 0.333691,0.1086 0.59831,0.3356 0.803975,0.6848 0.190096,0.3492 0.267982,0.7592 0.267992,1.2209 -10e-6,0.6208 -0.221864,1.1241 -0.714645,1.4889 -0.508331,0.3647 -1.090709,0.5748 -1.727058,0.6252 -0.523844,-0.035 -1.106222,-0.1931 -1.727058,-0.4764 -0.442355,-0.2095 -0.813351,-0.4754 -1.13152,-0.7742 -0.318189,-0.3026 -0.527046,-0.54 -0.655091,-0.7146 l -3.335009,3.1266 c 0.919615,1.0515 1.989743,1.8285 3.215901,2.3523 1.206759,0.5239 2.533644,0.7742 3.930546,0.7742 2.258296,0 3.974396,-0.5007 5.181174,-1.5484 0.333682,-0.2871 0.678703,-0.6575 1.012413,-1.1017 0.333691,-0.4443 0.608687,-0.9599 0.833752,-1.5187 0.205637,-0.5548 0.297759,-1.1645 0.297769,-1.8163 -1e-5,-0.9235 -0.236119,-1.8199 -0.744422,-2.7395 -0.508322,-0.9235 -1.155571,-1.585 -1.935496,-1.9652 0.03103,-0.015 0.203531,-0.1751 0.506207,-0.4467 0.287125,-0.2678 0.546608,-0.6491 0.833752,-1.1613 0.267725,-0.4889 0.46874,-1.0843 0.56576,-1.7866 0.03106,-0.2367 0.02977,-0.4741 0.02978,-0.7147 -9e-6,-0.9196 -0.236118,-1.7666 -0.744421,-2.531 -0.65189,-0.9352 -1.537792,-1.646 -2.620364,-2.1737 -1.094245,-0.5083 -2.204603,-0.7742 -3.364785,-0.7742 z" id="path3001" inkscape:connector-curvature="0"/>
    <path style="fill:url(#linearGradient3022);fill-opacity:1;stroke:#666666;stroke-width:0.99999994px;stroke-linecap:butt;stroke-linejoin:round;stroke-opacity:1" d="m 31.511644,1050.0516 14.292893,-14.2929 -14.292893,0 0,14.2929 z" id="path2992" inkscape:connector-curvature="0"/>
    <path id="path3040" d="m 2.9258568,1007.1729 0,42.8787 28.5857872,0 14.292893,-14.2929 0,-28.5858 -42.8786802,0 z" style="fill:none;stroke:#666666;stroke-width:0.99999994px;stroke-linecap:butt;stroke-linejoin:miter;stroke-opacity:1" inkscape:connector-curvature="0"/>
  </g>
  <metadata>
    <rdf:RDF>
      <cc:Work>
        <dc:format>image/svg+xml</dc:format>
        <dc:type rdf:resource="http://purl.org/dc/dcmitype/StillImage"/>
        <cc:license rdf:resource="http://creativecommons.org/licenses/publicdomain/"/>
        <dc:publisher>
          <cc:Agent rdf:about="http://openclipart.org/">
            <dc:title>Open Clip Art Library</dc:title>
          </cc:Agent>
        </dc:publisher>
        <dc:title>Calendar file icon</dc:title>
        <dc:date>2010-10-01T11:04:06</dc:date>
        <dc:description>Calendar File Icon</dc:description>
        <dc:source>http://openclipart.org/detail/88009/calendar-file-icon-by-jhnri4</dc:source>
        <dc:creator>
          <cc:Agent>
            <dc:title>jhnri4</dc:title>
          </cc:Agent>
        </dc:creator>
        <dc:subject>
          <rdf:Bag>
            <rdf:li>31</rdf:li>
            <rdf:li>calendar</rdf:li>
            <rdf:li>clip art</rdf:li>
            <rdf:li>clipart</rdf:li>
            <rdf:li>date</rdf:li>
            <rdf:li>file</rdf:li>
            <rdf:li>media</rdf:li>
            <rdf:li>numbers</rdf:li>
            <rdf:li>png</rdf:li>
            <rdf:li>red</rdf:li>
            <rdf:li>svg</rdf:li>
          </rdf:Bag>
        </dc:subject>
      </cc:Work>
      <cc:License rdf:about="http://creativecommons.org/licenses/publicdomain/">
        <cc:permits rdf:resource="http://creativecommons.org/ns#Reproduction"/>
        <cc:permits rdf:resource="http://creativecommons.org/ns#Distribution"/>
        <cc:permits rdf:resource="http://creativecommons.org/ns#DerivativeWorks"/>
      </cc:License>
    </rdf:RDF>
  </metadata>
</svg>