<?xml version="1.0" encoding="UTF-8" standalone="no"?>
<!-- Created with Inkscape (http://www.inkscape.org/) -->

<svg
   xmlns:dc="http://purl.org/dc/elements/1.1/"
   xmlns:cc="http://creativecommons.org/ns#"
   xmlns:rdf="http://www.w3.org/1999/02/22-rdf-syntax-ns#"
   xmlns:svg="http://www.w3.org/2000/svg"
   xmlns="http://www.w3.org/2000/svg"
   xmlns:sodipodi="http://sodipodi.sourceforge.net/DTD/sodipodi-0.dtd"
   xmlns:inkscape="http://www.inkscape.org/namespaces/inkscape"
   height="128"
   id="svg1"
   inkscape:export-filename="icon.png"
   inkscape:export-xdpi="90"
   inkscape:export-ydpi="90"
   inkscape:version="0.48.4 r9939"
   sodipodi:docname="icon.svg"
   sodipodi:version="0.32"
   width="128"
   version="1.1">
  <metadata
     id="metadata3">
    <rdf:RDF>
      <cc:Work
         rdf:about="">
        <dc:title>spain_provinces</dc:title>
        <dc:description />
        <dc:subject>
          <rdf:Bag>
            <rdf:li>spain</rdf:li>
            <rdf:li>geography</rdf:li>
          </rdf:Bag>
        </dc:subject>
        <dc:publisher>
          <cc:Agent
             rdf:about="http://www.openclipart.org">
            <dc:title>sherrera</dc:title>
          </cc:Agent>
        </dc:publisher>
        <dc:creator>
          <cc:Agent>
            <dc:title>sherrera</dc:title>
          </cc:Agent>
        </dc:creator>
        <dc:rights>
          <cc:Agent>
            <dc:title>sherrera</dc:title>
          </cc:Agent>
        </dc:rights>
        <dc:date />
        <dc:format>image/svg+xml</dc:format>
        <dc:type
           rdf:resource="http://purl.org/dc/dcmitype/StillImage" />
        <cc:license
           rdf:resource="http://web.resource.org/cc/PublicDomain" />
        <dc:language>en</dc:language>
      </cc:Work>
      <cc:License
         rdf:about="http://web.resource.org/cc/PublicDomain">
        <cc:permits
           rdf:resource="http://web.resource.org/cc/Reproduction" />
        <cc:permits
           rdf:resource="http://web.resource.org/cc/Distribution" />
        <cc:permits
           rdf:resource="http://web.resource.org/cc/DerivativeWorks" />
      </cc:License>
    </rdf:RDF>
  </metadata>
  <defs
     id="defs3" />
  <sodipodi:namedview
     bordercolor="#666666"
     borderopacity="1.0"
     id="base"
     inkscape:current-layer="svg1"
     inkscape:cx="52.620802"
     inkscape:cy="47.628061"
     inkscape:pageopacity="0.0"
     inkscape:pageshadow="2"
     inkscape:window-height="1176"
     inkscape:window-width="1861"
     inkscape:window-x="59"
     inkscape:window-y="24"
     inkscape:zoom="3.6235294"
     pagecolor="#ffffff"
     showgrid="false"
     inkscape:window-maximized="1"
     fit-margin-top="0"
     fit-margin-left="0"
     fit-margin-right="0"
     fit-margin-bottom="0" />
  <g
     id="layer1"
     inkscape:groupmode="layer"
     inkscape:label="Layer 1"
     transform="translate(-14.567953,-599.45664)" />
  <g
     id="layer1-9"
     inkscape:label="Layer 1"
     transform="translate(1400.7975,748.89372)" />
  <path
     style="fill:#015f2d"
     d="M 0.6788306,66.922259 C 5.3078975,56.177513 22.745306,15.805061 23.477272,14.137528 l 0.970595,-2.211169 6.373007,0.08829 c 4.127513,0.05719 6.449421,0.164701 6.589878,0.305158 0.274057,0.274057 1.025013,-1.533275 -12.465917,30.001848 l -11.198371,26.176264 -6.8732298,0 -6.8732320232942,0 L 0.6788306,66.922259 z M 42.834019,57.061685 42.781502,45.625453 35.767279,45.511875 c -3.85782,-0.06246 -7.037093,-0.131083 -7.065048,-0.152482 -0.02796,-0.0214 -0.05082,-0.136872 -0.05082,-0.256607 0,-0.285615 4.020337,-9.711356 4.393186,-10.299892 0.282176,-0.445406 0.373855,-0.454703 5.012173,-0.508276 l 4.724741,-0.05456 0.05256,-11.131265 0.05256,-11.131263 18.579449,0 c 16.754475,0 18.59157,0.03158 18.702855,0.321595 0.06787,0.176875 0.123408,2.502383 0.123408,5.167794 0,2.66541 -0.05553,4.990918 -0.123408,5.167795 -0.110665,0.288392 -1.417308,0.321917 -12.656096,0.324707 -6.892977,0.0016 -12.648576,0.07668 -12.790217,0.166578 -0.199654,0.12673 -0.245344,1.393916 -0.203311,5.638761 l 0.05422,5.475298 12.695886,0.05238 c 9.846774,0.04062 12.731884,0.109066 12.856293,0.304966 0.2094,0.32973 0.2094,10.340981 0,10.67071 -0.124409,0.195901 -3.009519,0.264338 -12.856293,0.304968 l -12.695886,0.05238 0,5.794358 0,5.794357 12.695886,0.05238 c 9.84466,0.04061 12.732637,0.109105 12.859529,0.304965 0.09,0.138922 0.158008,2.654194 0.151126,5.589494 l -0.01252,5.336907 -18.690507,0 -18.690506,0 -0.05252,-11.436231 z m 42.13447,5.846725 0,-5.589508 12.656096,-0.05237 12.656105,-0.05237 0,-5.794358 0,-5.794358 -12.60528,-0.10165 -12.605267,-0.10165 -0.05409,-5.538677 -0.0541,-5.53868 12.659357,-0.05237 12.65937,-0.05237 0.0541,-5.540218 c 0.0297,-3.04712 0.0297,-5.561383 0,-5.587253 -0.0297,-0.02587 -5.8637,-0.09449 -12.964332,-0.152483 l -12.910227,-0.105435 -0.05414,-5.56539 -0.05414,-5.565388 14.184239,0.111887 c 8.74753,0.069 14.80766,0.199351 15.81072,0.340076 1.3103,0.183831 2.07187,0.453521 3.91754,1.38729 3.17342,1.605498 5.13692,3.100576 6.49225,4.943418 1.91255,2.600451 2.73344,4.537589 3.13287,7.392894 0.39574,2.828888 -0.41856,6.564089 -1.95448,8.965119 -0.81424,1.272859 -3.44577,4.089749 -4.47641,4.791701 -0.38745,0.263895 -0.68227,0.546219 -0.65514,0.627384 0.0272,0.08117 0.77778,0.752839 1.66812,1.492614 0.89034,0.739776 1.88811,1.725501 2.21728,2.190503 0.32916,0.465004 0.85624,1.180135 1.17128,1.589186 0.75798,0.984143 1.11984,2.017167 1.7336,4.948974 0.57632,2.752933 0.54679,4.253167 -0.13624,6.923803 -0.5854,2.288884 -1.63822,4.107331 -3.55485,6.139955 -1.86054,1.973151 -4.13896,3.484131 -6.27841,4.163672 -1.67187,0.53102 -7.86576,0.744686 -21.931163,0.75654 l -10.724647,0.0091 0,-5.589506 z"
     id="path2996"
     inkscape:connector-curvature="0" />
  <path
     style="font-size:45.37296295px;font-style:normal;font-weight:bold;text-align:center;line-height:125%;letter-spacing:0px;word-spacing:0px;text-anchor:middle;fill:#000000;fill-opacity:1;stroke:none;font-family:Sans;-inkscape-font-specification:Sans Bold"
     d="M 97.0625 81.96875 C 95.467344 81.968784 93.841712 82.076216 92.1875 82.3125 C 90.53327 82.548851 88.871256 82.902398 87.1875 83.375 L 87.1875 89.625 C 88.575859 89.019463 89.971857 88.560194 91.375 88.25 C 92.778125 87.939861 94.157643 87.781277 95.53125 87.78125 C 97.392236 87.781277 98.824615 88.118344 99.84375 88.8125 C 100.86286 89.506709 101.37498 90.511068 101.375 91.78125 C 101.37498 93.154868 100.86114 94.164359 99.8125 94.84375 C 98.763825 95.508413 97.172863 95.84377 95.03125 95.84375 L 91.4375 95.84375 L 91.4375 101.34375 L 94.84375 101.34375 C 97.25122 101.34377 99.055336 101.74846 100.28125 102.53125 C 101.5219 103.29929 102.15623 104.43099 102.15625 105.9375 C 102.15623 107.39972 101.55486 108.5297 100.34375 109.3125 C 99.147375 110.0953 97.416021 110.46875 95.15625 110.46875 C 93.634945 110.46875 92.080364 110.27379 90.5 109.875 C 88.93439 109.46145 87.345138 108.86008 85.75 108.0625 L 85.75 114.625 C 87.418987 115.17149 89.113962 115.57789 90.8125 115.84375 C 92.525793 116.12437 94.238956 116.28125 95.9375 116.28125 C 100.75245 116.28125 104.39535 115.41728 106.90625 113.71875 C 109.41709 112.00545 110.68747 109.52891 110.6875 106.25 C 110.68747 104.0493 110.10429 102.23042 108.9375 100.8125 C 107.78543 99.379841 106.07397 98.388542 103.84375 97.8125 C 105.83765 97.310344 107.35586 96.444666 108.375 95.21875 C 109.39409 93.978104 109.90622 92.372373 109.90625 90.4375 C 109.90622 87.601718 108.8291 85.496915 106.6875 84.09375 C 104.56062 82.675877 101.36051 81.968784 97.0625 81.96875 z M 17.3125 82.5625 L 17.3125 115.625 L 25.40625 115.625 L 25.40625 92.9375 L 37.4375 115.625 L 46.96875 115.625 L 46.96875 82.5625 L 38.875 82.5625 L 38.875 105.25 L 26.84375 82.5625 L 17.3125 82.5625 z M 66.46875 82.5625 L 53.21875 102.28125 L 53.21875 109.59375 L 67.875 109.59375 L 67.875 115.625 L 75.9375 115.625 L 75.9375 109.59375 L 80.65625 109.59375 L 80.65625 103.4375 L 75.9375 103.4375 L 75.9375 82.5625 L 66.46875 82.5625 z M 67.875 89.59375 L 67.875 103.4375 L 58.53125 103.4375 L 67.875 89.59375 z "
     id="path3058" />
</svg>
