<?xml version="1.0" encoding="UTF-8" standalone="no"?>
<svg
   xmlns:dc="http://purl.org/dc/elements/1.1/"
   xmlns:cc="http://creativecommons.org/ns#"
   xmlns:rdf="http://www.w3.org/1999/02/22-rdf-syntax-ns#"
   xmlns:svg="http://www.w3.org/2000/svg"
   xmlns="http://www.w3.org/2000/svg"
   xmlns:sodipodi="http://sodipodi.sourceforge.net/DTD/sodipodi-0.dtd"
   xmlns:inkscape="http://www.inkscape.org/namespaces/inkscape"
   enable-background="new 0 0 100 100"
   height="100px"
   id="Layer_1"
   version="1.1"
   viewBox="0 0 100 100"
   width="100px"
   xml:space="preserve"
   inkscape:version="0.91 r13725"
   sodipodi:docname="icon_src.svg"
   inkscape:export-filename="icon.png"
   inkscape:export-xdpi="115.2"
   inkscape:export-ydpi="115.2"><metadata
     id="metadata9"><rdf:RDF><cc:Work
         rdf:about=""><dc:format>image/svg+xml</dc:format><dc:type
           rdf:resource="http://purl.org/dc/dcmitype/StillImage" /><dc:title /></cc:Work></rdf:RDF></metadata><defs
     id="defs7" /><sodipodi:namedview
     pagecolor="#ffffff"
     bordercolor="#666666"
     borderopacity="1"
     objecttolerance="10"
     gridtolerance="10"
     guidetolerance="10"
     inkscape:pageopacity="0"
     inkscape:pageshadow="2"
     inkscape:window-width="1920"
     inkscape:window-height="1004"
     id="namedview5"
     showgrid="false"
     inkscape:zoom="4.1082904"
     inkscape:cx="3.244486"
     inkscape:cy="75.701328"
     inkscape:window-x="-6"
     inkscape:window-y="0"
     inkscape:window-maximized="1"
     inkscape:current-layer="Layer_1" /><path
     d="M79.043,31.615l-5.742,5.742V13h-58v74h58V48.67l11.398-11.399L79.043,31.615z M71.301,39.357L50.758,59.898l-1.414,4.242  l-1.414,4.244l8.486-2.828L71.301,50.67V85h-54V15h54V39.357z M54.564,65.119l-3.182,1.06l-1.248-1.248l1.061-3.182l3.1,3.099  L54.564,65.119z"
     id="path3" /><text
     xml:space="preserve"
     style="font-style:normal;font-variant:normal;font-weight:bold;font-stretch:normal;font-size:37.90610123px;line-height:125%;font-family:'Liberation Sans';-inkscape-font-specification:'Liberation Sans Bold';letter-spacing:0px;word-spacing:0px;fill:#000000;fill-opacity:1;stroke:none"
     x="18.012672"
     y="17.773424"
     id="text2986"
     sodipodi:linespacing="125%"><tspan
       sodipodi:role="line"
       x="18.012672"
       y="17.773424"
       style="font-style:normal;font-variant:normal;font-weight:bold;font-stretch:normal;font-size:2.8429575px;font-family:'Liberation Sans';-inkscape-font-specification:'Liberation Sans Bold'"
       id="tspan3520">08/12/13    1000.00    Delta PC</tspan><tspan
       sodipodi:role="line"
       x="18.012672"
       y="21.523424"
       style="font-style:normal;font-variant:normal;font-weight:bold;font-stretch:normal;font-size:2.8429575px;font-family:'Liberation Sans';-inkscape-font-specification:'Liberation Sans Bold'"
       id="tspan3731">08/15/13    75.46        Walts Drugs</tspan><tspan
       sodipodi:role="line"
       x="18.012672"
       y="25.273424"
       style="font-style:normal;font-variant:normal;font-weight:bold;font-stretch:normal;font-size:2.8429575px;font-family:'Liberation Sans';-inkscape-font-specification:'Liberation Sans Bold'"
       id="tspan3733">03/03/13    379.00      Epic Technologies</tspan><tspan
       sodipodi:role="line"
       x="18.012672"
       y="29.023424"
       style="font-style:normal;font-variant:normal;font-weight:bold;font-stretch:normal;font-size:2.8429575px;font-family:'Liberation Sans';-inkscape-font-specification:'Liberation Sans Bold'"
       id="tspan3735">03/04/13    20.28        YOUR LOCAL SU</tspan><tspan
       sodipodi:role="line"
       x="18.012672"
       y="32.773422"
       style="font-style:normal;font-variant:normal;font-weight:bold;font-stretch:normal;font-size:2.8429575px;font-family:'Liberation Sans';-inkscape-font-specification:'Liberation Sans Bold'"
       id="tspan3737">03/03/13    421.35      SPRINGFIELD WA</tspan><tspan
       sodipodi:role="line"
       x="18.012672"
       y="36.523422"
       style="font-style:normal;font-variant:normal;font-weight:bold;font-stretch:normal;font-size:2.8429575px;font-family:'Liberation Sans';-inkscape-font-specification:'Liberation Sans Bold'"
       id="tspan3739">03/03/13    379.00      Epic Technologies</tspan><tspan
       sodipodi:role="line"
       x="18.012672"
       y="40.273422"
       style="font-style:normal;font-variant:normal;font-weight:bold;font-stretch:normal;font-size:2.8429575px;font-family:'Liberation Sans';-inkscape-font-specification:'Liberation Sans Bold'"
       id="tspan3743">03/04/13    20.28        YOUR LOCAL SUP</tspan><tspan
       sodipodi:role="line"
       x="18.012672"
       y="44.023422"
       style="font-style:normal;font-variant:normal;font-weight:bold;font-stretch:normal;font-size:2.8429575px;font-family:'Liberation Sans';-inkscape-font-specification:'Liberation Sans Bold'"
       id="tspan3846">08/15/13    75.46        Walts Drugs</tspan><tspan
       sodipodi:role="line"
       x="18.012672"
       y="47.773422"
       style="font-style:normal;font-variant:normal;font-weight:bold;font-stretch:normal;font-size:2.8429575px;font-family:'Liberation Sans';-inkscape-font-specification:'Liberation Sans Bold'"
       id="tspan3745">08/12/13    1000.00    Delta PC</tspan><tspan
       sodipodi:role="line"
       x="18.012672"
       y="51.523422"
       style="font-style:normal;font-variant:normal;font-weight:bold;font-stretch:normal;font-size:2.8429575px;font-family:'Liberation Sans';-inkscape-font-specification:'Liberation Sans Bold'"
       id="tspan3747">03/03/13    421.35      SPRINGFIELD WA</tspan><tspan
       sodipodi:role="line"
       x="18.012672"
       y="55.273422"
       style="font-style:normal;font-variant:normal;font-weight:bold;font-stretch:normal;font-size:2.8429575px;font-family:'Liberation Sans';-inkscape-font-specification:'Liberation Sans Bold'"
       id="tspan3749">03/04/13    20.28        YOUR LOCAL SU</tspan><tspan
       sodipodi:role="line"
       x="18.012672"
       y="59.023422"
       style="font-style:normal;font-variant:normal;font-weight:bold;font-stretch:normal;font-size:2.8429575px;font-family:'Liberation Sans';-inkscape-font-specification:'Liberation Sans Bold'"
       id="tspan3751">03/03/13    379.00      Epic Technologies</tspan><tspan
       sodipodi:role="line"
       x="18.012672"
       y="62.773422"
       style="font-style:normal;font-variant:normal;font-weight:bold;font-stretch:normal;font-size:2.8429575px;font-family:'Liberation Sans';-inkscape-font-specification:'Liberation Sans Bold'"
       id="tspan3753">08/12/13    1000.00    De  a PC</tspan><tspan
       sodipodi:role="line"
       x="18.012672"
       y="66.523422"
       style="font-style:normal;font-variant:normal;font-weight:bold;font-stretch:normal;font-size:2.8429575px;font-family:'Liberation Sans';-inkscape-font-specification:'Liberation Sans Bold'"
       id="tspan3755">03/03/13    379.00      E       Technologies</tspan><tspan
       sodipodi:role="line"
       x="18.012672"
       y="70.273422"
       style="font-style:normal;font-variant:normal;font-weight:bold;font-stretch:normal;font-size:2.8429575px;font-family:'Liberation Sans';-inkscape-font-specification:'Liberation Sans Bold'"
       id="tspan3757">08/15/13    75.46        Walts Drugs</tspan><tspan
       sodipodi:role="line"
       x="18.012672"
       y="74.023422"
       style="font-style:normal;font-variant:normal;font-weight:bold;font-stretch:normal;font-size:2.8429575px;font-family:'Liberation Sans';-inkscape-font-specification:'Liberation Sans Bold'"
       id="tspan3759">03/04/13    20.28        YOUR LOCAL SU</tspan><tspan
       sodipodi:role="line"
       x="18.012672"
       y="77.773422"
       style="font-style:normal;font-variant:normal;font-weight:bold;font-stretch:normal;font-size:2.8429575px;font-family:'Liberation Sans';-inkscape-font-specification:'Liberation Sans Bold'"
       id="tspan3761">03/03/13    379.00      Epic Technologies</tspan><tspan
       sodipodi:role="line"
       x="18.012672"
       y="81.523422"
       style="font-style:normal;font-variant:normal;font-weight:bold;font-stretch:normal;font-size:2.8429575px;font-family:'Liberation Sans';-inkscape-font-specification:'Liberation Sans Bold'"
       id="tspan3763">08/12/13    1000.00    Delta PC</tspan><tspan
       sodipodi:role="line"
       x="18.012672"
       y="85.273422"
       style="font-style:normal;font-variant:normal;font-weight:bold;font-stretch:normal;font-size:2.8429575px;font-family:'Liberation Sans';-inkscape-font-specification:'Liberation Sans Bold'"
       id="tspan3765">08/15/13    75.46        Walts Drugs</tspan><tspan
       sodipodi:role="line"
       x="18.012672"
       y="89.023422"
       style="font-style:normal;font-variant:normal;font-weight:bold;font-stretch:normal;font-size:2.8429575px;font-family:'Liberation Sans';-inkscape-font-specification:'Liberation Sans Bold'"
       id="tspan3783" /><tspan
       sodipodi:role="line"
       x="18.012672"
       y="92.773422"
       style="font-style:normal;font-variant:normal;font-weight:bold;font-stretch:normal;font-size:2.8429575px;font-family:'Liberation Sans';-inkscape-font-specification:'Liberation Sans Bold'"
       id="tspan3799" /><tspan
       sodipodi:role="line"
       x="18.012672"
       y="96.523422"
       style="font-style:normal;font-variant:normal;font-weight:bold;font-stretch:normal;font-size:2.8429575px;font-family:'Liberation Sans';-inkscape-font-specification:'Liberation Sans Bold'"
       id="tspan3801" /></text>
<text
     xml:space="preserve"
     style="font-size:40px;font-style:normal;font-weight:normal;line-height:125%;letter-spacing:0px;word-spacing:0px;fill:#000000;fill-opacity:1;stroke:none;font-family:Sans"
     x="43.851177"
     y="32.13871"
     id="text3838"
     sodipodi:linespacing="125%"
     inkscape:export-filename="/Users/arthurmaniet/Desktop/icon.png"
     inkscape:export-xdpi="115.2"
     inkscape:export-ydpi="115.2"><tspan
       sodipodi:role="line"
       id="tspan3840"
       x="43.851177"
       y="32.13871"
       style="font-size:16px;font-weight:bold;text-align:center;text-anchor:middle;-inkscape-font-specification:Sans Bold" /></text>
<g
     id="g3366"
     transform="matrix(0.32681848,0,0,0.32681848,21.436207,13.567347)"><g
       transform="translate(-14.567953,-599.45664)"
       inkscape:label="Layer 1"
       id="layer1" /><g
       transform="translate(1400.7975,748.89372)"
       inkscape:label="Layer 1"
       id="layer1-9" /><path
       inkscape:connector-curvature="0"
       id="path2996"
       d="M 0.6788306,66.922259 C 5.3078975,56.177513 22.745306,15.805061 23.477272,14.137528 l 0.970595,-2.211169 6.373007,0.08829 c 4.127513,0.05719 6.449421,0.164701 6.589878,0.305158 0.274057,0.274057 1.025013,-1.533275 -12.465917,30.001848 l -11.198371,26.176264 -6.8732298,0 -6.8732320232942,0 L 0.6788306,66.922259 Z M 42.834019,57.061685 42.781502,45.625453 35.767279,45.511875 c -3.85782,-0.06246 -7.037093,-0.131083 -7.065048,-0.152482 -0.02796,-0.0214 -0.05082,-0.136872 -0.05082,-0.256607 0,-0.285615 4.020337,-9.711356 4.393186,-10.299892 0.282176,-0.445406 0.373855,-0.454703 5.012173,-0.508276 l 4.724741,-0.05456 0.05256,-11.131265 0.05256,-11.131263 18.579449,0 c 16.754475,0 18.59157,0.03158 18.702855,0.321595 0.06787,0.176875 0.123408,2.502383 0.123408,5.167794 0,2.66541 -0.05553,4.990918 -0.123408,5.167795 -0.110665,0.288392 -1.417308,0.321917 -12.656096,0.324707 -6.892977,0.0016 -12.648576,0.07668 -12.790217,0.166578 -0.199654,0.12673 -0.245344,1.393916 -0.203311,5.638761 l 0.05422,5.475298 12.695886,0.05238 c 9.846774,0.04062 12.731884,0.109066 12.856293,0.304966 0.2094,0.32973 0.2094,10.340981 0,10.67071 -0.124409,0.195901 -3.009519,0.264338 -12.856293,0.304968 l -12.695886,0.05238 0,5.794358 0,5.794357 12.695886,0.05238 c 9.84466,0.04061 12.732637,0.109105 12.859529,0.304965 0.09,0.138922 0.158008,2.654194 0.151126,5.589494 l -0.01252,5.336907 -18.690507,0 -18.690506,0 -0.05252,-11.436231 z m 42.13447,5.846725 0,-5.589508 12.656096,-0.05237 12.656105,-0.05237 0,-5.794358 0,-5.794358 -12.60528,-0.10165 -12.605267,-0.10165 -0.05409,-5.538677 -0.0541,-5.53868 12.659357,-0.05237 12.65937,-0.05237 0.0541,-5.540218 c 0.0297,-3.04712 0.0297,-5.561383 0,-5.587253 -0.0297,-0.02587 -5.8637,-0.09449 -12.964332,-0.152483 l -12.910227,-0.105435 -0.05414,-5.56539 -0.05414,-5.565388 14.184239,0.111887 c 8.74753,0.069 14.80766,0.199351 15.81072,0.340076 1.3103,0.183831 2.07187,0.453521 3.91754,1.38729 3.17342,1.605498 5.13692,3.100576 6.49225,4.943418 1.91255,2.600451 2.73344,4.537589 3.13287,7.392894 0.39574,2.828888 -0.41856,6.564089 -1.95448,8.965119 -0.81424,1.272859 -3.44577,4.089749 -4.47641,4.791701 -0.38745,0.263895 -0.68227,0.546219 -0.65514,0.627384 0.0272,0.08117 0.77778,0.752839 1.66812,1.492614 0.89034,0.739776 1.88811,1.725501 2.21728,2.190503 0.32916,0.465004 0.85624,1.180135 1.17128,1.589186 0.75798,0.984143 1.11984,2.017167 1.7336,4.948974 0.57632,2.752933 0.54679,4.253167 -0.13624,6.923803 -0.5854,2.288884 -1.63822,4.107331 -3.55485,6.139955 -1.86054,1.973151 -4.13896,3.484131 -6.27841,4.163672 -1.67187,0.53102 -7.86576,0.744686 -21.931163,0.75654 l -10.724647,0.0091 0,-5.589506 z"
       style="fill:#015f2d" /></g><text
     xml:space="preserve"
     style="font-style:normal;font-weight:normal;font-size:20px;line-height:125%;font-family:sans-serif;letter-spacing:0px;word-spacing:0px;fill:#000000;fill-opacity:1;stroke:none;stroke-width:1px;stroke-linecap:butt;stroke-linejoin:miter;stroke-opacity:1"
     x="22.880564"
     y="49.804771"
     id="text3363"
     sodipodi:linespacing="125%"><tspan
       sodipodi:role="line"
       id="tspan3365"
       x="22.880564"
       y="49.804771"
       style="font-style:normal;font-variant:normal;font-weight:bold;font-stretch:normal;font-size:17.5px;font-family:sans-serif;-inkscape-font-specification:'sans-serif Bold'">CSB</tspan></text>
</svg>